<svg xmlns="http://www.w3.org/2000/svg" viewBox="0 0 45.75 44.62">
    <defs>
        <style>.cls-1{fill:#fff;fill-rule:evenodd;}</style>
    </defs>
    <title>burger</title>
    <g id="Слой_2" data-name="Слой 2">
        <g id="Layer_1" data-name="Layer 1">
            <path class="cls-1"
                  d="M8.5,31.55c0-.23,0-.48,0-.74l.13-.07a2.07,2.07,0,0,1,.2.46,1.42,1.42,0,0,1,.06.7c-.06.16-.32.25-.5.39A1.08,1.08,0,0,0,7,31.63c-.11,0-.18.19-.26.3-.24.33-.48.66-.71,1-.11.15-.2.32-.34.53l-1.23-1a.54.54,0,0,1,.07-.13,5.52,5.52,0,0,1,.54.28c.23.15.42.22.58-.08,0-.06.16-.06.24-.09s.23-.05.24-.09A.63.63,0,0,0,6,32a5.77,5.77,0,0,0-.29-.55l.16-.08c.08.15.16.29.34.59-.08-.89.63-.66,1-.92C7.85,30.59,7.86,31.69,8.5,31.55Z"/>
            <path class="cls-1"
                  d="M16,38c-.75,0-1.31.15-1.56.88-.1.31-.5.3-.7,0l-.36-.55-.24.64c-.06-.15-.11-.23-.09-.26.21-.42.33-.82-.07-1.2.12-.12.22-.29.37-.35s.26.07.42.12c0,.09,0,.19,0,.29,0,.59.36.79.88.52a5.32,5.32,0,0,0,.65-.39C15.69,37.41,15.88,37.54,16,38Z"/>
            <path class="cls-1"
                  d="M17.39,21.9a3.5,3.5,0,0,1-.89,2.27.41.41,0,0,1-.39,0c-.06,0-.1-.22-.07-.32a10.33,10.33,0,0,0,.33-1.08C16.46,22.23,17,22.22,17.39,21.9Z"/>
            <path class="cls-1"
                  d="M22.16,30.63c-.57.77-.57.77-.4,1l-1,.59c0-.13,0-.25.05-.38l-.51-1a.74.74,0,0,0,1.18-.31C21.73,30.09,22,30.34,22.16,30.63Z"/>
            <path class="cls-1"
                  d="M20.67,40.94l-.68-.1-.12.48c-.34-.41-.62-.74-.91-1.07C19.67,39.78,19.94,39.88,20.67,40.94Z"/>
            <path class="cls-1"
                  d="M24.87,31.47l.87-1.11.17.12a1.25,1.25,0,0,0-.25.33,1.11,1.11,0,0,0-.12.56c.05.35-.4,1.16-.73,1.22a.26.26,0,0,1-.2-.05.19.19,0,0,1,0-.18C24.67,32,24.78,31.71,24.87,31.47Z"/>
            <path class="cls-1" d="M23,32.9l1.24-.31c.06.12-.49.47,0,.67L23,33S23,32.94,23,32.9Z"/>
            <path class="cls-1"
                  d="M13.7,31.63c-.15-.46-.24-.71-.32-1l.09-.13a3,3,0,0,1,.61.49C14.12,31.08,13.88,31.35,13.7,31.63Z"/>
            <path class="cls-1" d="M18.43,33l1.4.57-.07.21-1.42-.52Z"/>
            <path class="cls-1" d="M17,43.36l1.25,1C17.44,44.22,17,43.89,17,43.36Z"/>
            <path class="cls-1" d="M19.69,37.08c.44.25.37.61-.32,1.21.06-.2.12-.39.17-.58Z"/>
            <path class="cls-1"
                  d="M16,44.62c-.12-.26-.22-.44-.3-.63s-.07-.23,0-.27.26-.1.27-.07a2.44,2.44,0,0,1,.28.67C16.24,44.4,16.08,44.52,16,44.62Z"/>
            <path class="cls-1" d="M17.33,40c-.3-.3-.59-.61,0-1.18.08.46.13.81.19,1.15Z"/>
            <path class="cls-1" d="M14.7,31.41l.89.79-.16.16c-.33-.23-.72-.4-.87-.81A.93.93,0,0,0,14.7,31.41Z"/>
            <path class="cls-1" d="M13.48,28.35l1-.55c0,.11,0,.36,0,.37C14.18,28.28,13.9,28.79,13.48,28.35Z"/>
            <path class="cls-1" d="M13.13,39.66c-.05.55-.09,1.1-.13,1.65l-.19,0,.12-1.63Z"/>
            <path class="cls-1" d="M26.18,27.41l.06,1.3h-.13c0-.43-.07-.86-.1-1.29Z"/>
            <path class="cls-1"
                  d="M18.65,6.31l-.9.07-.32.47L18,7.4a3.18,3.18,0,0,0,2.16,1h0a1.87,1.87,0,0,0,1.57-.81,1.57,1.57,0,0,0,.18-1.21,1.35,1.35,0,0,0-.58-.91A2.72,2.72,0,0,0,19.87,5,2.34,2.34,0,0,0,18,6.09c.21,0,.42-.08.63-.1C18.62,6.1,18.64,6.2,18.65,6.31Z"/>
            <path class="cls-1"
                  d="M8.79,10.47,8,9.5l-.7,1.05a1.4,1.4,0,0,1-.16.2,1.47,1.47,0,0,0-.45,1.49,6,6,0,0,0,.77,1.3l.27.4.39.52,1.53-.28.19-.51a.82.82,0,0,1,.09-.19A1.48,1.48,0,0,0,10,12a6.92,6.92,0,0,0-.91-1.19C9,10.72,8.89,10.6,8.79,10.47Z"/>
            <path class="cls-1"
                  d="M29.13,11l.67.87,2.88-3-.76-.65L31.71,8a1.57,1.57,0,0,0-1.1-.63h-.27l-.22.13a8.6,8.6,0,0,0-1.6,1.27c-.65.61-.13,1.25.24,1.72Z"/>
            <path class="cls-1"
                  d="M14.59,13.94l.18.18.66.73,1-1a15.37,15.37,0,0,0,1.11-1.16c.5-.6.08-1.18-.22-1.61-.1-.15-.23-.32-.36-.52l-.74-1.14-.81,1.1-.39.53a14.08,14.08,0,0,0-.94,1.36C13.71,13.09,14.26,13.62,14.59,13.94Z"/>
            <path class="cls-1"
                  d="M13,6.33l-.23-.14-.23-.13h-.26a1.42,1.42,0,0,0-1,.63L11,6.87l-.7.67,1,1,.27.27a1.33,1.33,0,0,1,1-.18,1.63,1.63,0,0,0-.48.65c.13.12.26.25.4.36l.28.22h.34a1.71,1.71,0,0,0,1-.45l.5-.35,1.14-.75L14.13,7.14c-.36-.27-.67-.49-1-.69a8.67,8.67,0,0,1-1.25-.12Z"/>
            <path class="cls-1"
                  d="M23,14.09l.73,1.05,2.24-2.89-1.38-1.46a1.65,1.65,0,0,1-.08.34c-.06.22.3.58.48.87s.25.28.49.55c-1-.31-1.08-.36-1.44-1.13-.23-.48-.44-1-.65-1.45l-.49.74a1.65,1.65,0,0,1-.21.27A2.13,2.13,0,0,0,22,12.43a2.47,2.47,0,0,0,.71,1.37C22.82,13.9,22.9,14,23,14.09Zm1.81-1.41c.11,0,.2.4.15.56-.18.59-.8,1-1.72,1-.05-.13-.22-.33-.19-.49A1.87,1.87,0,0,1,24.78,12.68Z"/>
            <path class="cls-1"
                  d="M32.07,14.45c.1.06.2.14.3.21a2.61,2.61,0,0,0,1.45.6,2.14,2.14,0,0,0,1.35-.63,1.64,1.64,0,0,1,.26-.2l1.07-.71-2.83-2.31-2.75,2.38Z"/>
            <path class="cls-1"
                  d="M17,2.94l-.37.14a2.38,2.38,0,0,1,.15.55,24.93,24.93,0,0,1,5.89-.7,26.42,26.42,0,0,1,3.09.18,2.14,2.14,0,0,0-.59.51L25,3.81l-.69.65,1,1A13.57,13.57,0,0,0,26.47,6.6l.29.22h.34a1.72,1.72,0,0,0,1-.43l.51-.34,1.17-.73L28.14,4.11c-.42-.33-.77-.59-1.14-.83a22.08,22.08,0,0,1,9.44,3.87,11.81,11.81,0,0,1,5.17,8.17.22.22,0,0,0,0,.08H17.25c.2.1.24.35.16.85l-.71-.85H6a2.66,2.66,0,0,1,0,1.07l-.3-.72c0-.12-.11-.23-.16-.35H3.9s0-.08,0-.12a17.37,17.37,0,0,1,.56-2.36,12.55,12.55,0,0,1,5.2-6.23A21.09,21.09,0,0,1,15.11,4.1c-.12-.62-.23-1.25-.35-1.87a23.12,23.12,0,0,0-6.14,2.9A20.37,20.37,0,0,0,6.39,6.89c0,.23,0,.73.53.55l-1.53.81L5.33,8.1l.57-.74a13,13,0,0,0-3.19,4.93,16.75,16.75,0,0,0-.64,2.65q-.1.59-.24,1.2l-.25,1.14h6l-1-.21v-.71L8,17a2.25,2.25,0,0,0-.08.24H43.63l-.09-1.44c0-.28,0-.52-.06-.76a13.58,13.58,0,0,0-5.92-9.45A25.13,25.13,0,0,0,22.71,1a27.67,27.67,0,0,0-6,.67v0C15.89,2.45,17.1,2.45,17,2.94ZM10.41,4.69l.69.62-1.19.11Z"/>
            <path class="cls-1" d="M16,3.13l-.29.07c0,.23,0,.48,0,.71l.63-.16C16.21,3.53,16.1,3.33,16,3.13Z"/>
            <polygon class="cls-1" points="15.44 2.03 15.43 2.03 15.44 2.04 15.44 2.03"/>
            <path class="cls-1"
                  d="M36.42,11.35l.86,1,0-.05a4.72,4.72,0,0,0-.8-1.6c-.12-.13,0-.44-.06-.66L36.7,10,38,11.77l1.63-1.34-1-1c-.43-.44-.81-.83-1.22-1.18L37.19,8h-.35c-.72,0-1.45,1.07-1.45,1.08l-.27.52.31.47A13.28,13.28,0,0,0,36.42,11.35Z"/>
            <path class="cls-1"
                  d="M43.21,31.66l.23.22a10.1,10.1,0,0,0,0-1.23l-.06-.88h-.88l-1,0-1,0h0a8.54,8.54,0,0,1-1.08-.06,13.71,13.71,0,0,0-1.64-.1,7.48,7.48,0,0,0-5.94,2.56c-.24-.28-.47-.55-.67-.82a4.23,4.23,0,0,0-3.72-1.65h-.07l-3.07,0a3.59,3.59,0,0,1,.22,1.7.35.35,0,0,1-.11.18l3,0h.06a2.31,2.31,0,0,1,2.2.89c.32.44.69.85,1,1.25l.48.54.8,1,.7-1a5.65,5.65,0,0,1,5.12-2.69c.34,0,.7,0,1.07.06V30.31h.26a1.88,1.88,0,0,0,0,.53,1.53,1.53,0,0,0,.33.66.74.74,0,0,1,.12.16c.29,0,.58,0,.93,0h0l1,0h0a8.79,8.79,0,0,1-2.39,5.38,9.33,9.33,0,0,1-6.63,3.07c-6.51.09-13.18.09-19.82,0a9.23,9.23,0,0,1-8.81-8.44H15.84l8.09,0a.28.28,0,0,1-.08-.12c-.2-.44-.3-.93-.53-1.34a.92.92,0,0,1-.13-.42H2.07l0,.9a10.87,10.87,0,0,0,3,7.82A10.92,10.92,0,0,0,12.71,42c3.63.07,7.3.1,10.9.1,3,0,6,0,9-.07a11.21,11.21,0,0,0,8-3.67,10.73,10.73,0,0,0,2.82-6l-.69.06ZM26.59,40.52c0-.07,0-.14,0-.2a3.78,3.78,0,0,1,1,0c.09,0,.06.48.1.92ZM30,40.6a2.5,2.5,0,0,1-1.53-.12l0-.26,1.53.09Z"/>
            <path class="cls-1"
                  d="M2.93,26.4H13.37a4.11,4.11,0,0,1-.21-.42c-.17-.38.26-1,.7-1.18a.78.78,0,0,0,.38-.28h-1.8l.61,1.69A2.52,2.52,0,0,1,12,24.52h-9a1.09,1.09,0,0,1-.8-.29,1,1,0,0,1-.26-.7c0-.78.69-.95,1.26-.95l5.74,0a.5.5,0,0,1,0-.17,6.58,6.58,0,0,1,.23-1.14,2.82,2.82,0,0,1,1.34,1.32h3.64c0-.23-.08-.46-.1-.7.21.3.36.52.47.7h5c1,0,1.87,0,2.64,0h.1a2.1,2.1,0,0,1,.36,0c-.09-.09-.17-.19-.26-.27a3.08,3.08,0,0,1,.69-.62c.08,0,.35.29.68.57a7.31,7.31,0,0,1-.68.47,2,2,0,0,1,.55.44c.43.47.87.91,1.35,1.37H14.65c-.17.67-.6,1.38-1,1.48a3,3,0,0,0-.25.25l.2.15h15.9L27.9,24.79l-1-1c-.72-.69-1.33-1.28-1.9-1.9l-.09-.1c0,.13-.25.24-.38.36-.15-.17-.38-.33-.44-.54s.09-.17.24-.32a3.4,3.4,0,0,0-2.06-.63h-.17c-.75,0-1.56,0-2.57,0H8.69c0,.1.11.24.21.47l-1.78-.36a.49.49,0,0,1,0-.11H4.32l1,1-.14.15c-.53-.06-1.06-.15-1-1.12H3.13a3.69,3.69,0,0,0-.9.12l.07,0C1.53,21.43,1.08,22,1.42,23c.15.39-.26.7-.7.57-.21-.06-.41-.14-.7-.24,0,.06,0,.12,0,.18v0c.07.2.12.36.2.6L0,24a2.82,2.82,0,0,0,.75,1.5A3,3,0,0,0,2.93,26.4Z"/>
            <path class="cls-1"
                  d="M44,22.29a2.77,2.77,0,0,0-2.1-.76.81.81,0,0,1-.51.51c-.24.08-.48.14-.85.24.08-.21.14-.4.21-.58a.87.87,0,0,0-.3.17c-1.17,1-2.28,2.14-3.42,3.22l.33.38c1.73,0,3.46.1,5.17-.06a2.62,2.62,0,0,0,1.78-1.2A2.38,2.38,0,0,0,44,22.29Z"/>
            <path class="cls-1"
                  d="M35.31,32.17l.53-1.39c-.35-.08-.35-.08-.39-1.32-.43-.14-.87-.21-.76.45s-.16,1.13-.94,1.25l1.3.59C35.14,31.89,35.23,32,35.31,32.17Z"/>
            <path class="cls-1"
                  d="M45.73,34.46c.06-.06-.09-.46-.13-.46a8.54,8.54,0,0,0-1.14.17L45,35A4.09,4.09,0,0,0,45.73,34.46Z"/>
            <path class="cls-1" d="M45.36,31.62c-.88-.1-1.29.25-1.27,1C44.94,32.81,44.86,31.93,45.36,31.62Z"/>
            <path class="cls-1" d="M39.71,30.42c-.7.22-.41-.58-.58-.65l-1,1.31a.91.91,0,0,0,.07.14Z"/>
            <path class="cls-1" d="M35.56,34.61l-.09-.28-1.87.54c0,.12.08.23.11.35Z"/>
            <path class="cls-1" d="M38.12,38c.11.26.23.5.34.75s.2.48.3.72C39,38.29,38.76,37.86,38.12,38Z"/>
            <path class="cls-1"
                  d="M35.31,20a3,3,0,0,0-.53.41,2.12,2.12,0,0,0,.6.23.77.77,0,0,0,.51-.21c.06-.06,0-.38,0-.41A.84.84,0,0,0,35.31,20Z"/>
            <path class="cls-1" d="M25.72,33.11s-.22-.25-.32-.37l-.57,1.36C25.61,34.21,25.49,33.48,25.72,33.11Z"/>
            <path class="cls-1"
                  d="M28.69,12.94a3.43,3.43,0,0,1,0-.56c.05-.26.14-.51.21-.78h-.82c-.08.22-.23.43-.21.61a1.27,1.27,0,0,0,.32.63C28.32,12.94,28.53,12.91,28.69,12.94Z"/>
            <path class="cls-1" d="M25.88,7.47a1.3,1.3,0,0,0-.45,2C25.57,8.8,25.71,8.17,25.88,7.47Z"/>
            <path class="cls-1"
                  d="M12.94,11.49c.06-.07-.1-.47-.14-.47a11.3,11.3,0,0,0-1.14.18l.54.85A4.61,4.61,0,0,0,12.94,11.49Z"/>
            <path class="cls-1" d="M27.38,10.2c-.56-.53-.78-.54-1.44-.12l.31.59Z"/>
            <path class="cls-1" d="M2.77,11.63l-.09-.27L.8,11.9l.12.34Z"/>
            <path class="cls-1" d="M4.26,18.63v.05h.06Z"/>
            <path class="cls-1" d="M26,18.37l.27.28L27,17.57C26.35,17.45,26,17.71,26,18.37Z"/>
            <path class="cls-1" d="M22.15,22.07c.18-.43.06-.79-.51-1l.3,1.09Z"/>
            <path class="cls-1" d="M26.92,20.71V19.24l-.27,0c0,.49.07,1,.11,1.48Z"/>
            <path class="cls-1" d="M4.15,0,4,.16,5.13,1.39l.12-.12Z"/>
        </g>
    </g>
</svg>