<svg xmlns="http://www.w3.org/2000/svg" viewBox="0 0 44 39.21">
    <defs>
        <style>.cls-1{fill:#e35028;}</style>
    </defs>
    <title>cow</title>
    <g id="Слой_2" data-name="Слой 2">
        <g id="Layer_1" data-name="Layer 1">
            <path class="cls-1"
                  d="M40.16,13.6l-1.1-2.09a14,14,0,0,0,3.48-3.36c-.43-.46-.86-.93-1.3-1.39l.22-.21L42.67,8c1.57-2.36,1.79-4.88.44-7L42.83.45,42,1.36c-.35.37-.68.73-1,1.08s-.52.5-.78.74a.23.23,0,0,1,0,.11,1,1,0,0,1-.34.22A12.86,12.86,0,0,1,28.13,6.4,21.18,21.18,0,0,0,24,6.05c-1.44,0-2.91.09-4.34.19s-2.83.18-4.22.18l-1.09,0a1.12,1.12,0,0,1,.05.13.6.6,0,0,1-.15.52A.6.6,0,0,1,13.73,7a2.37,2.37,0,0,1-.47-.56H13A8.41,8.41,0,0,1,10,6,15.91,15.91,0,0,1,7.26,4.6a1.22,1.22,0,0,0,.22-.38c0-.15,0-.47-.14-.51a1.35,1.35,0,0,0-1,.29l-.84-.58L4.19,2.53a1,1,0,0,1-.4.25c-.31.1-.62.17-1.09.3.17-.48.31-.88.45-1.26l-.77-.57L1.3.45.68,0l0,.77C.45,5.66,2.1,9,5.81,11.35c-.34.45-.7.88-1,1.3A17.08,17.08,0,0,0,2.43,16C.93,19.24.28,20.87.82,21.94S2.64,23.2,5,23.69l1.23.25c1.22.26,1.72.56,2.11,1.77a22.2,22.2,0,0,0,8.46,11.55,9.27,9.27,0,0,0,5.39,2,7.21,7.21,0,0,0,4.54-1.66,7.94,7.94,0,0,0-.77-.28c-.17,0-.17-.77-.26-1.27l1.9.41.17.26.82-.72c-.12.46-.24.9-.32,1.24l1.59-.73a1.39,1.39,0,0,0-.79-1,22.67,22.67,0,0,0,5-6.18c1-2.06,1.94-3.85,3.43-5l.09,0-.05-.06a6.37,6.37,0,0,1,3.68-1.2,2.31,2.31,0,0,0,2.06-1,2.81,2.81,0,0,0-.16-2.68C42.19,17.46,41.16,15.49,40.16,13.6ZM3.72,5.46l6.93,3.8-.36.12a3.43,3.43,0,0,1-1.5.3A6.36,6.36,0,0,1,3.72,5.46Zm2.39,7.12.89.81-1.53.14C5.79,13.06,6,12.83,6.11,12.58ZM3.16,20.82a14.17,14.17,0,0,1,2.93-5.94,1,1,0,0,0-.08,1,12.93,12.93,0,0,1,.49,1.22c0,.11.22.27.29.25a.53.53,0,0,0,.34-.31,3.94,3.94,0,0,0-.72-2.55,9.46,9.46,0,0,1,1.72-1.36L7.7,17.87a1.7,1.7,0,0,1,1.19-.2C8.32,18,8.32,18.93,7.6,19l-.25,2.69ZM7.72,21a13.41,13.41,0,0,1,1.46-.22c.06,0,.26.52.18.6a5.75,5.75,0,0,1-.95.72Zm20,12.88a2.45,2.45,0,0,0,.19-.8c.06-1,.06-1-.67-2a7.34,7.34,0,0,0,.33,1.6.81.81,0,0,1-.44,1.07c-.39.13-.78.72-.63,1.07l0,.06-.61.48a6.35,6.35,0,0,1-3.73,1.52h0a6.64,6.64,0,0,1-3.47-1.22h-.41c0-.08,0-.16-.05-.25h.06l-.12-.08A18.24,18.24,0,0,1,15,32.44l.29.1c.39.12.77-.16.64-.52-.31-.85.09-1.4.79-1.94-.43-.29-.69-.27-.83.23a4.91,4.91,0,0,1-.32.83c-.28.63-.72.68-1.18.17l-.22-.26-.27.08a19.46,19.46,0,0,1-3-5.83,2.52,2.52,0,0,0,1.28.06l0-.25L10.73,25v0a19.11,19.11,0,0,1-.35-10.18A15.5,15.5,0,0,1,8,14.69c.79,0,1.58,0,2.36,0h0c0-.1,0-.2.07-.3A9.42,9.42,0,0,1,12,11.14l-.63-3.3.29-.14c.13.27.26.54.41.79s.31.45.48.68a3.69,3.69,0,0,0,.66-.65,5.56,5.56,0,0,0,.4-1c.23.53.41.93.58,1.29-.4.34-.43.56-.32.72a6,6,0,0,1,2-.65A51.77,51.77,0,0,1,23,8.36c1.41,0,2.81.06,4.17.19a7.48,7.48,0,0,1,3,.92c0,.16.07.34.34.77.1-.19.18-.34.23-.45a8.22,8.22,0,0,1,3.2,5.6c.16,1,.23,2,.3,2.87,0,.37.05.71.08,1A18.55,18.55,0,0,1,27.73,33.83ZM33.85,9.41l7.09-3.36a5.54,5.54,0,0,1-4.33,3.68l-.39.09a5.68,5.68,0,0,1-1.28.23A1.14,1.14,0,0,1,33.85,9.41ZM37.3,22.3c0-.15-.09-.3-.14-.44l2.41-.7a3.58,3.58,0,0,0,.11.35ZM37,21.75l-.85-8.54a8.81,8.81,0,0,1,2.44,2.1c0-.66.48-.59,1-.42.05,1.6.05,1.6.5,1.7-.08.2-.17.43-.26.68A21.26,21.26,0,0,1,41,20.77Z"/>
            <path class="cls-1"
                  d="M19.41,4.42c.23.18.44.4.66.61l.44-.6L18.13,1.3l-.2.05c0,.21-.06.49.05.6C18.65,2.67,18.57,3.81,19.41,4.42Z"/>
            <path class="cls-1"
                  d="M11,34.78a5.58,5.58,0,0,0-.22,1,2.31,2.31,0,0,0,.2.7l.45-.45,1.15,1.08A3,3,0,0,0,11,34.78Z"/>
            <path class="cls-1"
                  d="M33.2,5.52c-.32-.06-.64-.15-1-.18s-.52,0-.51-.38-.25-.43-.57-.32c-.55.19-.79.51-.53,1.17C31.44,4.94,32.28,5.91,33.2,5.52Z"/>
            <path class="cls-1"
                  d="M22.79,9.3a.74.74,0,0,0-.5-.2c-.06,0-.18.17-.23.28-.15.36-.27.74-.44,1.21l.77-.21A.76.76,0,0,0,22.79,9.3Z"/>
            <path class="cls-1"
                  d="M29.19,11.37c-.45,1-.38,1.46.19,2a.29.29,0,0,0,.48-.32,9.4,9.4,0,0,0-.34-.88C29.44,11.94,29.35,11.73,29.19,11.37Z"/>
            <path class="cls-1"
                  d="M28.31,37.87c-.45.38-.37.81.16,1.05.34-.49.67-1,1-1.48l-.15-.13A7.05,7.05,0,0,0,28.31,37.87Z"/>
            <path class="cls-1"
                  d="M34.81,31.4c.16.15.33.42.48.42s.41-.24.75-.46c-.3-.27-.54-.56-.61-.52A2.71,2.71,0,0,0,34.81,31.4Z"/>
            <path class="cls-1" d="M30.24,5.15,28.68,3.86A1.45,1.45,0,0,0,30.24,5.15Z"/>
            <path class="cls-1" d="M37.61,21.56,38,19.79A1.19,1.19,0,0,0,37.61,21.56Z"/>
            <path class="cls-1" d="M23.39,34.29H21.51C21.9,34.79,22.53,34.78,23.39,34.29Z"/>
            <path class="cls-1" d="M19.41,26.61c.11.23.22.45.32.68l.27.65C20.2,26.89,20,26.51,19.41,26.61Z"/>
            <path class="cls-1"
                  d="M20.74,35.34s-.19.17-.2.26.12.18.22.23.43.22.74.37c0-.16.06-.38,0-.44A3.44,3.44,0,0,0,20.74,35.34Z"/>
            <path class="cls-1" d="M8.55,31.52l.13-.14-1-.92C7.57,31.39,8.06,31.46,8.55,31.52Z"/>
            <path class="cls-1"
                  d="M17.39,10.74c.07-.06,0-.35,0-.37a.69.69,0,0,0-.49,0,1.83,1.83,0,0,0-.47.37,1.89,1.89,0,0,0,.54.21A.65.65,0,0,0,17.39,10.74Z"/>
            <path class="cls-1" d="M38.1,29.66l.25.26.73-1C38.45,28.83,38.17,29.06,38.1,29.66Z"/>
            <path class="cls-1" d="M0,6.14l.67.8C.78,6.22.64,6.06,0,6.14Z"/>
            <path class="cls-1" d="M34.19,32.07l.27,1,.19-.05C34.81,32.62,34.7,32.29,34.19,32.07Z"/>
            <path class="cls-1" d="M19.35,14.18l-1-1.15-.15.14,1,1.12Z"/>
            <path class="cls-1"
                  d="M28.66,5.76A2.17,2.17,0,0,0,29,5.27c0-.07-.13-.21-.29-.43a3.36,3.36,0,0,0-.3.65C28.38,5.56,28.57,5.67,28.66,5.76Z"/>
            <path class="cls-1" d="M18.22,19a1.94,1.94,0,0,0-2,1.83,2,2,0,0,0,4.06,0A1.94,1.94,0,0,0,18.22,19Z"/>
            <path class="cls-1"
                  d="M29.32,20.22a2.5,2.5,0,0,0-.41-.63,2.09,2.09,0,0,0-.67-.57,2.41,2.41,0,0,0-.91-.32,2.72,2.72,0,0,0-1.74.33,2.63,2.63,0,0,0-1,.93,2.52,2.52,0,0,0-.4.87,2.23,2.23,0,0,0,0,.36l.35-.11.78-.21a6.39,6.39,0,0,1,.95-.19c.16,0,.31,0,.44,0a2,2,0,0,1,.37,0,1.05,1.05,0,0,1,.34.08l.18,0a1.18,1.18,0,0,0,.19.11,2.05,2.05,0,0,1,.4.23,4.85,4.85,0,0,1,.4.28c.12.1.26.17.36.27a3.72,3.72,0,0,0,.31.22c.18.13.3.2.3.2a1.89,1.89,0,0,0,.06-.35,3.07,3.07,0,0,0-.25-1.55Z"/>
        </g>
    </g>
</svg>