<svg xmlns="http://www.w3.org/2000/svg" viewBox="0 0 42 37.75"><defs><style>.cls-1{fill:#8bc03f;fill-rule:evenodd;}</style></defs><title>cucumber</title><g id="Слой_2" data-name="Слой 2"><g id="Layer_1" data-name="Layer 1"><path class="cls-1" d="M1.78,16.22l1.37-.86c.15-.09.31-.24.46-.23.83,0,1.33.53,1.42,1.5.29-.07.65-.05.8-.22a1.83,1.83,0,0,0,.28-.88,2.92,2.92,0,0,0,0-.66l-.19,0c-.12.31-.25.63-.35.91-.86-.15-.32-1.49-1.33-1.22-.54.15-1.29-.48-1.64.64-.07-.45-.1-.66-.13-.88H2.23c0,.27.07.54.07.81a.8.8,0,0,1-.12.43c0,.05-.22,0-.33,0s-.27-.06-.34,0c-.35.29-.54.11-.75-.19a7.43,7.43,0,0,0-.52-.62l-.15.13,1,1.81C1.37,16.51,1.57,16.36,1.78,16.22Z"/><path class="cls-1" d="M9.17,27.65c.66-.78,1.43-.68,2.34-.3.05-.58-.12-.83-.69-.68a6.57,6.57,0,0,1-1,.15.85.85,0,0,1-.78-.23.62.62,0,0,0,.11-.49A.83.83,0,0,0,9,25.75c0-.13.09-.26.13-.37C9,25.24,8.83,25,8.68,25a2,2,0,0,0-.61.25l0,.09a1.27,1.27,0,0,0-.52.26,10.77,10.77,0,0,0-1.06,1.45.64.64,0,0,0,.26.87.7.7,0,0,0,.94-.1c.18-.2.31-.45.49-.66l.06-.06,0,.18C8.4,27.76,8.89,28,9.17,27.65Z"/><path class="cls-1" d="M22.66,21.47c-.09-.45-.25-.87-.78-.44s-1.09.42-1.59-.21c.05.48.09,1,.13,1.45l-.24.44,1.5-.23C21.57,22.13,21.57,22.13,22.66,21.47Z"/><path class="cls-1" d="M18.34,23.94l-1.42-1.4a3.33,3.33,0,0,1-.25.28l1.47,1.34Z"/><path class="cls-1" d="M16.43,28.11l-.49.69-.49.62C16.59,29,16.85,28.63,16.43,28.11Z"/><path class="cls-1" d="M35.87,23.23c-.58-.08-.83.08-.71.66a6.53,6.53,0,0,1,.12,1c0,.77-.37,1.06-1.1.78l-.36-.15c-.15.17-.37.31-.37.45a2,2,0,0,0,.22.63c.67-.27,1.09.09,1.47.57,0,0,.15,0,.37,0l-.64-.63.85-.14c.45-.08.67-.56.36-.84C35.33,24.88,35.45,24.12,35.87,23.23Z"/><path class="cls-1" d="M41.49,20c.16-.26.29-.46.49-.76-1.67.3-1.93.57-1.76,1.67L42,20.41Z"/><path class="cls-1" d="M26.5,21.78a3.66,3.66,0,0,0-.93.46,1.74,1.74,0,0,1,.11.18l1.34.14C26.78,22.19,26.59,21.76,26.5,21.78Z"/><path class="cls-1" d="M36.82,18.33l.66.52.61.51C37.74,18.21,37.35,17.93,36.82,18.33Z"/><path class="cls-1" d="M39,22.73l.06-.21-1.48-.4C37.94,23.1,38.46,22.92,39,22.73Z"/><path class="cls-1" d="M35.3,6.64c-.31-.77-.54-1.58-.83-2.37A6.36,6.36,0,0,0,27,.14a10.13,10.13,0,0,0-6.8,5c-.37.59-.74,1.18-1.13,1.75a2.73,2.73,0,0,1-.48.48A1.4,1.4,0,0,0,18,8.86a1.06,1.06,0,0,1-.25,1,9.77,9.77,0,0,1-2.4,2A.67.67,0,0,1,15,12a1.53,1.53,0,0,0-1.7,1.41,5.68,5.68,0,0,1-.69,1.84,12,12,0,0,1-3.4,3.55.88.88,0,0,1-.39.16c-1.13.07-1.52.43-1.68,1.56a3.84,3.84,0,0,1-1.6,2.77c-.45.31-.89.65-1.33,1a.77.77,0,0,1-.71.14,1.4,1.4,0,0,0-1.78,1.14,13.1,13.1,0,0,1-.85,3.09c-.35,1-.64,2-.8,2.55-.28,3.14,1.25,5.53,3.69,6.26a7.41,7.41,0,0,0,2.14.33c1.47,0,2.94-.12,4.41-.11a3.14,3.14,0,0,0,3.16-1.7.62.62,0,0,1,.29-.24c.8-.35,1.59-.69,2.4-1a4.77,4.77,0,0,1,2.54-.36,1.45,1.45,0,0,0,1.68-1.41.84.84,0,0,1,.26-.54c.71-.48,1.44-.94,2.17-1.39,0,.27.13.53.65.71l-.89.1c0,.07,0,.15,0,.22a7.32,7.32,0,0,1,.81,0,.75.75,0,0,1,.42.13c.05,0,0,.22,0,.34s-.07.26,0,.33c.27.36.08.55-.22.74a6,6,0,0,0-.63.5l.12.15,1.84-1c-.18-.27-.32-.47-.45-.69l-.81-1.4c-.08-.15-.23-.31-.22-.46a.24.24,0,0,0,0-.08l.27-.18a1.74,1.74,0,0,1,.75-.2A1.44,1.44,0,0,0,25.82,29a3,3,0,0,1,.94-1.67,6.51,6.51,0,0,1,2.86-1.66,1.42,1.42,0,0,0,1.15-1.6,3,3,0,0,1,.55-2.25c.56-.81,1.08-1.64,1.64-2.45a.6.6,0,0,1,.41-.22,1.52,1.52,0,0,0,1.35-2.05,2.37,2.37,0,0,1-.09-1.26,19.11,19.11,0,0,0,1-5,.66.66,0,0,1,.26-.41,1.51,1.51,0,0,0,.32-2A14.09,14.09,0,0,1,35.3,6.64ZM29.84,18.75l-.17.24c-.67-.29-.82-.22-1.31.29a3.69,3.69,0,0,1-1.09.74c-.5.24-.74.56-.6,1a.7.7,0,0,0,.85.47,1.47,1.47,0,0,0,.62-.17c-.13.6-.25,1.2-.4,1.78,0,.1-.21.17-.34.23-.29.14-.57.3-.85.47a2.48,2.48,0,0,1,.28-.36,1.83,1.83,0,0,1,.47-.28l-.14-.23-1.62.92c-.22.26-.52.59-.81.94a.3.3,0,0,0,0,.24.28.28,0,0,0,.09.1,6.91,6.91,0,0,0-1.26,1.61,2.25,2.25,0,0,1-1.19,1.06,12,12,0,0,0-4.62,3.37.56.56,0,0,1-.32.17,8.94,8.94,0,0,0-2.18.55c-.26-.35-.62-.39-1.24-.27.07.22.15.44.22.67h0l-1.85.76a3,3,0,0,0-1.4,1.3.61.61,0,0,1-.37.29c-1.5.07-3,.12-4.51.16a5.47,5.47,0,0,1-.9-.08A2.42,2.42,0,0,1,3,31.81a15.89,15.89,0,0,1,.62-2.11c.22-.68.45-1.34.7-2a.71.71,0,0,1,.3-.32A11.38,11.38,0,0,0,8.47,24.5a12.94,12.94,0,0,0,1.31-2.37,1.22,1.22,0,0,1,.35-.45,16.64,16.64,0,0,0,2.92-2.32,3,3,0,0,0,.28.49,1.71,1.71,0,0,0-.28.8.74.74,0,0,0,.58.8.72.72,0,0,0,.85-.5,1.08,1.08,0,0,1,.79-.83.71.71,0,0,0,.5-.89.74.74,0,0,0-.83-.53,2.17,2.17,0,0,0-1.37.82c-.07-.16-.15-.31-.22-.46a13.11,13.11,0,0,0,2.59-4,.69.69,0,0,1,.32-.31A10.7,10.7,0,0,0,17.48,14a.89.89,0,0,0,.39.53c.41.27.73.67,1.12,1,.1.08.36.15.42.09a.64.64,0,0,0,.18-.43.78.78,0,0,0,.59-.74,1.33,1.33,0,0,1,.67-1,.73.73,0,0,0,.31-1.07.75.75,0,0,0-1.07-.19,2.59,2.59,0,0,0-1.31,1.71,4.54,4.54,0,0,0-.52-.45A11.91,11.91,0,0,0,20,11.7a4.08,4.08,0,0,0,1-2.35A.75.75,0,0,1,21.17,9c.49-.77,1-1.52,1.49-2.3a8,8,0,0,1,3.72-3.33,4.54,4.54,0,0,1,3.38-.15,2.8,2.8,0,0,1,1.69,1.59c.33.77.59,1.57.88,2.35.1.25.21.49.32.73l-.13-.12a2,2,0,0,1-.26-.48,1.71,1.71,0,0,0-.23.13l.85,1.65a.12.12,0,0,1,0,0c0,.46-.21.93-.29,1.4a2.42,2.42,0,0,0,0,.47.71.71,0,0,1-.34.67c-.18.11-.24.43-.29.67s-.06.41-.37.43a1,1,0,0,0-.49.14c-.15-.06-.29-.31-.69-1-.46.08-.88.22-.48.77a1,1,0,0,1-.26,1.57l1.44-.07a.57.57,0,0,0,.19.1l.25.16v-.1l.06,0,.24,0c-.1.72-.19,1.41-.28,2.11a.28.28,0,0,1-.08.15A7.23,7.23,0,0,0,29.84,18.75Z"/><path class="cls-1" d="M25.43,18.49a.73.73,0,0,0-.9.55,1.59,1.59,0,0,1-.87,1.19.59.59,0,0,0-.26.21,4.66,4.66,0,0,1-.1-.71c0-.05-.32-.13-.46-.18.05.58.08,1,.12,1.5a.72.72,0,0,0,.29-.18,1,1,0,0,0,.12.6.72.72,0,0,0,1,.28A3.85,3.85,0,0,0,26,19.38.76.76,0,0,0,25.43,18.49Z"/><path class="cls-1" d="M13.72,28.94a.71.71,0,0,0-.94.29,2.07,2.07,0,0,1-.23.32c0-.17.08-.36.13-.56-.44.19-.63.4-.7.62l-.23-.1a.74.74,0,0,0-1,.24.7.7,0,0,0,.14,1,8,8,0,0,0,1,.53,2.28,2.28,0,0,0,2.16-1.33A.74.74,0,0,0,13.72,28.94Z"/><path class="cls-1" d="M19.78,24.05a.67.67,0,0,0-.67.47,1.32,1.32,0,0,1-.83.77c-.17.08-.36.11-.52.19a.74.74,0,0,0,.32,1.4A2.92,2.92,0,0,0,20.5,25,.75.75,0,0,0,19.78,24.05Z"/><path class="cls-1" d="M29.43,9.93a7.48,7.48,0,0,1,0,.82.72.72,0,0,0,.67.77.71.71,0,0,0,.78-.59c0-.12,0-.25.06-.38H31a7.8,7.8,0,0,0-.21-1.45,1.78,1.78,0,0,0-.65-.84.76.76,0,0,0-1,.23.74.74,0,0,0,.15,1A.93.93,0,0,1,29.43,9.93Z"/><path class="cls-1" d="M29.2,14.37a.72.72,0,0,0-.53.87c.07.37,0,.55-.42.64a.72.72,0,0,0-.54.86.75.75,0,0,0,.88.58,1.94,1.94,0,0,0,1.61-1.85,3.26,3.26,0,0,0-.1-.55A.74.74,0,0,0,29.2,14.37Z"/><path class="cls-1" d="M23.37,8.6a1.65,1.65,0,0,0,.41-.18c.43-.28.83-.59,1.26-.88a.76.76,0,0,0,.31-.91.72.72,0,0,0-.84-.45,3.21,3.21,0,0,0-1.83,1.31C22.37,8,22.7,8.56,23.37,8.6Z"/><path class="cls-1" d="M23.79,23.2a.6.6,0,0,0-.81.2,3.34,3.34,0,0,1-1,1.13.63.63,0,0,0-.11.83.71.71,0,0,0,.77.39,1.79,1.79,0,0,0,.76-.37l.56.36c-.55-.51.3-.65.28-.84l-.34,0a2,2,0,0,0,.36-.91A.72.72,0,0,0,23.79,23.2Z"/><path class="cls-1" d="M17.61,28.67a.76.76,0,0,0-1,.29c-.1.11-.3.14-.44.22s-.58.24-.71.46a.83.83,0,0,0,.11.74,1.74,1.74,0,0,0,.61.39,1.83,1.83,0,0,0,1.69-1A.75.75,0,0,0,17.61,28.67Z"/><path class="cls-1" d="M10.65,32.24a1.1,1.1,0,0,0-.76,0,11.45,11.45,0,0,0-1.11.55.72.72,0,0,0-.43.78.67.67,0,0,0,.62.62,2.67,2.67,0,0,0,2-1c0-.08.05-.16.12-.35C10.94,32.65,10.85,32.35,10.65,32.24Z"/></g></g></svg>