<svg xmlns="http://www.w3.org/2000/svg" viewBox="0 0 60 60.18">
    <defs>
        <style>.cls-1{fill:#fff;fill-rule:evenodd;}</style>
    </defs>
    <title>kkal</title>
    <g id="Слой_2" data-name="Слой 2">
        <g id="Layer_1" data-name="Layer 1">
            <path class="cls-1"
                  d="M38.16,48.5c.15.27.22.59.35.87,0,.09.16.2.21.18a.4.4,0,0,0,.24-.22,2.89,2.89,0,0,0-.59-1.94C38.26,47.8,37.93,48.08,38.16,48.5Z"/>
            <path class="cls-1"
                  d="M44.89,51.72l.84.38.17.27c.13-.33.25-.66.34-.9-.23,0-.23,0-.25-.85-.28-.09-.56-.13-.49.29S45.4,51.64,44.89,51.72Z"/>
            <path class="cls-1"
                  d="M48.19,48.59v1.18c.07.2.16.47.27.74a.18.18,0,0,0,.11.1.24.24,0,0,0,.16-.07,1.26,1.26,0,0,0-.15-1.18,1,1,0,0,1-.22-.43,1.29,1.29,0,0,1,0-.34Z"/>
            <path class="cls-1" d="M47.75,51.76l1-.52c-.45.14-.27-.37-.38-.42l-.65.85A.36.36,0,0,1,47.75,51.76Z"/>
            <path class="cls-1"
                  d="M40.26,55a.66.66,0,0,1,0,.14c.19.12.38.24.71.47,0-.28,0-.58-.07-.6A2.81,2.81,0,0,0,40.26,55Z"/>
            <path class="cls-1" d="M44.87,54.34l1.19-.4L46,53.76l-1.21.35Z"/>
            <path class="cls-1" d="M41.5,55.15a1.6,1.6,0,0,0,1,.08c0-.06,0-.13,0-.19l-1-.06Z"/>
            <path class="cls-1" d="M39.51,52.74l-.37.88c.5.06.42-.41.58-.64C39.73,53,39.57,52.81,39.51,52.74Z"/>
            <path class="cls-1"
                  d="M49.28,12.81a2.44,2.44,0,0,0,.63-1.61c-.29.23-.66.24-.72.64a7.32,7.32,0,0,1-.23.76c0,.07,0,.21,0,.23A.31.31,0,0,0,49.28,12.81Z"/>
            <path class="cls-1"
                  d="M52.3,18.48l.7-.42c-.13-.15-.13-.15.28-.7-.14-.2-.3-.38-.48-.06s-.45.43-.83.22l.36.69Z"/>
            <path class="cls-1"
                  d="M55.15,18.75c.23,0,.55-.62.51-.87a1,1,0,0,1,.09-.39.76.76,0,0,1,.17-.23l-.11-.09-.62.79c-.06.17-.14.4-.21.63a.13.13,0,0,0,0,.12A.17.17,0,0,0,55.15,18.75Z"/>
            <path class="cls-1" d="M54.75,18.75l-.87.22,0,.08.93.17C54.41,19.08,54.8,18.84,54.75,18.75Z"/>
            <path class="cls-1"
                  d="M49.09,27a2.22,2.22,0,0,0-.2-.48.34.34,0,0,0-.2.05s0,.13,0,.19.13.27.22.45C49,27.17,49.1,27.09,49.09,27Z"/>
            <path class="cls-1" d="M47.87,15.63a1,1,0,0,0,0-.27l-.7.39C47.45,16.06,47.64,15.71,47.87,15.63Z"/>
            <path class="cls-1" d="M46.76,23.74c0,.38,0,.77-.08,1.15h.13l.09-1.16Z"/>
            <path class="cls-1" d="M56.16,16c0-.31,0-.61,0-.92H56c0,.31,0,.61.08.92Z"/>
            <path class="cls-1"
                  d="M30,18.64a6,6,0,0,0,4.25-1.75A6.06,6.06,0,0,0,36,12.61a6,6,0,0,0-5.9-6H30a5.82,5.82,0,0,0-4.37,1.8,6,6,0,0,0-1.7,4.18,6,6,0,0,0,5.68,6C29.75,18.64,29.87,18.62,30,18.64Zm-2.52-6.05a2.52,2.52,0,0,1,.7-1.73,2.34,2.34,0,0,1,1.67-.72h.29a2.46,2.46,0,0,1,2.37,2.47,2.63,2.63,0,0,1-.75,1.79,2.47,2.47,0,0,1-1.76.72h-.16A2.51,2.51,0,0,1,27.47,12.59Z"/>
            <path class="cls-1"
                  d="M6.88,50.75a9.24,9.24,0,0,0-.35,1.69,3.72,3.72,0,0,0,.33,1.15l.73-.74c.58.54,1.24,1.15,1.89,1.77A4.89,4.89,0,0,0,6.88,50.75Z"/>
            <path class="cls-1"
                  d="M24.72,40.1v2.71c.17.47.38,1.09.62,1.7a.43.43,0,0,0,.27.23.54.54,0,0,0,.36-.16c.44-.49.14-2.25-.36-2.72a2.11,2.11,0,0,1-.48-1,2.6,2.6,0,0,1,0-.79Z"/>
            <path class="cls-1"
                  d="M6.79,16.1a1.17,1.17,0,0,0-.8-.33c-.12,0-.31.28-.38.46-.25.6-.45,1.21-.73,2l1.26-.35A1.22,1.22,0,0,0,6.79,16.1Z"/>
            <path class="cls-1" d="M3.64,33.25c-1,.33-.62-.85-.87-1L1.28,34.23l.09.22Z"/>
            <path class="cls-1"
                  d="M3.44,58.78s-.32.26-.33.42.2.29.36.38c.34.19.7.35,1.21.6,0-.27.1-.63,0-.73A5,5,0,0,0,3.44,58.78Z"/>
            <path class="cls-1"
                  d="M19.46,30.76a3.5,3.5,0,0,0-.78.61,3.08,3.08,0,0,0,.88.34,1.12,1.12,0,0,0,.75-.31.68.68,0,0,0,0-.61A1.11,1.11,0,0,0,19.46,30.76Z"/>
            <path class="cls-1" d="M21.63,35.39l1.7,1.83.18-.18-1.63-1.88Z"/>
            <path class="cls-1" d="M9.84,30.1l-.05-.05,0,.05Z"/>
            <path class="cls-1"
                  d="M59.85,52.69c-.58-2.21-1.17-4.43-1.76-6.64-.22-.8-.43-1.6-.64-2.4-.18.58-.43,1.1-1.39,1l1-2.41c-.54-2-1.08-4-1.61-6.07L54.41,32.2a1.37,1.37,0,0,1-.27-.35,26.69,26.69,0,0,0-1-2.61,1.94,1.94,0,0,1,0-1.9c-.6-2.28-1.2-4.56-1.83-6.84a4.61,4.61,0,0,0-.5-1.18l.79.29.06-.15-1-.4v0a4.15,4.15,0,0,0-3.5-1.79h-.07c-.81,0-1.62,0-2.43,0a4,4,0,0,0-.13,3.43s0,.07,0,.1c.87,0,1.73,0,2.61,0,.36,0,.61.1.75.61s.19.72.29,1.08l-.18.11c-.37.18-.6.05-.62-.37a1.55,1.55,0,0,1,0-.21c-.12,0-.24-.11-.3-.08s-.18.16-.26.25c.28.27.19.55,0,.84,0,0,0,.08.07.19.06-.18.1-.28.17-.45.11.16.17.27.25.38s.42.21.5,0a.84.84,0,0,1,.38-.49c.67,2.46,1.32,4.91,2,7.37l.35,1.3c.5,1.9,1,3.81,1.51,5.71l1.62,6.15c.34,1.25.67,2.51,1,3.76.59,2.21,1.18,4.41,1.76,6.62a.79.79,0,0,1,0,.54,15.25,15.25,0,0,1-2.93.89c-2,.35-4.17.64-6.36.87-1.44.14-2.94.21-4.4.28l-1.17.05c-.75,0-1.51.06-2.27.08l-1.43,0a1.86,1.86,0,0,0-.56.11H22.55a1.66,1.66,0,0,0-.53-.11l-1.35,0-1.38-.06-.91,0c-1.06-.05-2.13-.09-3.19-.17l-.38,0c-1.43-.11-2.91-.22-4.32-.41-1.7-.23-3.51-.53-5.87-1-.72-.13-1-.32-1.09-.49V53.6s0-.09,0-.14L4,52c.15-.6.31-1.2.46-1.8l-.49-.09c.23-.69.46-1.1.86-1.29l1.12-4.21c.37-1.35.73-2.7,1.09-4l1-3.86c.33-1.26.67-2.52,1-3.78l.75-2.79-1.69.16.74-1.09,1,.88.18-.7c.63-2.32,1.27-4.71,1.88-7.08.37-1.45.37-1.45,1.59-1.45h.23c1.65,0,3.31,0,5,0h2l.47,0,2.06-.15c-.92-1.05-.94-2.62-1.91-3.66-.17-.19-.06-.64-.09-1l.28-.07a8.5,8.5,0,0,1-.59-4.32l-.34-.08V10.17l.58.27a8.8,8.8,0,0,1,6.15-6.55,8.54,8.54,0,0,1,1-.27l.37-.09h2.4a2,2,0,0,0,.33.08,8.57,8.57,0,0,1,5.93,3.53,8.8,8.8,0,0,1,1.33,8.32,15.47,15.47,0,0,1-.82,1.87c-.16.34-.33.67-.48,1l-1.14,2.5h2.93a2.77,2.77,0,0,0-1.64-.66,5,5,0,0,1,.25-1.76c.18-.34.86-.4,1.43-.62.2.24.44.51.69.79,1.34,1.51,2.63,1.38,3.48-.34a1.18,1.18,0,0,1,.2.28c.13-.09.31-.16.35-.27a.93.93,0,0,0,0-.49,1.15,1.15,0,0,0-.14-.32l.06-.14H41.73c.1-.24.19-.5.28-.76A12.32,12.32,0,0,0,40.17,5.06,12,12,0,0,0,33,.34l0,.24c-1.42.09-2.88.47-4.2-.31l0-.27h-.61L28,.05l-.51.13c-.33.07-.67.16-1,.26,0,.49,0,1.22.11,1.92L24.7,1.11a12.29,12.29,0,0,0-7.08,8.72,12,12,0,0,0,.57,7.48c-1.48,0-3,0-4.45,0h-.3c-3.32,0-4.35,1.51-5,4.11-.14.54-.29,1.08-.43,1.62.05.64.14,1.29.22,2.11H7.45c-.29,1.11-.59,2.21-.88,3.3L5.61,32l-1,3.79-1,3.85c-.36,1.35-.72,2.7-1.09,4.05l-.3,1.14a3,3,0,0,1,0,1.83l-.31-.76c-.23.88-.47,1.75-.7,2.62S.83,50,.64,50.71l.7.65-.21.23a3.56,3.56,0,0,1-.68-.14l-.19.71L0,52.44v2.3L.09,55a4.62,4.62,0,0,0,3.88,3c2.42.46,4.28.76,6,1,1.52.2,3.05.32,4.54.43l.38,0c1.09.08,2.19.13,3.29.18l.9,0q.7,0,1.41.06l1,0,.25.13H38.1l.24-.12,1,0c.78,0,1.56,0,2.35-.08l1.15-.05c1.51-.07,3.06-.14,4.6-.3l.67-.08c.41-.76,1.2-.31,2-.23l.73-.09a1.35,1.35,0,0,0,.41-.33l-1.18-1.44.15-.34a6.19,6.19,0,0,1,1.11.59,3.58,3.58,0,0,1,1.19,1.27l1.57-.26a18.49,18.49,0,0,0,3.62-1.08A3.84,3.84,0,0,0,59.85,52.69Zm-16.22-35c0,.12,0,.25,0,.35a.29.29,0,0,1-.16,0Zm-2-7.69L40.22,8.25C41.58,8.08,41.9,8.41,41.65,10ZM4.71,57.06H7.78C6.37,57.86,5.33,57.87,4.71,57.06Zm24.87.54,0-.3a5.36,5.36,0,0,1,1.5,0c.13,0,.09.72.15,1.36Zm5.1.12a3.74,3.74,0,0,1-2.27-.17c0-.13,0-.27,0-.4l2.27.15C34.71,57.44,34.69,57.58,34.68,57.72Z"/>
        </g>
    </g>
</svg>