<svg xmlns="http://www.w3.org/2000/svg" viewBox="0 0 88 75.53">
    <defs>
        <style>.cls-1{fill:#8bc03f;fill-rule:evenodd;}</style>
    </defs>
    <title>leaf</title>
    <g id="Слой_2" data-name="Слой 2">
        <g id="Layer_1" data-name="Layer 1">
            <path class="cls-1"
                  d="M60.19,71.93l1.09-1.41-1.29-1a9,9,0,0,1-1.14.09C59.27,70.36,59.72,71.1,60.19,71.93Z"/>
            <path class="cls-1" d="M62.06,62.7a7.62,7.62,0,0,0-.1-2.56c-.17,1-.38,2-.62,3Z"/>
            <path class="cls-1"
                  d="M60.63,65.67a7.16,7.16,0,0,0,.73-.19,8.87,8.87,0,0,0,.52-1.5l-.81.16C60.94,64.65,60.79,65.16,60.63,65.67Z"/>
            <path class="cls-1"
                  d="M30.25,21.72c-1.13-.38-2.28-.54-2,1.19a3.48,3.48,0,0,1,0,1.66c.86.67,1.71,1.35,2.53,2.05.19-.52.38-1,.53-1.41C30.35,25,30.35,25,30.25,21.72Z"/>
            <path class="cls-1"
                  d="M46.72,57.51A25.47,25.47,0,0,1,47.57,60l.73-.74c-.38-1.12-.79-2.22-1.21-3.3C47,56.49,46.82,57,46.72,57.51Z"/>
            <path class="cls-1"
                  d="M46,53.56l0,0c-.26-.61-.53-1.22-.82-1.82a2.83,2.83,0,0,0-1.94.27,15.57,15.57,0,0,1,2.13,2.85l1.28.26Z"/>
            <path class="cls-1" d="M54.88,60.76a3.74,3.74,0,0,0-.26,2.49c.19-.56.38-1.12.55-1.68Z"/>
            <path class="cls-1"
                  d="M57.35,34.92c.17-.18-.24-1.24-.36-1.23a9.58,9.58,0,0,0-1.26.15c.29.57.58,1.15.84,1.75A4.65,4.65,0,0,0,57.35,34.92Z"/>
            <path class="cls-1"
                  d="M56.38,27.42c-2.07-.23-3.14.47-3.32,2,.17.24.34.46.5.7C55.22,30.14,55.17,28.16,56.38,27.42Z"/>
            <path class="cls-1" d="M40,22.54,37.29,26l.17.39,4-2.14C39.64,24.83,40.4,22.74,40,22.54Z"/>
            <path class="cls-1" d="M25.67,36.9l3.65-1.2-.87-.6L25.37,36Z"/>
            <path class="cls-1" d="M48.77,66.55v0l.07,0Z"/>
            <path class="cls-1" d="M37,56.83l.37-.41-2.92-2.69C34.19,56.45,35.6,56.65,37,56.83Z"/>
            <path class="cls-1"
                  d="M15.94,40.54l.09-.75-3.68-.23.07.1a2.7,2.7,0,0,1,.42.67l.07.14.1.17A12,12,0,0,0,15.94,40.54Z"/>
            <path class="cls-1"
                  d="M2.26,34A1.42,1.42,0,0,0,4,33.1c-.24-.54-.46-1.08-.67-1.63C2.93,32.36,2.6,33.15,2.26,34Z"/>
            <path class="cls-1" d="M24.67,65.31c.17.25.34.49.5.74.43.26.87.51,1.32.76L25.2,64.89Z"/>
            <path class="cls-1" d="M80.3,60.06l.78,2.88.55-.13C82.1,61.67,81.8,60.72,80.3,60.06Z"/>
            <path class="cls-1" d="M37.09,8,34.18,4.63l-.43.42,3,3.25C36.87,8.19,37,8.09,37.09,8Z"/>
            <path class="cls-1" d="M50.7,17l-1.32,1.94,3.13-.29Z"/>
            <path class="cls-1"
                  d="M79.84,32.94l-.09-.85-.31.16s0-.07,0-.11l.32-.41-.23-2.13-2.07,1.61c0,.65,0,.66.28.71-.1.27-.25.65-.4,1-.06-.1-.12-.21-.19-.31l-1-.44a23.1,23.1,0,0,1-10,4.94,44.72,44.72,0,0,0-4.77,1.42l-1.89.62a2.89,2.89,0,0,0-1.21.77,38.61,38.61,0,0,0-1.69-4.36c-.36.26-.76.51-1.17.8-.5-.79-.83-1.33-1.41-2.24.66-.12,1.22-.23,1.74-.31a35.82,35.82,0,0,0-2.17-3.7,2.62,2.62,0,0,1-.53-.05,4.57,4.57,0,0,1,0-.65,36.26,36.26,0,0,0-6.88-7.3,38,38,0,0,0-4.4-3,3.13,3.13,0,0,1-.33,2.24.89.89,0,0,1-.64.29.7.7,0,0,1-.48-.4c-.42-1.09-.8-2.19-1.09-3v-.49a45.75,45.75,0,0,0-9.87-3.49c-3.06-.72-6.2-1.47-9.23-2.39l0,.06L18,11.49a2,2,0,0,1,.11-.29c-5.63-2-10.4-5.58-13.93-8.53-.18-.15-.37-.28-.58-.44L.62,0,.33,3.37C.13,5.67,0,7.88,0,10a10.41,10.41,0,0,1,1.49,6.43c0,.35-.57.78-1,.9a.44.44,0,0,1-.29-.1,61.69,61.69,0,0,0,.87,6.42,45.17,45.17,0,0,0,2.2,7.8c.14-.35.29-.7.45-1.09.27.3.91.86.85,1A12.11,12.11,0,0,0,4,33.1,34.78,34.78,0,0,0,7.25,39l-2.63-.28-1,0L2,40.44l.52,1.16c.27.61.53,1.22.8,1.84.58,1.38,1.19,2.8,1.92,4.18a26.65,26.65,0,0,0,6.06,7.55v2l0,.68.35.52.33.47a38.9,38.9,0,0,0,21,14.57,66.78,66.78,0,0,0,14.7,2.09h.55a7.35,7.35,0,0,0,7-4.42c.21-.44.43-.88.64-1.31.08-.15.15-.31.22-.46l1.74.23a7,7,0,0,0,1,.07h0a19.77,19.77,0,0,1-.91-1.77c-.44-1,.69-2.74,1.84-3.11A2.36,2.36,0,0,0,61,61.63,20.66,20.66,0,0,1,60.1,57,12,12,0,0,1,62,60.14a41.92,41.92,0,0,0,.59-9.58c0-.18,0-.36,0-.54h1.67c0-.33-.07-.58-.09-.84,0-.56,0-1.11-.08-1.66,0-.18-.06-.4,0-.53a1.48,1.48,0,0,1,2.08-.52c.08-.29.28-.61.2-.83s-.4-.49-.65-.7a2.83,2.83,0,0,0-.6-.31l-.08.18.64.78c-.56.69-1.5-.47-1.76.57-.14.57-1.09.92-.26,1.8l-.86-.33-.1.2c.26.12.52.21.76.35a.78.78,0,0,1,.33.32c0,.06-.12.2-.18.3s-.19.21-.17.29c.07.46-.19.54-.56.57l-.33.06c-.16-2-.47-4.07-.79-6-.07-.41-.13-.83-.2-1.25l1-.35c1.18-.4,2.31-.77,3.44-1.07,0-.33.34-.54.41-.83.19-.74.85.08,1.25-.41-.13-.17-.29-.36-.45-.55l.06-.13a2.1,2.1,0,0,1,.42.22,1.36,1.36,0,0,1,.46.5c.06.15-.08.38-.14.59a1,1,0,0,0-1.47.36.23.23,0,0,0,0,.12l.43-.11a27.12,27.12,0,0,0,9.38-4.05A30.3,30.3,0,0,1,76,41.31a1,1,0,0,0,.2-.3,4.32,4.32,0,0,0,.26-.68c.11-.42.33-.43.68-.19-.57.44-.9.89-.65,1.59.11.29-.2.53-.52.43l-.11,0-.09.58A16.83,16.83,0,0,1,72,50.77l-3,3.54L74,53.79a13.37,13.37,0,0,1-5.31,5.11l-6.66,3.8a1.15,1.15,0,0,1,0,.18,6.4,6.4,0,0,1-.17,1.1l4.81-1a21.86,21.86,0,0,1-5.33,2.47,4.4,4.4,0,0,1-2,2.43c-.22.23-.45.45-.67.67.43.31.85.63,1.3,1,4.93-.61,12.37-4.76,14.09-8.86l.75-1.79a15.71,15.71,0,0,0,3.88-6.77l.76-2.65-2.26.23c.13-.24.24-.49.36-.74a.48.48,0,0,0,.51-.63c0-.1,0-.19-.07-.28.23-.54.44-1.09.63-1.66l.36-.31L78.78,46a24.36,24.36,0,0,0,.65-2.55A35.48,35.48,0,0,0,79.84,32.94ZM1.51,5c0-.08,0-.17,0-.25a4.35,4.35,0,0,1,1.25,0c.11,0,.07.59.12,1.13Zm18.91,7a4.08,4.08,0,0,1,2.17,3.22L21,13.8l-.61.61a2.9,2.9,0,0,1-.27-.95A8,8,0,0,1,20.42,12.05Zm-6-.75,1.37,1.26-.17.19C15,12.67,14.3,12.57,14.44,11.3ZM3.9,4.65l1.89.12c0,.11,0,.23,0,.35A3.13,3.13,0,0,1,3.86,5C3.88,4.87,3.89,4.76,3.9,4.65ZM6.84,39.8a9.51,9.51,0,0,1,2.67,0c.23.06.16,1.27.26,2.42L6.88,40.34C6.87,40.16,6.86,40,6.84,39.8Zm36.5,32.29c-.9-.43-1.55-.71-2.16-1.06-.27-.16-.66-.47-.64-.67s.5-.8.59-.76a9.28,9.28,0,0,1,2.18,1.21C43.52,71,43.34,71.63,43.34,72.09Zm7-6c.22.9.42,1.81.62,2.72a12.69,12.69,0,0,1-1.86.36l-.28-2.41,0-.22c-2.46,1.38-4.28,1.4-5.38,0h5.38c-.08-.69-.16-1.38-.26-2A34.52,34.52,0,0,0,47.57,60l-.36.36a6.64,6.64,0,0,1-.59-2,5.87,5.87,0,0,1,.1-.83c-.15-.38-.31-.77-.48-1.14a17.16,17.16,0,0,0-.8-1.54L42,54.14A4.06,4.06,0,0,1,43.31,52a14.48,14.48,0,0,0-3.26-2.59l2.35.12-.94-2.63c-.17-.47-.32-.93-.47-1.37-.34-1-.66-2-1.09-2.92-.13-.29-.26-.58-.41-.86.72,1,1.41,2.07,2.07,3.13a67.16,67.16,0,0,1,3.69,6.85A17.85,17.85,0,0,1,48,52.4l-2,1.13c.35.8.69,1.62,1,2.45.06-.21.11-.43.16-.64,2.92,1.4,4,3.91,4.62,6.88-1.16-1.1-2.33-2.19-3.36-3.15l-.21.21C49.05,61.49,49.73,63.76,50.32,66.14Zm4.3-2.89c-.09.26-.18.51-.28.77s-.28.72-.44,1.08a84.19,84.19,0,0,0-2.57-8.45l.18-.18.82.77a2.11,2.11,0,0,0-1.13-1.68c0,.14-.07.28-.11.42-.06-.17-.13-.34-.2-.52l.18,0c-.1-.21-.15-.31-.17-.37l.49-.28a3.17,3.17,0,0,0-.81-.18A74.07,74.07,0,0,0,44.73,42.9a68.66,68.66,0,0,0-14-16.28c-.27.7-.56,1.47-.86,2.24-.23-.36-.45-.73-.68-1.1l-3.43-1.55c1.38-.21,2.17-.72,2.44-1.64a83.07,83.07,0,0,0-12.59-8,5.93,5.93,0,0,0-.63-.26l-1.65-.62-1.71,2.83,9.45,8-4.16-.13-1.33.08L14.31,29.5l2.07.67a5.22,5.22,0,0,0,.56.18A37.92,37.92,0,0,1,26.56,34q1,.55,1.89,1.14l1.86-.54.24.74-1.23.4a20.55,20.55,0,0,1,7.18,8.42c.2.44.37.9.55,1.38l-7.91-.4a2.17,2.17,0,0,0-.39-1.48,1.67,1.67,0,0,1-.35-.69,2.16,2.16,0,0,1,0-.57h-.27v1.92c.08.22.17.49.28.77l-12.15-.61L16,48.28l1.74.23,2.28.3c1.64.21,3.34.42,5,.68l1.62.24c2.5.39,5.09.78,7.56,1.34a11.74,11.74,0,0,1,8.69,6.85,26.62,26.62,0,0,1,2,7.13c.06.44.12.88.17,1.33L31.73,67.55l1.38,2a35,35,0,0,1-6.62-2.79l1.84,2.75c-.17.12-.35.25-.53.36l-2.63-3.87a35.38,35.38,0,0,1-7.33-5.93l2.35.5.6-1.14a2.82,2.82,0,0,0-.52-.09,4.61,4.61,0,0,1,.24-1.7c.12-.22.46-.32.84-.43l-1.19-.61c-5.47-2.83-9.29-6.36-11.66-10.79-.53-1-1-2-1.45-3.09l7.52.81L13,40.64a3.12,3.12,0,0,1-1.1-.4c0-.23.05-.47.08-.7l.36,0A34.78,34.78,0,0,1,4.77,23a66.36,66.36,0,0,1-1-15.77,55.68,55.68,0,0,0,7,4.77,1,1,0,0,0,0-.1c.18-.69.54-.71,1.12-.31a4.13,4.13,0,0,0-.71.66,36.53,36.53,0,0,0,6,2.65c3.7,1.25,7.54,2.15,11.27,3a37.81,37.81,0,0,1,15.32,7.17A33.05,33.05,0,0,1,55.21,42.68a34.43,34.43,0,0,1,0,18.89c.86,2.4,1.67,4.65,2.48,6.89C56.16,67.81,54.94,65.32,54.62,63.25ZM39,48c-.26-.63-.5-1.27-.78-1.89s-.6-1.32-.91-2C39,43.87,39.56,45,39,48ZM32.7,33.54a32.53,32.53,0,0,0-4.34-2.84l-1-.52.47-1.11Q30.41,31.2,32.7,33.54Zm47.17,4.83c-.07-.18-.14-.35-.22-.53s-.17-.37-.25-.56C79.87,37.2,80,37.51,79.87,38.37ZM70.8,36.2c0-.05,0-.1,0-.16a3.12,3.12,0,0,1,.75,0c.07,0,0,.37.08.69Zm2.56,0a1.85,1.85,0,0,1-1.14-.08,1.36,1.36,0,0,0,0-.2l1.15.07Zm2.75-1A2.41,2.41,0,0,0,76,35l1.39-.41a1.72,1.72,0,0,1,.07.21ZM78.6,40l.83.76-.1.12C78.92,40.81,78.52,40.75,78.6,40Z"/>
            <path class="cls-1" d="M76.86,31.64l-.26.2-.46.36C76.58,32.14,76.81,32,76.86,31.64Z"/>
            <path class="cls-1"
                  d="M67.18,31.08c.06.13.27.31.35.29s.37-.22.38-.36a4.71,4.71,0,0,0-1-3.17c-.17.68-.72,1.13-.34,1.82A13.51,13.51,0,0,1,67.18,31.08Z"/>
            <path class="cls-1"
                  d="M86.16,46.51a5.83,5.83,0,0,0-.25,1.2,2.74,2.74,0,0,0,.23.81l.52-.52L88,49.26A3.46,3.46,0,0,0,86.16,46.51Z"/>
            <path class="cls-1" d="M85.67,45.8l.8-.46c-1.67-.52-2-.4-2.4.7l1.87.37C85.78,46.06,85.71,45.9,85.67,45.8Z"/>
            <path class="cls-1"
                  d="M83.25,30.36a2.08,2.08,0,0,1,0-.56H83v1.92c.12.33.27.77.44,1.21a.3.3,0,0,0,.19.16.37.37,0,0,0,.26-.12,2.06,2.06,0,0,0-.26-1.92A1.66,1.66,0,0,1,83.25,30.36Z"/>
            <path class="cls-1"
                  d="M83.25,33.44c-.39.49-.73.93-1.06,1.37l.06.16,1.61-.85C83.12,34.35,83.42,33.52,83.25,33.44Z"/>
            <path class="cls-1" d="M71.22,41.3c0-.46,0-.94-.11-1a3.76,3.76,0,0,0-1.06,0c0,.07,0,.14,0,.21Z"/>
            <path class="cls-1" d="M82.18,42.06l.37.79c.11.25.2.5.31.75C83.09,42.39,82.86,41.94,82.18,42.06Z"/>
            <path class="cls-1" d="M82.09,47.11l.14-.17-1.16-1.07C81,47,81.51,47,82.09,47.11Z"/>
            <path class="cls-1" d="M73.68,40.61l0-.29-1.61-.11,0,.29A2.6,2.6,0,0,0,73.68,40.61Z"/>
            <path class="cls-1" d="M82.1,27.63,81,26.3l-.18.16c.41.43.81.87,1.21,1.3Z"/>
            <path class="cls-1"
                  d="M31.06,60.28a2.5,2.5,0,0,0,.24.81l.51-.52c.42.38.88.82,1.34,1.25a3.44,3.44,0,0,0-1.84-2.74A7.54,7.54,0,0,0,31.06,60.28Z"/>
            <path class="cls-1"
                  d="M30.82,58.37l.8-.46c-1.66-.52-2-.4-2.4.7L31.1,59C30.94,58.62,30.87,58.47,30.82,58.37Z"/>
            <path class="cls-1" d="M28,56.17c.23-1.21,0-1.66-.67-1.54l.36.79C27.81,55.67,27.91,55.92,28,56.17Z"/>
            <path class="cls-1" d="M27.24,59.68l.15-.17-1.17-1.07C26.1,59.52,26.67,59.61,27.24,59.68Z"/>
            <path class="cls-1" d="M27.26,40.2,26.1,38.86l-.17.17,1.2,1.29Z"/>
            <path class="cls-1"
                  d="M48.28,45.86a5,5,0,0,0-.15.73,1.57,1.57,0,0,0,.14.5l.32-.32.82.77A2.09,2.09,0,0,0,48.28,45.86Z"/>
            <path class="cls-1" d="M48,45.42l.5-.28c-1-.32-1.25-.24-1.48.43l1.15.23Z"/>
            <path class="cls-1"
                  d="M46.5,36a1.36,1.36,0,0,1,0-.35h-.16v1.18c.07.2.16.47.26.74a.23.23,0,0,0,.12.1.26.26,0,0,0,.16-.07,1.23,1.23,0,0,0-.16-1.18A1,1,0,0,1,46.5,36Z"/>
            <path class="cls-1" d="M46.5,37.84l-.65.85,0,.09,1-.52C46.42,38.4,46.61,37.89,46.5,37.84Z"/>
            <path class="cls-1" d="M45.85,43.13l.22.48c.07.15.13.31.19.46C46.4,43.33,46.26,43.06,45.85,43.13Z"/>
            <path class="cls-1" d="M45,33.57l.74.79.08-.08-.71-.82Z"/>
            <path class="cls-1"
                  d="M49.42,45.65a1,1,0,0,1,0-.34h-.17v1.18c.07.2.16.47.27.74a.14.14,0,0,0,.11.09.19.19,0,0,0,.16-.07,1.24,1.24,0,0,0-.15-1.17A1,1,0,0,1,49.42,45.65Z"/>
            <path class="cls-1"
                  d="M49.41,47.54l-.64.84a.3.3,0,0,0,0,.1c.32-.18.65-.35,1-.52C49.34,48.1,49.52,47.59,49.41,47.54Z"/>
            <path class="cls-1" d="M48.71,44,48,43.16a.94.94,0,0,1-.1.1l.74.8Z"/>
        </g>
    </g>
</svg>