<svg xmlns="http://www.w3.org/2000/svg" viewBox="0 0 96.43 89.25"><defs><style>.cls-1{fill:#e35028;}</style></defs><title>meat</title><g id="Слой_2" data-name="Слой 2"><g id="Layer_1" data-name="Layer 1"><polygon class="cls-1" points="38.48 4.84 38.47 4.84 38.48 4.84 38.48 4.84"/><path class="cls-1" d="M17.72,9.87c.05.11.23.27.3.25a.53.53,0,0,0,.34-.31,4.14,4.14,0,0,0-.83-2.76c-.15.59-.63,1-.29,1.59C17.45,9,17.54,9.47,17.72,9.87Z"/><path class="cls-1" d="M28.2,14.11c.17-.47.35-.94.48-1.26-.32-.07-.32-.07-.36-1.21-.39-.13-.79-.19-.69.41s-.14,1-.86,1.14l1.19.54Z"/><path class="cls-1" d="M32,11.61a.32.32,0,0,0,.23-.09A1.8,1.8,0,0,0,32,9.85a1.31,1.31,0,0,1-.3-.6,1.6,1.6,0,0,1,0-.49h-.24v1.67c.1.29.23.67.38,1.05A.21.21,0,0,0,32,11.61Z"/><path class="cls-1" d="M32.22,12.51c-.64.21-.38-.52-.54-.59l-.92,1.2.06.13Z"/><path class="cls-1" d="M21.23,18.75c0-.39,0-.81-.1-.83a3.13,3.13,0,0,0-.92,0c0,.06,0,.13,0,.19Z"/><path class="cls-1" d="M28.43,16.34l-.09-.25-1.71.49.11.32Z"/><path class="cls-1" d="M31.35,20.76c.2-1.06,0-1.45-.59-1.34.11.23.22.45.32.68Z"/><path class="cls-1" d="M23.36,18.16l0-.26L22,17.81c0,.08,0,.17,0,.25A2.28,2.28,0,0,0,23.36,18.16Z"/><path class="cls-1" d="M19.44,15s-.21-.23-.3-.33c-.2.48-.35.85-.52,1.24C19.33,16,19.22,15.31,19.44,15Z"/><path class="cls-1" d="M75.78,44c-1,.41-1.22,2.37-.43,4.38s2.27,3.32,3.3,2.91S79.87,49,79.07,47,76.8,43.64,75.78,44Z"/><path class="cls-1" d="M85.94,53l3-1.17a42.11,42.11,0,0,0-2.58-8c-.13.32-.27.63-.4.95a8.25,8.25,0,0,1-1.61-2.09A22.4,22.4,0,0,1,83.67,39l.12,0c-.5-.83-1-1.64-1.6-2.44l-.75.93,1.5,1.44-2.6.47A37,37,0,0,1,85.94,53Z"/><path class="cls-1" d="M73.63,28.61c-4.24-2.1-8-.29-9.35,4.17-3,9.86,5.69,30.51,14.91,35.41,4.24,2.24,7.94.94,10.11-4.42a28.68,28.68,0,0,0,.5-5.84,46.26,46.26,0,0,0-.71-5.17,4.77,4.77,0,0,1-3,1.37,38.47,38.47,0,0,1,.47,5.43,4.36,4.36,0,0,0,.17.51h-.15c0,1.92-.93,4.75-2.3,5.45s-4.39-.32-5.68-1.6c-7.78-7.72-12-17.13-11.59-28.23a5.75,5.75,0,0,1,1.28-3.89L67.1,30.6a1.69,1.69,0,0,1,2.58.41,5.68,5.68,0,0,1,3.61.59,19.33,19.33,0,0,1,2.31,1.87c.89.94,1.73,1.9,2.53,2.88a7,7,0,0,1,3.23-1c-.69-.91-1.42-1.8-2.2-2.67A18.35,18.35,0,0,0,73.63,28.61Z"/><path class="cls-1" d="M52.9,42.56l.09.38,1.83-.24L54.4,42Z"/><path class="cls-1" d="M40.59,54.9c-.06-.17-.34-.26-.46-.35-.85.59-1.22,1.32-1,2,0,.19.34.47.47.45A2.08,2.08,0,0,0,40.59,54.9Z"/><path class="cls-1" d="M19.62,61.15a.9.9,0,0,0,.65-.1c.08,0,.09-.3.06-.45-.08-.48-.19-1-.32-1.56-.29.31-.49.51-.67.72A.92.92,0,0,0,19.62,61.15Z"/><path class="cls-1" d="M10.65,62.53l.86.62c-.14-1.3-.55-1.8-1.5-2a.48.48,0,0,0-.42.2.5.5,0,0,0,.13.45A9.49,9.49,0,0,0,10.65,62.53Z"/><path class="cls-1" d="M28.49,69.68c0-.26.08-.63,0-.76s-.55-.19-.84-.27l-.18.31c.32.32.63.64.95,1Z"/><path class="cls-1" d="M24.37,56.12c0,.11.2.39.28.37a.84.84,0,0,0,.53-.3,2.8,2.8,0,0,0,.26-.7,2.63,2.63,0,0,0-.71.13A.84.84,0,0,0,24.37,56.12Z"/><path class="cls-1" d="M45,49.93l.41.53,9.86-11.57-1.78-1.66-.28.09c-5.44,1.84-7.8,6.47-9.38,10.71l-.1.26.72.93h0C44.68,49.67,44.84,49.89,45,49.93Z"/><path class="cls-1" d="M58.32,71.69l-1.59.21-.49-.25c.11.61.23,1.21.31,1.64.38-.14.38-.14,1.16,1,.49-.11.94-.31.45-.87A1.06,1.06,0,0,1,58.32,71.69Z"/><path class="cls-1" d="M56.22,57.87a2.57,2.57,0,0,0,1.07-.38c.14-.07.25-.39.27-.56,0-.55,0-1.08.08-1.77-.58.49-1,.8-1.34,1.13C55.57,56.92,55.49,57.8,56.22,57.87Z"/><path class="cls-1" d="M41,61.52a1.61,1.61,0,0,0-.75.4.38.38,0,0,0,0,.5,10.2,10.2,0,0,0,1.21.5l1.13.42C42.88,61.83,42.41,61.38,41,61.52Z"/><path class="cls-1" d="M41.6,67.25c.49-1,.49-1-.84-1.17C40.47,67.34,40.47,67.34,41.6,67.25Z"/><path class="cls-1" d="M54.81,69.68l1.47-1.62L56,67.8c-.46.56-.93,1.11-1.4,1.67Z"/><path class="cls-1" d="M65.11,63.62c-.81.36-.26,1-.27,1.48,0,.05.36.11.53.15C65.26,64.62,65.19,64.13,65.11,63.62Z"/><path class="cls-1" d="M84,76.7l-1.23-.41C83.08,77.13,83.34,77.2,84,76.7Z"/><path class="cls-1" d="M58.3,80.83l1.8.56a2.17,2.17,0,0,0,.07-.24l-1.82-.5C58.33,80.71,58.32,80.77,58.3,80.83Z"/><path class="cls-1" d="M51.35,80.61c0-.26,0-.5,0-1l-1.07.8Z"/><path class="cls-1" d="M78.56,24.42a1.29,1.29,0,0,1-.3.66c-.1.11-.58,0-.77-.14-.71-.53-1.32-1.22-2.07-1.67a1.73,1.73,0,0,1-.65-.71c-2.86-1-6.94-1.46-10-.27l-.41.16C51,27.71,41.87,36.06,36.45,48a61.2,61.2,0,0,1-3.18,6.19l.72,0a1.62,1.62,0,0,1-.89.26c-2.7,4.47-6.2,8.32-11.38,10.36A22.1,22.1,0,0,1,18,65.89a13.3,13.3,0,0,1-6.34-.13c-.08-.17-.32-.29-.83-.56a2.85,2.85,0,0,0,0,.31c-3.88-1.29-6.79-.6-9,2.12C-.68,70.87-.63,74.41,2,77.86a8.85,8.85,0,0,1,1.78,4c.56,4.31,3,6.84,7.13,7.33s6.84-1.56,8.26-5.93c.37-1.15,1-2.75,1.89-3.3,8.8-5.33,17.51-6.34,26-3-.07.37.09.82-.1,1.19.53-.25.8-.55.85-.9.64.26,1.28.51,1.92.74a12.19,12.19,0,0,0,0-1.91c-.12-1,.5-1.42,1.1-2l-.06,0a65.73,65.73,0,0,0-7.63-2.13l-.53-.1c-7.39-1.43-7.39-1.43-9.71-8-.34-1,.23-2.56.83-3.66,1.78-3.3,3.72-6.6,5.58-9.79q1.05-1.77,2.07-3.54a49.9,49.9,0,0,1,3.55-5.3l-1-.5c.2-.16.61-.58.67-.53a3.7,3.7,0,0,0,.88.37,42.25,42.25,0,0,1,4.94-5.24c.1-.82.2-1.65.29-2.47l.5.08a12.36,12.36,0,0,1,0,1.72,46.25,46.25,0,0,1,6.37-4.56A51.53,51.53,0,0,0,58,46.92a2.38,2.38,0,0,1,1-.79c.37-.11.89.25,1.38.42-.78,1.52-.52,2.71.67,3.54.21.15.58.08.88.09h1A35.51,35.51,0,0,1,61.35,35a15.5,15.5,0,0,1,1.28-4.77c0-.09-.05-.19-.08-.28l.4-.31a9.55,9.55,0,0,1,.88-1.38c0-.39-.35-.75-.93-1.06a11.81,11.81,0,0,0-1.59-.7c-1-.33-1-.85-.35-1.65,1,1.42,2,2.27,3.69,1.76a.77.77,0,0,1,.7.13,7.26,7.26,0,0,1,1.7-1c3-1.18,6.72-.2,10.18,2.7C88.19,37.57,93,49.31,91.5,63.29c-.44,4.08-2.15,6.81-5,7.92-2.49,1-5.82.62-9.62-1-.39-.39-.91-.85-1.49-1.37A41.47,41.47,0,0,1,69.77,63a44.41,44.41,0,0,1-6.58-12,1.18,1.18,0,0,0-.23.27c-.07.11-.12.22-.18.33a1.29,1.29,0,0,0-.45.11.53.53,0,0,0-.13.13c.1-.24.23-.52.41-.92-1.57,1.32-2.06-.32-3-.62-1.72-.53.33-2-.79-3l-.67.49a41.72,41.72,0,0,0,2.26,7.35,1.11,1.11,0,0,1,.45.21c.11.1.09.48,0,.76a46,46,0,0,0,9.31,13.4l-.23-.18c-.12-.09-.42-.13-.48-.07a.68.68,0,0,0-.15.54A5,5,0,0,0,72,72.14a8.63,8.63,0,0,1-.17-1c1.39,1.31,2.86,2.58,4.45,3.82a40.68,40.68,0,0,1-22.1.12c0-.23,0-.46.07-.69l-.15-.1-.39.66c-.45-.13-.9-.24-1.36-.38l-.79-.26a7.44,7.44,0,0,1-.4,4.15,44.56,44.56,0,0,0,22.22,1.5v0l.36-.14,0,.09a55.19,55.19,0,0,0,7.74-2.06l-.22,0c.64-.71,1.13-1.28,1.65-1.82.16-.17.5-.4.62-.34.29.16.66.43.72.71a1,1,0,0,1,0,.46h0c.69-.27,1.38-.56,2.06-.85a23.53,23.53,0,0,0,6.12-4.5c.84-.78,1.71-1.58,2.6-2.28l.11-.1.05-.14C99.8,54.47,91,32.18,78.56,24.42ZM31.45,59.21c.66.43.66.43.34,1.47C31.06,59.87,31.06,59.87,31.45,59.21ZM30.4,62.39l.6.9c.21.34.45.66.63,1a.53.53,0,0,1-.05.48.52.52,0,0,1-.47,0C30.27,64.3,30.06,63.68,30.4,62.39Zm-1,3.37ZM17.33,67c.51.39,1,.79,1.51,1.19l-.11.16-1.55-1.14ZM4,75.17c-.09,0-.35-.11-.43-.24-.32-.46-.54-1-.89-1.4-.55-.66-.06-1.26,0-2a5.09,5.09,0,0,1,1.66,3.2C4.37,74.86,4.17,75.08,4,75.17ZM6.1,82.11c.11-.52.22-1,.35-1.65.14.11.46.3.44.34C6.7,81.27,7,82.06,6.1,82.11Zm2.49,2.35-.06-.23A4.21,4.21,0,0,1,9.67,84c.1,0,.17.53.31,1Zm7.73-3c-.06-.12-.13-.23-.2-.36l2-1,.16.29ZM22,74.78,20.49,76a1.3,1.3,0,0,0-.1-.15l.22-.42c-.53.26-1.06.54-1.57.85a7.38,7.38,0,0,0-1.55,1.29l0,.11,0,0a8.19,8.19,0,0,0-2,3.48c-.76,3.2-2.13,4.49-4.27,3.83-.92-.29-1.67-1.87-2.33-3.27-.26-.54-.51-1.07-.77-1.54A20.74,20.74,0,0,1,6.33,76c-.15-.49-.34-1-.54-1.56-.54-1.46-1.14-3.12-.7-4A2.85,2.85,0,0,1,6.54,69c1.33-.53,3,.3,4.21,1.08a6.25,6.25,0,0,0,2.13.84c-.58.3-1.34.35-1.78,1,.38-.15.77-.26,1.14-.44s.52-.37.78.07.54.29.81,0a1,1,0,0,0,.31-.91l.23-.43.23.09a.81.81,0,0,0-.14.12l.46.06c-.06.24-.13.47-.19.71a7.11,7.11,0,0,0,1.94-.25,47.89,47.89,0,0,0,5.6-2.21c1.49-.66,3-1.35,4.59-1.88a4.23,4.23,0,0,1,2.84.35c-.1-.24-.19-.49-.29-.74l.33.13.19-.19c.16.18.35.35.53.52a3.44,3.44,0,0,0,.47-.68,4.85,4.85,0,0,0,.18-1c.29.43.52.75.72,1-.78,1,.58.71.63,1.27l-.39.24c.17.36.6.77-.06,1L31.32,68l-.31.14a3.36,3.36,0,0,0,.36,1.3c.22.27.76.26,1.21.4,0,.65-.55.32-.94.5L30.39,70c0,.36.08.67.08,1l-.26.15-.63.37h0c-.27-.3-.51-.63-.76-1l-.17.13a10.63,10.63,0,0,0,.43,1.13c-.29.16-.57.31-.86.44l-.41.17c.49-.09,1-.18,1.47-.29a.89.89,0,0,0,.13.14,16.67,16.67,0,0,1-1.73.21c-.85.36-1.7.71-2.54,1-1.08.42-2.17.86-3.24,1.34A.42.42,0,0,0,22,74.78Zm9.21-2.54.1,0,0,0Zm-3.81,4.1c-.19-.85.19-1.33,1.21-1.41C28.15,75.38,28.42,76.35,27.44,76.34Zm5.65-5.21a6.2,6.2,0,0,0,1.77-.47c0,.12.09.23.13.35l-2.33.63a.46.46,0,0,1,0-.35.84.84,0,0,0,.06-.24A1.42,1.42,0,0,0,33.09,71.13ZM85,34.57c-.1-.85-.19-1.65-.32-2.69.27.09.85.21.84.29C85.48,33,86.34,34,85,34.57ZM62,52.29a.25.25,0,0,0,0,.07l-.06,0ZM90.34,70.8A1,1,0,0,0,89,70.6c-.08.06-.11.21-.15.32l-.36,1c0,.16-.09.33-.15.54L87,72l0-.14a4.52,4.52,0,0,1,.53.11c.24.07.42.09.49-.21,0-.06.11-.1.17-.14s.19-.1.18-.14a.46.46,0,0,0-.11-.27c-.12-.15-.25-.27-.38-.41l.11-.09.44.41c-.29-.75.38-.73.61-1,.41-.57.7.38,1.21.09l-.2-.63.1-.09a1.87,1.87,0,0,1,.29.34,1.22,1.22,0,0,1,.22.58C90.67,70.5,90.46,70.64,90.34,70.8Zm3-18.81c.47.12.53.28.24.76C93.52,52.51,93.45,52.27,93.36,52Zm.37,14.15.72-.72c0,.09.13.29.11.31C94.31,65.91,94.2,66.41,93.73,66.14Zm1,2.76-.51-.75a.74.74,0,0,1,0-.14,2.9,2.9,0,0,1,.65.28S94.83,68.61,94.74,68.9Zm.2-7s-.13-.17-.14-.26c0-.34,0-.68,0-1-.06-.52.39-.66.66-1a3.11,3.11,0,0,1-.2,2.18A.41.41,0,0,1,94.94,61.92Z"/><path class="cls-1" d="M23.79,35.74l0,.26a3.12,3.12,0,0,1-1.18,0l.37.62a4.77,4.77,0,0,0,.5,1.15h0l.79,1.1.35.42a7.93,7.93,0,0,0,4.71,2.45,11.34,11.34,0,0,1,2.93.94l.3.11a1.76,1.76,0,0,1,.85.37l1,.43.17-.51a4.75,4.75,0,0,1,.41-.81,4.24,4.24,0,0,0,.59-1.37l.05-.32-.25-.18a11.12,11.12,0,0,0-3.49-1.49l-1-.31-.18,0a7.87,7.87,0,0,0,.72-.81c-.08-.15-.15-.31-.22-.46a.56.56,0,0,1,.46.07c.07-.13.17-.24.23-.38a7.33,7.33,0,0,0,.54-1.74,6,6,0,0,0,4.15,1.91A5.28,5.28,0,0,0,37.82,37l.15,0,.11-.12a42,42,0,0,0,3.19-4.12l.09-.13V32.4a8.18,8.18,0,0,0-1-3.39,7.38,7.38,0,0,0,4.1-.54,6.55,6.55,0,0,0,3.93-4.38c.1-.37.18-.72.24-1.07l.24-.27-.21.07a7,7,0,0,0-1.19-5.31,5.63,5.63,0,0,0-.91-1L43.93,15.3l-.78,1.61a3.53,3.53,0,0,1-.79-1.22l-.13-.39-.41,0a2.81,2.81,0,0,1-2-.4,7.56,7.56,0,0,0,1.92-.14l.44-.08,0-.45-.06-.82L42,13a8,8,0,0,1,1.95.65l.27.13.24-.17a7.27,7.27,0,0,0,2.2-2.82l.15.31c.09.17.18.35.28.51A6.45,6.45,0,0,0,52.52,15a6.71,6.71,0,0,0,4.16-1.61,4.73,4.73,0,0,0,1.22-1.7,9.4,9.4,0,0,1,.64,2.84,11,11,0,0,0,1.8,5.55l.2.32.63-.18a10,10,0,0,0,2.27-.81l.53-.29-.38-.46A6.17,6.17,0,0,1,62,15l.05,0L62,14.48a6.51,6.51,0,0,0-.37-2.31l0-.09a.83.83,0,0,1-.13-.46v-.1l0-.1c-.07-.21-.13-.43-.18-.64a5.39,5.39,0,0,0-.46-1.33l-.11-.22a16.45,16.45,0,0,0-2.3-3.57l-.18-.13c-.08,0-.15-.11-.31-.36A6.79,6.79,0,0,0,54.68,3L54,2.83l-.51-.07a8,8,0,0,0-1.93-.11l-.41,0-.38.07-.88.56.62.43a2.43,2.43,0,0,0,.35.2c.16.08.26.13.3.2l.08.09a7.17,7.17,0,0,0,.92.67,7.4,7.4,0,0,1,.76.55,6.12,6.12,0,0,1,2,3.26A2,2,0,0,1,54,11.15,2.32,2.32,0,0,1,51,11a7.94,7.94,0,0,1-2.31-4.25,4.62,4.62,0,0,1-.14-1.67l0-.14-.2-.47a5.34,5.34,0,0,0-2.11-2.89c-.21-.13-.42-.27-.62-.42a4.55,4.55,0,0,0-1.83-.9A9.71,9.71,0,0,0,42,.07c-.34,0-.67,0-1,0A1.76,1.76,0,0,0,39.65.5a.72.72,0,0,0-.31.62.82.82,0,0,0,.44.63l0,0v.52l.62-.19.11.06A10.45,10.45,0,0,1,43.16,5a5.69,5.69,0,0,1,.72,3,3.38,3.38,0,0,1-2,3.3,4.12,4.12,0,0,1-1.4.35l-1.06.07.34.36-3.83.5c0-1.2.28-1.81.79-2.19l.37-.28-.25-.39a5.8,5.8,0,0,1-.76-1.92c-.07-.32-.11-.64-.16-1l0-.36L35.71,6,35,5.9l-.69,1.34a9.27,9.27,0,0,0,0,5.2l.09.18s0,.07,0,.05l0,.17.09.18c.11.22.22.44.32.66.93,2.09,2.43,4.56,5.84,5.12l2-.06.14,0a2,2,0,0,1,.46-.1l.13.18.08-.17a1.44,1.44,0,0,1,.94.5,1.11,1.11,0,0,0,.11.11c.9,1,1.1,2.13.63,3.82a1.54,1.54,0,0,1-.33.77,5.2,5.2,0,0,1-.38.51l-1.24,1.4,2-.69a3,3,0,0,1-3,.58l-.22-.1-.22.11a.85.85,0,0,1-.85-.07l-.1,0a3.49,3.49,0,0,1-1.42-1,5.75,5.75,0,0,1-1.2-2.39,11.59,11.59,0,0,0-.59-1.58l-.11-.23-.82-.14-.15.37a16.7,16.7,0,0,0-.93,3.86l-.07.51v.23l.33,2.44.05.17.62,1.21c.46.87.93,1.77,1.33,2.67a1.42,1.42,0,0,1-.18,1.63c-.35.39-.82.37-1.59.26a1.76,1.76,0,0,1-1.13-.75,3.62,3.62,0,0,1-.63-2.59v-.25l-.26,0,.25,0-.06-.44A8,8,0,0,0,31,25.08c-.09-.07-.36-.3-.46-.4l-.18-.1c-.13,0-.86-.4-1-.49L29,23.94a5.65,5.65,0,0,0-1.43-.15l-1-.05s-3,.32-3.17,1.16l-.08.33.29.19A10.64,10.64,0,0,1,25.48,27l.67.62a5.25,5.25,0,0,0,.59.89l.22.4A9.14,9.14,0,0,1,27.55,30l.05.1.31.55a1,1,0,0,0,.12-.8c-.1-.6.3-.55.69-.42,0,1.14,0,1.14.36,1.21L28.59,32c-.07-.13-.15-.25-.23-.38h0A7.28,7.28,0,0,1,29,34a2,2,0,0,1-1.62,2.43l-.79,0-.07,0a1.84,1.84,0,0,1-1.05-.26A4.84,4.84,0,0,0,25,36l-3.08-2.24.54,1.92Zm8.05-9.14h.24a1.93,1.93,0,0,0,0,.48,1.32,1.32,0,0,0,.31.6,1.79,1.79,0,0,1,.21,1.68.29.29,0,0,1-.22.09.21.21,0,0,1-.16-.13c-.15-.38-.28-.76-.38-1.05Zm.24,3.16c.16.07-.1.79.54.59l-1.4.74L31.16,31Z"/></g></g></svg>