<svg xmlns="http://www.w3.org/2000/svg" viewBox="0 0 40.19 43.42">
    <defs>
        <style>.cls-1{fill:#e35028;}</style>
    </defs>
    <title>sause</title>
    <g id="Слой_2" data-name="Слой 2">
        <g id="Layer_1" data-name="Layer 1">
            <path class="cls-1"
                  d="M15.41,6.22c0,.09.18.22.24.2s.26-.15.27-.25a3.28,3.28,0,0,0-.67-2.23c-.12.48-.5.8-.24,1.28C15.19,5.53,15.26,5.89,15.41,6.22Z"/>
            <path class="cls-1"
                  d="M23.88,9.65c.14-.38.29-.76.39-1-.26,0-.26,0-.29-1-.32-.11-.64-.15-.56.33s-.12.84-.7.93l1,.43C23.75,9.44,23.81,9.55,23.88,9.65Z"/>
            <path class="cls-1" d="M27.28,16.74,28.6,17l-.2-.43.57-.32C27.79,15.88,27.53,16,27.28,16.74Z"/>
            <path class="cls-1"
                  d="M26.94,7.63a.25.25,0,0,0,.18-.08,1.41,1.41,0,0,0-.18-1.35,1.13,1.13,0,0,1-.24-.49,1.27,1.27,0,0,1,0-.39H26.5V6.67c.08.23.19.54.31.85A.18.18,0,0,0,26.94,7.63Z"/>
            <path class="cls-1" d="M27.13,8.36c-.52.16-.31-.43-.43-.48l-.74,1s0,.08,0,.11Z"/>
            <path class="cls-1" d="M24.06,11.45l-.06-.2-1.39.4.09.25Z"/>
            <path class="cls-1"
                  d="M20,12.92a1.49,1.49,0,0,0,0-.21l-1.13-.07c0,.07,0,.13,0,.2A1.82,1.82,0,0,0,20,12.92Z"/>
            <path class="cls-1" d="M9.64,23v.16l.81.53c0-.32,0-.66-.07-.67A2.68,2.68,0,0,0,9.64,23Z"/>
            <path class="cls-1"
                  d="M11.06,23.17a1.82,1.82,0,0,0,1.13.08,1.49,1.49,0,0,0,0-.21L11.08,23C11.07,23,11.07,23.1,11.06,23.17Z"/>
            <path class="cls-1"
                  d="M.86,29.64a4,4,0,0,0-.86.68,3.45,3.45,0,0,0,1,.37,1.19,1.19,0,0,0,.83-.34c.11-.11.05-.63-.06-.67A1.24,1.24,0,0,0,.86,29.64Z"/>
            <path class="cls-1" d="M3.27,34.77l1.88,2,.21-.2L3.54,34.51Z"/>
            <path class="cls-1" d="M13,43.42l2-.18-1.13-1Z"/>
            <path class="cls-1"
                  d="M15.24,22.12l1-.34-.06-.2-1,.29-.69-4a1.5,1.5,0,0,0-.6-.95,1.37,1.37,0,0,1,.74.12c.06-.21.2-.43.14-.58s-.28-.35-.45-.49a2.82,2.82,0,0,0-.42-.23l-.06.13.45.55c-.35.43-.91-.16-1.16.22a1.63,1.63,0,0,0-.38,0,1.5,1.5,0,0,0-1.22,1.74l2.53,14.53a1.5,1.5,0,0,0,3-.51Z"/>
            <path class="cls-1"
                  d="M31.7,34.83c-.15.11.25,1.36.42,1.37a8.22,8.22,0,0,0,2.15-.48c-.23-.87-.36-1.4-.5-1.92A10.52,10.52,0,0,0,31.7,34.83Z"/>
            <path class="cls-1"
                  d="M39.36,6.22c.1-.47.21-.93.32-1.4.18-.77.37-1.56.49-2.36C40.24,2,40.12.94,39.64.65l-.08,0A2.25,2.25,0,0,0,37.62,1c-.84.64-1.65,1.34-2.43,2L34,4.07a2,2,0,0,1-.38.26c-1.37-.56-1.95.45-2.39,1.22L31,5.88a9.49,9.49,0,0,1-.78,1.25,1,1,0,0,1-.62.36,3.72,3.72,0,0,0-3.2,1.88l-3.56,5.91-1.41,2.35a.26.26,0,0,0-.17.1.82.82,0,0,0-.06.28l-1.71,2.85.73,4.37,1.84-3.06L23,20.66l.33.5.15-.1-.38-.57.37-.6,1.4-2.34.35-.57c.06.42.38.47.7.51l.11-.12c-.21-.18-.42-.38-.68-.62L26.4,15l0,.06a.66.66,0,0,0,0-.14l2.26-3.75c.52-.86.71-.91,1.56-.4l.41.24c.32-.66.64-1.32.95-2,.14.93.27,1.86.41,2.79l.64.39L35,13.58c.82.51.87.71.35,1.58l-2.88,4.78c0,.44,0,.9,0,1.42a4.84,4.84,0,0,1-.61-.37q-3.5,5.81-7,11.6c-.55.91-.74,1-1.64.42l-1.87-1.12c-.27-1.54-.53-3.08-.8-4.61l.25,0-.19-.43.56-.32a4.11,4.11,0,0,0-.78-.19v0l-.53-3-.48-2.79c-.09-.56-.19-1.14-.29-1.71l.25-.13c-.14,0-.22,0-.27,0-.08-.43-.15-.86-.23-1.3.06.15.11.31.18.47a.16.16,0,0,0,.13.11.25.25,0,0,0,.18-.08,1.41,1.41,0,0,0-.18-1.35,1.13,1.13,0,0,1-.24-.49,1.27,1.27,0,0,1,0-.39h-.19v1c-.2-1.11-.41-2.22-.63-3.32l.15.1c0-.32,0-.66-.07-.67a.75.75,0,0,0-.21,0,3.81,3.81,0,0,0-1.29-2,2.09,2.09,0,0,1,.12-.33s-.16-.18-.23-.26q-.11.22-.18.42c-1-.45-1.14-1.19-1.3-2.25l0-.28a4.47,4.47,0,0,0-.23-1.06c-.13-.33-.49-1.1-1-1.09-.65,0-.85-.36-1.16-1-.07-.14-.13-.29-.21-.43-.24-.41-.46-.84-.68-1.26C11.42,2.44,11,1.71,10.6,1,10.34.62,9.57-.09,9,0L8.93,0A2.25,2.25,0,0,0,7.71,1.58c-.22,1-.37,2.1-.52,3.13C7.11,5.25,7,5.79,7,6.32a1.52,1.52,0,0,1-.12.45c-1.39.47-1.17,1.61-1,2.48l.08.37a9.87,9.87,0,0,1,.22,1.47,1,1,0,0,1-.23.67,3.73,3.73,0,0,0-1.19,3.52h0l2.74,3.62L6.66,20a15.33,15.33,0,0,0-1.2-1.09l-.14-.13.57,3.3.75,4.3-.08-.07a2.82,2.82,0,0,0-.42-.23l-.06.13.45.55c-.4.49-1.06-.33-1.24.4-.1.4-.77.64-.18,1.27l-.61-.24a1,1,0,0,1-.07.15c.18.08.37.15.54.24a.63.63,0,0,1,.23.23s-.08.13-.13.2-.13.15-.12.21c0,.33-.13.38-.39.41a3.82,3.82,0,0,0-.57.11.78.78,0,0,0,0,.14H5.52c0-.24,0-.42-.07-.6,0-.39,0-.78,0-1.17a.76.76,0,0,1,0-.37,1,1,0,0,1,1.4-.38Q7.56,31.67,8.32,36A3.56,3.56,0,0,0,12.7,39l2.57-.44,3-.52.12,0a4.24,4.24,0,0,0,2.35-1.14l-.15-.75L21,36c.07.13.14.26.2.39A3.84,3.84,0,0,0,21.68,34l.26,1.56a4.77,4.77,0,0,0,1.37.53c0-.13.07-.25.13-.4.07.16.14.32.21.46a3.62,3.62,0,0,0,3.65-2l3.51-5.84c-.24-.19-.5-.37-.74-.57S30,27,29.94,26.66c.65,0,1.3-.12,1.93-.11l.71-1.17c.48-.81,1-1.62,1.47-2.43,1.3-2.13,2.64-4.34,3.89-6.56a3.67,3.67,0,0,0,.42-2.93c-.53-1.06-.12-1.69.47-2.61l.16-.24a4.73,4.73,0,0,0,.52-.94c.11-.34.35-1.15,0-1.48s-.41-.83-.22-1.5C39.29,6.53,39.33,6.38,39.36,6.22ZM22.25,21.33c-.17-.17-.51-.36-.49-.5a5.93,5.93,0,0,1,.55-1.19l.14.2,0,0,.39.58A4.65,4.65,0,0,1,22.25,21.33ZM12.18,8.85l.22,1.27-3.32.58L8.86,9.43ZM9.4,2.73,11.52,6l-3,.52Zm8.41,32.48-5.36.94c-1,.17-1.17.07-1.35-1-.31-1.75-.61-3.5-.92-5.25l-.71.19.5-1.39-.15-.89-.46-2.63-.47-2.69c-.06-.38-.13-.76-.19-1.13.2-.15.19-.48.31-.68,0,0-.16-.18-.24-.26-.06.14-.11.27-.17.4-.23-1.36-.47-2.72-.7-4.08.1,0,.23-.14.24-.23a3.14,3.14,0,0,0-.59-2.08c0-.41.29-.53,1-.65l2.76-.49L14,12.82c1-.16,1.13,0,1.3.95L16,17.93c-.23-.05-.42,0-.36.38.1.57-.12.84-.7.93l1,.43c.06.1.12.21.19.31l.18-.48q.66,3.83,1.33,7.65l-.22-.2c-.06.5.09.69.32.78.35,2,.71,4.06,1.06,6.1C19,34.87,18.84,35,17.81,35.21Zm17.76-24.7L32.69,8.77l.66-1.11L36.24,9.4Zm2.06-3.72L35,5.21,38.15,3Z"/>
            <path class="cls-1"
                  d="M22.43,30.89a1.49,1.49,0,0,0,2.05-.51l7.61-12.63a1.5,1.5,0,1,0-2.57-1.55l-7.6,12.63A1.49,1.49,0,0,0,22.43,30.89Z"/>
        </g>
    </g>
</svg>