<?xml version="1.0" encoding="utf-8"?>
<svg xmlns="http://www.w3.org/2000/svg" xmlns:xlink="http://www.w3.org/1999/xlink">
    <symbol id="vk" viewBox="0 0 126 72">
        <g>
            <g>
                <defs>
                    <rect id="SVGID_1_" width="126" height="72"/>
                </defs>
                <clipPath id="SVGID_2_">
                    <use xlink:href="#SVGID_1_" overflow="visible"/>
                </clipPath>
                <path clip-path="url(#SVGID_2_)" d="M124.523,64.503c-0.152-0.328-0.293-0.597-0.426-0.816
			c-2.172-3.91-6.324-8.711-12.449-14.401l-0.129-0.134l-0.066-0.063l-0.066-0.066h-0.063c-2.781-2.651-4.543-4.434-5.281-5.344
			c-1.348-1.738-1.652-3.5-0.914-5.281c0.523-1.348,2.477-4.19,5.867-8.538c1.781-2.302,3.195-4.149,4.234-5.539
			c7.52-9.996,10.777-16.383,9.777-19.164l-0.387-0.649c-0.262-0.39-0.934-0.75-2.02-1.074c-1.086-0.327-2.477-0.383-4.172-0.163
			L99.656,3.398c-0.301-0.105-0.738-0.099-1.301,0.034c-0.566,0.13-0.852,0.195-0.852,0.195L97.18,3.793l-0.258,0.195
			c-0.219,0.129-0.457,0.354-0.719,0.683c-0.258,0.325-0.477,0.707-0.648,1.142c-2.047,5.258-4.367,10.145-6.977,14.663
			c-1.609,2.695-3.086,5.031-4.434,7.009c-1.348,1.976-2.477,3.434-3.387,4.366c-0.914,0.935-1.738,1.685-2.477,2.246
			c-0.742,0.567-1.305,0.806-1.695,0.72c-0.391-0.091-0.762-0.177-1.109-0.263c-0.609-0.39-1.098-0.922-1.465-1.597
			c-0.371-0.672-0.621-1.52-0.75-2.543c-0.129-1.021-0.207-1.899-0.23-2.637c-0.02-0.738-0.008-1.785,0.035-3.129
			c0.043-1.349,0.066-2.263,0.066-2.738c0-1.653,0.031-3.446,0.094-5.379c0.066-1.935,0.121-3.465,0.164-4.594
			c0.043-1.13,0.066-2.324,0.066-3.587c0-1.258-0.078-2.245-0.23-2.965c-0.148-0.715-0.379-1.41-0.684-2.086
			c-0.305-0.672-0.75-1.194-1.336-1.562c-0.586-0.371-1.313-0.664-2.18-0.883c-2.305-0.521-5.238-0.802-8.8-0.849
			c-8.082-0.086-13.274,0.438-15.579,1.567c-0.914,0.476-1.738,1.129-2.476,1.953c-0.781,0.957-0.891,1.479-0.328,1.565
			c2.609,0.392,4.453,1.325,5.543,2.802l0.39,0.784c0.305,0.563,0.61,1.563,0.911,2.996c0.304,1.435,0.5,3.021,0.585,4.758
			c0.219,3.173,0.219,5.888,0,8.149c-0.214,2.257-0.421,4.019-0.617,5.277c-0.195,1.262-0.488,2.28-0.879,3.065
			c-0.39,0.782-0.652,1.258-0.785,1.435c-0.129,0.172-0.238,0.28-0.324,0.323c-0.566,0.22-1.152,0.328-1.762,0.328
			c-0.605,0-1.344-0.304-2.215-0.914c-0.867-0.608-1.769-1.444-2.703-2.512c-0.933-1.062-1.988-2.55-3.164-4.464
			c-1.172-1.911-2.386-4.168-3.648-6.778l-1.043-1.89c-0.653-1.215-1.543-2.985-2.672-5.313c-1.129-2.323-2.129-4.569-2.996-6.745
			c-0.348-0.91-0.871-1.605-1.567-2.087l-0.324-0.194c-0.219-0.172-0.566-0.356-1.043-0.556c-0.48-0.194-0.976-0.336-1.5-0.422
			L4.172,3.265c-1.824,0-3.063,0.414-3.715,1.238L0.195,4.895C0.066,5.113,0,5.46,0,5.938c0,0.48,0.129,1.065,0.391,1.762
			C3,13.824,5.832,19.734,8.898,25.425c3.063,5.696,5.723,10.278,7.981,13.754c2.262,3.478,4.562,6.758,6.91,9.84
			c2.348,3.086,3.902,5.063,4.66,5.935c0.762,0.871,1.36,1.519,1.793,1.953l1.629,1.565c1.043,1.043,2.574,2.293,4.598,3.746
			c2.02,1.457,4.258,2.891,6.711,4.305c2.457,1.41,5.312,2.563,8.574,3.453c3.258,0.892,6.43,1.25,9.516,1.074h7.496
			c1.52-0.129,2.672-0.609,3.453-1.433l0.258-0.324c0.176-0.262,0.34-0.665,0.488-1.208c0.152-0.542,0.23-1.14,0.23-1.792
			c-0.043-1.868,0.098-3.551,0.422-5.051c0.324-1.496,0.695-2.625,1.109-3.388c0.414-0.762,0.879-1.401,1.402-1.922
			c0.52-0.522,0.891-0.836,1.109-0.944c0.215-0.11,0.387-0.185,0.52-0.231c1.043-0.347,2.27-0.007,3.684,1.012
			c1.41,1.024,2.734,2.281,3.977,3.781c1.238,1.5,2.727,3.184,4.461,5.051c1.742,1.867,3.262,3.258,4.563,4.172l1.305,0.781
			c0.871,0.524,2,1,3.391,1.435c1.391,0.437,2.605,0.547,3.648,0.327l16.688-0.262c1.648,0,2.934-0.272,3.844-0.815
			c0.914-0.544,1.453-1.142,1.629-1.789c0.176-0.653,0.184-1.392,0.035-2.22C124.824,65.406,124.672,64.828,124.523,64.503
			L124.523,64.503z M124.523,64.503"/>
            </g>
        </g>
    </symbol>
    <symbol id="fb" viewBox="0 0 36.711 36.711">
        <path d="M36.711,34.686c0,1.119-0.907,2.025-2.026,2.025H25.33V22.495h4.771l0.715-5.541H25.33v-3.537
	c0-1.604,0.445-2.696,2.746-2.696l2.934-0.001V5.764c-0.508-0.067-2.249-0.219-4.275-0.219c-4.23,0-7.127,2.582-7.127,7.323v4.086
	h-4.784v5.541h4.784v14.216H2.026C0.907,36.711,0,35.805,0,34.686V2.026C0,0.907,0.907,0,2.026,0h32.659
	c1.119,0,2.026,0.907,2.026,2.026V34.686z"/>
    </symbol>
    <symbol id="inst" viewBox="0 0 36.663 36.664">
        <path d="M32.305,0H4.357C1.95,0,0,1.946,0,4.349v27.967c0,2.4,1.95,4.348,4.357,4.348h27.947
	c2.407,0,4.358-1.947,4.358-4.348V4.349C36.663,1.946,34.712,0,32.305,0 M26.352,5.729c0-0.632,0.513-1.146,1.146-1.146h3.438
	c0.632,0,1.145,0.514,1.145,1.146v3.438c0,0.633-0.513,1.146-1.145,1.146h-3.438c-0.633,0-1.146-0.513-1.146-1.146V5.729z
	 M18.374,11.341c3.894,0,7.051,3.149,7.051,7.033c0,3.885-3.157,7.034-7.051,7.034s-7.051-3.148-7.051-7.034
	C11.323,14.49,14.48,11.341,18.374,11.341 M33.226,32.08c0,0.633-0.513,1.146-1.146,1.146H4.583c-0.633,0-1.146-0.514-1.146-1.146
	V14.895H8.02c-0.597,0.858-0.798,2.462-0.798,3.479c0,6.135,5.003,11.127,11.152,11.127s11.153-4.992,11.153-11.127
	c0-1.018-0.145-2.596-0.885-3.479h4.583V32.08z"/>
    </symbol>
    <symbol id="twitter" viewBox="0 0 37.453 31.21">
        <path d="M36.421,0.577c-1.486,0.902-3.129,1.558-4.884,1.909C30.14,0.956,28.142,0,25.93,0
	c-4.24,0-7.682,3.528-7.682,7.879c0,0.618,0.066,1.217,0.198,1.794C12.061,9.344,6.399,6.211,2.607,1.438
	c-0.662,1.168-1.04,2.522-1.04,3.966c0,2.731,1.356,5.144,3.418,6.557c-1.257-0.038-2.444-0.396-3.481-0.981v0.096
	c0,3.819,2.648,7.004,6.167,7.725c-0.645,0.186-1.324,0.277-2.025,0.277c-0.495,0-0.979-0.047-1.447-0.139
	c0.979,3.129,3.815,5.408,7.179,5.469c-2.63,2.115-5.944,3.375-9.544,3.375c-0.619,0-1.232-0.037-1.833-0.109
	c3.4,2.232,7.441,3.537,11.778,3.537c14.136,0,21.863-12.004,21.863-22.417c0-0.343-0.006-0.685-0.021-1.021
	c1.502-1.112,2.807-2.498,3.832-4.078c-1.376,0.626-2.857,1.05-4.412,1.24C34.629,3.961,35.847,2.417,36.421,0.577"/>
    </symbol>
    <symbol id="phone" viewBox="0 0 11 11">
        <g>
            <path d="M10.758,9.774c-0.164,0.383-0.602,0.633-0.953,0.828C9.344,10.852,8.875,11,8.352,11
		c-0.727,0-1.383-0.297-2.047-0.539c-0.477-0.172-0.938-0.383-1.367-0.648c-1.328-0.82-2.93-2.422-3.75-3.75
		C0.922,5.633,0.711,5.172,0.54,4.695C0.297,4.031,0,3.375,0,2.648c0-0.523,0.148-0.992,0.398-1.453
		c0.196-0.352,0.446-0.789,0.829-0.953C1.485,0.125,2.032,0,2.313,0c0.055,0,0.109,0,0.164,0.023
		c0.164,0.055,0.336,0.438,0.414,0.594c0.25,0.445,0.492,0.898,0.75,1.336C3.766,2.156,4,2.406,4,2.648
		C4,3.125,2.586,3.82,2.586,4.242c0,0.211,0.195,0.484,0.305,0.672C3.68,6.336,4.665,7.321,6.086,8.11
		c0.188,0.109,0.461,0.305,0.672,0.305C7.18,8.415,7.875,7,8.352,7C8.594,7,8.844,7.235,9.047,7.36
		c0.438,0.258,0.891,0.5,1.336,0.75c0.156,0.078,0.539,0.25,0.594,0.414C11,8.579,11,8.633,11,8.688
		C11,8.969,10.875,9.516,10.758,9.774z"/>
        </g>
    </symbol>
    <symbol id="meat" viewBox="0 0 96.43 89.25">
        <defs>
            <style>.cls-1{}</style>
        </defs>
        <title>meat</title>
        <g id="Слой_2" data-name="Слой 2">
            <g id="Layer_1" data-name="Layer 1">
                <polygon class="cls-1" points="38.48 4.84 38.47 4.84 38.48 4.84 38.48 4.84"/>
                <path class="cls-1"
                      d="M17.72,9.87c.05.11.23.27.3.25a.53.53,0,0,0,.34-.31,4.14,4.14,0,0,0-.83-2.76c-.15.59-.63,1-.29,1.59C17.45,9,17.54,9.47,17.72,9.87Z"/>
                <path class="cls-1"
                      d="M28.2,14.11c.17-.47.35-.94.48-1.26-.32-.07-.32-.07-.36-1.21-.39-.13-.79-.19-.69.41s-.14,1-.86,1.14l1.19.54Z"/>
                <path class="cls-1"
                      d="M32,11.61a.32.32,0,0,0,.23-.09A1.8,1.8,0,0,0,32,9.85a1.31,1.31,0,0,1-.3-.6,1.6,1.6,0,0,1,0-.49h-.24v1.67c.1.29.23.67.38,1.05A.21.21,0,0,0,32,11.61Z"/>
                <path class="cls-1" d="M32.22,12.51c-.64.21-.38-.52-.54-.59l-.92,1.2.06.13Z"/>
                <path class="cls-1" d="M21.23,18.75c0-.39,0-.81-.1-.83a3.13,3.13,0,0,0-.92,0c0,.06,0,.13,0,.19Z"/>
                <path class="cls-1" d="M28.43,16.34l-.09-.25-1.71.49.11.32Z"/>
                <path class="cls-1" d="M31.35,20.76c.2-1.06,0-1.45-.59-1.34.11.23.22.45.32.68Z"/>
                <path class="cls-1" d="M23.36,18.16l0-.26L22,17.81c0,.08,0,.17,0,.25A2.28,2.28,0,0,0,23.36,18.16Z"/>
                <path class="cls-1" d="M19.44,15s-.21-.23-.3-.33c-.2.48-.35.85-.52,1.24C19.33,16,19.22,15.31,19.44,15Z"/>
                <path class="cls-1"
                      d="M75.78,44c-1,.41-1.22,2.37-.43,4.38s2.27,3.32,3.3,2.91S79.87,49,79.07,47,76.8,43.64,75.78,44Z"/>
                <path class="cls-1"
                      d="M85.94,53l3-1.17a42.11,42.11,0,0,0-2.58-8c-.13.32-.27.63-.4.95a8.25,8.25,0,0,1-1.61-2.09A22.4,22.4,0,0,1,83.67,39l.12,0c-.5-.83-1-1.64-1.6-2.44l-.75.93,1.5,1.44-2.6.47A37,37,0,0,1,85.94,53Z"/>
                <path class="cls-1"
                      d="M73.63,28.61c-4.24-2.1-8-.29-9.35,4.17-3,9.86,5.69,30.51,14.91,35.41,4.24,2.24,7.94.94,10.11-4.42a28.68,28.68,0,0,0,.5-5.84,46.26,46.26,0,0,0-.71-5.17,4.77,4.77,0,0,1-3,1.37,38.47,38.47,0,0,1,.47,5.43,4.36,4.36,0,0,0,.17.51h-.15c0,1.92-.93,4.75-2.3,5.45s-4.39-.32-5.68-1.6c-7.78-7.72-12-17.13-11.59-28.23a5.75,5.75,0,0,1,1.28-3.89L67.1,30.6a1.69,1.69,0,0,1,2.58.41,5.68,5.68,0,0,1,3.61.59,19.33,19.33,0,0,1,2.31,1.87c.89.94,1.73,1.9,2.53,2.88a7,7,0,0,1,3.23-1c-.69-.91-1.42-1.8-2.2-2.67A18.35,18.35,0,0,0,73.63,28.61Z"/>
                <path class="cls-1" d="M52.9,42.56l.09.38,1.83-.24L54.4,42Z"/>
                <path class="cls-1"
                      d="M40.59,54.9c-.06-.17-.34-.26-.46-.35-.85.59-1.22,1.32-1,2,0,.19.34.47.47.45A2.08,2.08,0,0,0,40.59,54.9Z"/>
                <path class="cls-1"
                      d="M19.62,61.15a.9.9,0,0,0,.65-.1c.08,0,.09-.3.06-.45-.08-.48-.19-1-.32-1.56-.29.31-.49.51-.67.72A.92.92,0,0,0,19.62,61.15Z"/>
                <path class="cls-1"
                      d="M10.65,62.53l.86.62c-.14-1.3-.55-1.8-1.5-2a.48.48,0,0,0-.42.2.5.5,0,0,0,.13.45A9.49,9.49,0,0,0,10.65,62.53Z"/>
                <path class="cls-1" d="M28.49,69.68c0-.26.08-.63,0-.76s-.55-.19-.84-.27l-.18.31c.32.32.63.64.95,1Z"/>
                <path class="cls-1"
                      d="M24.37,56.12c0,.11.2.39.28.37a.84.84,0,0,0,.53-.3,2.8,2.8,0,0,0,.26-.7,2.63,2.63,0,0,0-.71.13A.84.84,0,0,0,24.37,56.12Z"/>
                <path class="cls-1"
                      d="M45,49.93l.41.53,9.86-11.57-1.78-1.66-.28.09c-5.44,1.84-7.8,6.47-9.38,10.71l-.1.26.72.93h0C44.68,49.67,44.84,49.89,45,49.93Z"/>
                <path class="cls-1"
                      d="M58.32,71.69l-1.59.21-.49-.25c.11.61.23,1.21.31,1.64.38-.14.38-.14,1.16,1,.49-.11.94-.31.45-.87A1.06,1.06,0,0,1,58.32,71.69Z"/>
                <path class="cls-1"
                      d="M56.22,57.87a2.57,2.57,0,0,0,1.07-.38c.14-.07.25-.39.27-.56,0-.55,0-1.08.08-1.77-.58.49-1,.8-1.34,1.13C55.57,56.92,55.49,57.8,56.22,57.87Z"/>
                <path class="cls-1"
                      d="M41,61.52a1.61,1.61,0,0,0-.75.4.38.38,0,0,0,0,.5,10.2,10.2,0,0,0,1.21.5l1.13.42C42.88,61.83,42.41,61.38,41,61.52Z"/>
                <path class="cls-1" d="M41.6,67.25c.49-1,.49-1-.84-1.17C40.47,67.34,40.47,67.34,41.6,67.25Z"/>
                <path class="cls-1" d="M54.81,69.68l1.47-1.62L56,67.8c-.46.56-.93,1.11-1.4,1.67Z"/>
                <path class="cls-1"
                      d="M65.11,63.62c-.81.36-.26,1-.27,1.48,0,.05.36.11.53.15C65.26,64.62,65.19,64.13,65.11,63.62Z"/>
                <path class="cls-1" d="M84,76.7l-1.23-.41C83.08,77.13,83.34,77.2,84,76.7Z"/>
                <path class="cls-1"
                      d="M58.3,80.83l1.8.56a2.17,2.17,0,0,0,.07-.24l-1.82-.5C58.33,80.71,58.32,80.77,58.3,80.83Z"/>
                <path class="cls-1" d="M51.35,80.61c0-.26,0-.5,0-1l-1.07.8Z"/>
                <path class="cls-1"
                      d="M78.56,24.42a1.29,1.29,0,0,1-.3.66c-.1.11-.58,0-.77-.14-.71-.53-1.32-1.22-2.07-1.67a1.73,1.73,0,0,1-.65-.71c-2.86-1-6.94-1.46-10-.27l-.41.16C51,27.71,41.87,36.06,36.45,48a61.2,61.2,0,0,1-3.18,6.19l.72,0a1.62,1.62,0,0,1-.89.26c-2.7,4.47-6.2,8.32-11.38,10.36A22.1,22.1,0,0,1,18,65.89a13.3,13.3,0,0,1-6.34-.13c-.08-.17-.32-.29-.83-.56a2.85,2.85,0,0,0,0,.31c-3.88-1.29-6.79-.6-9,2.12C-.68,70.87-.63,74.41,2,77.86a8.85,8.85,0,0,1,1.78,4c.56,4.31,3,6.84,7.13,7.33s6.84-1.56,8.26-5.93c.37-1.15,1-2.75,1.89-3.3,8.8-5.33,17.51-6.34,26-3-.07.37.09.82-.1,1.19.53-.25.8-.55.85-.9.64.26,1.28.51,1.92.74a12.19,12.19,0,0,0,0-1.91c-.12-1,.5-1.42,1.1-2l-.06,0a65.73,65.73,0,0,0-7.63-2.13l-.53-.1c-7.39-1.43-7.39-1.43-9.71-8-.34-1,.23-2.56.83-3.66,1.78-3.3,3.72-6.6,5.58-9.79q1.05-1.77,2.07-3.54a49.9,49.9,0,0,1,3.55-5.3l-1-.5c.2-.16.61-.58.67-.53a3.7,3.7,0,0,0,.88.37,42.25,42.25,0,0,1,4.94-5.24c.1-.82.2-1.65.29-2.47l.5.08a12.36,12.36,0,0,1,0,1.72,46.25,46.25,0,0,1,6.37-4.56A51.53,51.53,0,0,0,58,46.92a2.38,2.38,0,0,1,1-.79c.37-.11.89.25,1.38.42-.78,1.52-.52,2.71.67,3.54.21.15.58.08.88.09h1A35.51,35.51,0,0,1,61.35,35a15.5,15.5,0,0,1,1.28-4.77c0-.09-.05-.19-.08-.28l.4-.31a9.55,9.55,0,0,1,.88-1.38c0-.39-.35-.75-.93-1.06a11.81,11.81,0,0,0-1.59-.7c-1-.33-1-.85-.35-1.65,1,1.42,2,2.27,3.69,1.76a.77.77,0,0,1,.7.13,7.26,7.26,0,0,1,1.7-1c3-1.18,6.72-.2,10.18,2.7C88.19,37.57,93,49.31,91.5,63.29c-.44,4.08-2.15,6.81-5,7.92-2.49,1-5.82.62-9.62-1-.39-.39-.91-.85-1.49-1.37A41.47,41.47,0,0,1,69.77,63a44.41,44.41,0,0,1-6.58-12,1.18,1.18,0,0,0-.23.27c-.07.11-.12.22-.18.33a1.29,1.29,0,0,0-.45.11.53.53,0,0,0-.13.13c.1-.24.23-.52.41-.92-1.57,1.32-2.06-.32-3-.62-1.72-.53.33-2-.79-3l-.67.49a41.72,41.72,0,0,0,2.26,7.35,1.11,1.11,0,0,1,.45.21c.11.1.09.48,0,.76a46,46,0,0,0,9.31,13.4l-.23-.18c-.12-.09-.42-.13-.48-.07a.68.68,0,0,0-.15.54A5,5,0,0,0,72,72.14a8.63,8.63,0,0,1-.17-1c1.39,1.31,2.86,2.58,4.45,3.82a40.68,40.68,0,0,1-22.1.12c0-.23,0-.46.07-.69l-.15-.1-.39.66c-.45-.13-.9-.24-1.36-.38l-.79-.26a7.44,7.44,0,0,1-.4,4.15,44.56,44.56,0,0,0,22.22,1.5v0l.36-.14,0,.09a55.19,55.19,0,0,0,7.74-2.06l-.22,0c.64-.71,1.13-1.28,1.65-1.82.16-.17.5-.4.62-.34.29.16.66.43.72.71a1,1,0,0,1,0,.46h0c.69-.27,1.38-.56,2.06-.85a23.53,23.53,0,0,0,6.12-4.5c.84-.78,1.71-1.58,2.6-2.28l.11-.1.05-.14C99.8,54.47,91,32.18,78.56,24.42ZM31.45,59.21c.66.43.66.43.34,1.47C31.06,59.87,31.06,59.87,31.45,59.21ZM30.4,62.39l.6.9c.21.34.45.66.63,1a.53.53,0,0,1-.05.48.52.52,0,0,1-.47,0C30.27,64.3,30.06,63.68,30.4,62.39Zm-1,3.37ZM17.33,67c.51.39,1,.79,1.51,1.19l-.11.16-1.55-1.14ZM4,75.17c-.09,0-.35-.11-.43-.24-.32-.46-.54-1-.89-1.4-.55-.66-.06-1.26,0-2a5.09,5.09,0,0,1,1.66,3.2C4.37,74.86,4.17,75.08,4,75.17ZM6.1,82.11c.11-.52.22-1,.35-1.65.14.11.46.3.44.34C6.7,81.27,7,82.06,6.1,82.11Zm2.49,2.35-.06-.23A4.21,4.21,0,0,1,9.67,84c.1,0,.17.53.31,1Zm7.73-3c-.06-.12-.13-.23-.2-.36l2-1,.16.29ZM22,74.78,20.49,76a1.3,1.3,0,0,0-.1-.15l.22-.42c-.53.26-1.06.54-1.57.85a7.38,7.38,0,0,0-1.55,1.29l0,.11,0,0a8.19,8.19,0,0,0-2,3.48c-.76,3.2-2.13,4.49-4.27,3.83-.92-.29-1.67-1.87-2.33-3.27-.26-.54-.51-1.07-.77-1.54A20.74,20.74,0,0,1,6.33,76c-.15-.49-.34-1-.54-1.56-.54-1.46-1.14-3.12-.7-4A2.85,2.85,0,0,1,6.54,69c1.33-.53,3,.3,4.21,1.08a6.25,6.25,0,0,0,2.13.84c-.58.3-1.34.35-1.78,1,.38-.15.77-.26,1.14-.44s.52-.37.78.07.54.29.81,0a1,1,0,0,0,.31-.91l.23-.43.23.09a.81.81,0,0,0-.14.12l.46.06c-.06.24-.13.47-.19.71a7.11,7.11,0,0,0,1.94-.25,47.89,47.89,0,0,0,5.6-2.21c1.49-.66,3-1.35,4.59-1.88a4.23,4.23,0,0,1,2.84.35c-.1-.24-.19-.49-.29-.74l.33.13.19-.19c.16.18.35.35.53.52a3.44,3.44,0,0,0,.47-.68,4.85,4.85,0,0,0,.18-1c.29.43.52.75.72,1-.78,1,.58.71.63,1.27l-.39.24c.17.36.6.77-.06,1L31.32,68l-.31.14a3.36,3.36,0,0,0,.36,1.3c.22.27.76.26,1.21.4,0,.65-.55.32-.94.5L30.39,70c0,.36.08.67.08,1l-.26.15-.63.37h0c-.27-.3-.51-.63-.76-1l-.17.13a10.63,10.63,0,0,0,.43,1.13c-.29.16-.57.31-.86.44l-.41.17c.49-.09,1-.18,1.47-.29a.89.89,0,0,0,.13.14,16.67,16.67,0,0,1-1.73.21c-.85.36-1.7.71-2.54,1-1.08.42-2.17.86-3.24,1.34A.42.42,0,0,0,22,74.78Zm9.21-2.54.1,0,0,0Zm-3.81,4.1c-.19-.85.19-1.33,1.21-1.41C28.15,75.38,28.42,76.35,27.44,76.34Zm5.65-5.21a6.2,6.2,0,0,0,1.77-.47c0,.12.09.23.13.35l-2.33.63a.46.46,0,0,1,0-.35.84.84,0,0,0,.06-.24A1.42,1.42,0,0,0,33.09,71.13ZM85,34.57c-.1-.85-.19-1.65-.32-2.69.27.09.85.21.84.29C85.48,33,86.34,34,85,34.57ZM62,52.29a.25.25,0,0,0,0,.07l-.06,0ZM90.34,70.8A1,1,0,0,0,89,70.6c-.08.06-.11.21-.15.32l-.36,1c0,.16-.09.33-.15.54L87,72l0-.14a4.52,4.52,0,0,1,.53.11c.24.07.42.09.49-.21,0-.06.11-.1.17-.14s.19-.1.18-.14a.46.46,0,0,0-.11-.27c-.12-.15-.25-.27-.38-.41l.11-.09.44.41c-.29-.75.38-.73.61-1,.41-.57.7.38,1.21.09l-.2-.63.1-.09a1.87,1.87,0,0,1,.29.34,1.22,1.22,0,0,1,.22.58C90.67,70.5,90.46,70.64,90.34,70.8Zm3-18.81c.47.12.53.28.24.76C93.52,52.51,93.45,52.27,93.36,52Zm.37,14.15.72-.72c0,.09.13.29.11.31C94.31,65.91,94.2,66.41,93.73,66.14Zm1,2.76-.51-.75a.74.74,0,0,1,0-.14,2.9,2.9,0,0,1,.65.28S94.83,68.61,94.74,68.9Zm.2-7s-.13-.17-.14-.26c0-.34,0-.68,0-1-.06-.52.39-.66.66-1a3.11,3.11,0,0,1-.2,2.18A.41.41,0,0,1,94.94,61.92Z"/>
                <path class="cls-1"
                      d="M23.79,35.74l0,.26a3.12,3.12,0,0,1-1.18,0l.37.62a4.77,4.77,0,0,0,.5,1.15h0l.79,1.1.35.42a7.93,7.93,0,0,0,4.71,2.45,11.34,11.34,0,0,1,2.93.94l.3.11a1.76,1.76,0,0,1,.85.37l1,.43.17-.51a4.75,4.75,0,0,1,.41-.81,4.24,4.24,0,0,0,.59-1.37l.05-.32-.25-.18a11.12,11.12,0,0,0-3.49-1.49l-1-.31-.18,0a7.87,7.87,0,0,0,.72-.81c-.08-.15-.15-.31-.22-.46a.56.56,0,0,1,.46.07c.07-.13.17-.24.23-.38a7.33,7.33,0,0,0,.54-1.74,6,6,0,0,0,4.15,1.91A5.28,5.28,0,0,0,37.82,37l.15,0,.11-.12a42,42,0,0,0,3.19-4.12l.09-.13V32.4a8.18,8.18,0,0,0-1-3.39,7.38,7.38,0,0,0,4.1-.54,6.55,6.55,0,0,0,3.93-4.38c.1-.37.18-.72.24-1.07l.24-.27-.21.07a7,7,0,0,0-1.19-5.31,5.63,5.63,0,0,0-.91-1L43.93,15.3l-.78,1.61a3.53,3.53,0,0,1-.79-1.22l-.13-.39-.41,0a2.81,2.81,0,0,1-2-.4,7.56,7.56,0,0,0,1.92-.14l.44-.08,0-.45-.06-.82L42,13a8,8,0,0,1,1.95.65l.27.13.24-.17a7.27,7.27,0,0,0,2.2-2.82l.15.31c.09.17.18.35.28.51A6.45,6.45,0,0,0,52.52,15a6.71,6.71,0,0,0,4.16-1.61,4.73,4.73,0,0,0,1.22-1.7,9.4,9.4,0,0,1,.64,2.84,11,11,0,0,0,1.8,5.55l.2.32.63-.18a10,10,0,0,0,2.27-.81l.53-.29-.38-.46A6.17,6.17,0,0,1,62,15l.05,0L62,14.48a6.51,6.51,0,0,0-.37-2.31l0-.09a.83.83,0,0,1-.13-.46v-.1l0-.1c-.07-.21-.13-.43-.18-.64a5.39,5.39,0,0,0-.46-1.33l-.11-.22a16.45,16.45,0,0,0-2.3-3.57l-.18-.13c-.08,0-.15-.11-.31-.36A6.79,6.79,0,0,0,54.68,3L54,2.83l-.51-.07a8,8,0,0,0-1.93-.11l-.41,0-.38.07-.88.56.62.43a2.43,2.43,0,0,0,.35.2c.16.08.26.13.3.2l.08.09a7.17,7.17,0,0,0,.92.67,7.4,7.4,0,0,1,.76.55,6.12,6.12,0,0,1,2,3.26A2,2,0,0,1,54,11.15,2.32,2.32,0,0,1,51,11a7.94,7.94,0,0,1-2.31-4.25,4.62,4.62,0,0,1-.14-1.67l0-.14-.2-.47a5.34,5.34,0,0,0-2.11-2.89c-.21-.13-.42-.27-.62-.42a4.55,4.55,0,0,0-1.83-.9A9.71,9.71,0,0,0,42,.07c-.34,0-.67,0-1,0A1.76,1.76,0,0,0,39.65.5a.72.72,0,0,0-.31.62.82.82,0,0,0,.44.63l0,0v.52l.62-.19.11.06A10.45,10.45,0,0,1,43.16,5a5.69,5.69,0,0,1,.72,3,3.38,3.38,0,0,1-2,3.3,4.12,4.12,0,0,1-1.4.35l-1.06.07.34.36-3.83.5c0-1.2.28-1.81.79-2.19l.37-.28-.25-.39a5.8,5.8,0,0,1-.76-1.92c-.07-.32-.11-.64-.16-1l0-.36L35.71,6,35,5.9l-.69,1.34a9.27,9.27,0,0,0,0,5.2l.09.18s0,.07,0,.05l0,.17.09.18c.11.22.22.44.32.66.93,2.09,2.43,4.56,5.84,5.12l2-.06.14,0a2,2,0,0,1,.46-.1l.13.18.08-.17a1.44,1.44,0,0,1,.94.5,1.11,1.11,0,0,0,.11.11c.9,1,1.1,2.13.63,3.82a1.54,1.54,0,0,1-.33.77,5.2,5.2,0,0,1-.38.51l-1.24,1.4,2-.69a3,3,0,0,1-3,.58l-.22-.1-.22.11a.85.85,0,0,1-.85-.07l-.1,0a3.49,3.49,0,0,1-1.42-1,5.75,5.75,0,0,1-1.2-2.39,11.59,11.59,0,0,0-.59-1.58l-.11-.23-.82-.14-.15.37a16.7,16.7,0,0,0-.93,3.86l-.07.51v.23l.33,2.44.05.17.62,1.21c.46.87.93,1.77,1.33,2.67a1.42,1.42,0,0,1-.18,1.63c-.35.39-.82.37-1.59.26a1.76,1.76,0,0,1-1.13-.75,3.62,3.62,0,0,1-.63-2.59v-.25l-.26,0,.25,0-.06-.44A8,8,0,0,0,31,25.08c-.09-.07-.36-.3-.46-.4l-.18-.1c-.13,0-.86-.4-1-.49L29,23.94a5.65,5.65,0,0,0-1.43-.15l-1-.05s-3,.32-3.17,1.16l-.08.33.29.19A10.64,10.64,0,0,1,25.48,27l.67.62a5.25,5.25,0,0,0,.59.89l.22.4A9.14,9.14,0,0,1,27.55,30l.05.1.31.55a1,1,0,0,0,.12-.8c-.1-.6.3-.55.69-.42,0,1.14,0,1.14.36,1.21L28.59,32c-.07-.13-.15-.25-.23-.38h0A7.28,7.28,0,0,1,29,34a2,2,0,0,1-1.62,2.43l-.79,0-.07,0a1.84,1.84,0,0,1-1.05-.26A4.84,4.84,0,0,0,25,36l-3.08-2.24.54,1.92Zm8.05-9.14h.24a1.93,1.93,0,0,0,0,.48,1.32,1.32,0,0,0,.31.6,1.79,1.79,0,0,1,.21,1.68.29.29,0,0,1-.22.09.21.21,0,0,1-.16-.13c-.15-.38-.28-.76-.38-1.05Zm.24,3.16c.16.07-.1.79.54.59l-1.4.74L31.16,31Z"/>
            </g>
        </g>
    </symbol>
    <symbol id="hand" viewBox="0 0 73 85.87">
        <defs>
            <style>.cls-1{}</style>
        </defs>
        <title>hand</title>
        <g id="Слой_2" data-name="Слой 2">
            <g id="Layer_1" data-name="Layer 1">
                <path class="cls-1"
                      d="M10.71,61l2.09-.41a.25.25,0,0,0,.23-.33l-.53-3.41a8.12,8.12,0,0,1,.93-.48.74.74,0,0,1,.21-.07.85.85,0,0,1,.19-.06l.25-.09c.08,0,.17,0,.27-.08l.36,3s.06,0,.07,0,0,0-.06,0l.06.4h0v0l-.05,0,0,.17a.29.29,0,0,0,.34.24l2.11-.37c.19,0,.26-.13.23-.34-.25-1.42-.5-2.87-.71-4.34-.24-1.64-.42-3.3-.58-5a.3.3,0,0,0-.12-.21.26.26,0,0,0-.22-.05l-1.93.33a.27.27,0,0,0-.24.32l.4,3.45-1.32.29h.07s0,0,0,.06-.08,0-.08,0l0,0-.56.11-.36-3.45a.28.28,0,0,0-.35-.24L9.6,51a.26.26,0,0,0-.24.32l1,9.41A.3.3,0,0,0,10.71,61Zm1.95-2v0l-.07,0v0Zm.16-3.92a.05.05,0,0,1,0,0l.05,0Zm0-.24h0s0,0,0,0a0,0,0,0,1,0,0s0,0,0,0Zm.21.41v0h0v0Zm.73,0v-.05h0v0Zm.4.16s0,.05-.07.06H14s0,0,0,0,0,0,0,0v-.07h.11l.1,0S14.18,55.34,14.16,55.37Zm0-.72,0,0,.06,0v0Zm.3.72h-.06l-.06,0,0-.05.13,0v.07A.07.07,0,0,1,14.45,55.37Zm0-.4v0H14.4v0Zm-.05-.45s0,0,0,0h.07l0,.05Zm.38,3.3h-.07s0,0,0-.05h.05v0S14.81,57.8,14.8,57.82Zm-.05-2.26s.05,0,.07,0,0,0,0,.06Zm.13,3.2h0v0h0a.06.06,0,0,1,.06,0s0,0-.06,0h0Zm1-.09s0-.14,0-.15,0,0,0,0l0,.08Zm.38.83v0h0l.05,0Zm.11-.39h0s0,0-.05,0,0,0,0,0h.07a.05.05,0,0,0,0,0Zm.06-.26h0s0,0,0-.06h-.06s0,0,.07-.09l0,0,0,0,0,0s0,.05,0,.07a0,0,0,0,0,0,.07S16.45,58.84,16.45,58.85Zm.25.18v.07h0V59Zm0,.46-.13.07h0a0,0,0,0,0,0,0v0a0,0,0,0,1,0,0s0,0,0,0h.06s.05,0,.08,0Zm-.06-4.1,0,.3a.09.09,0,0,1-.11,0l0-.25Zm-.21,2.36h0v0a.09.09,0,0,0,0,0h.06v0l.05,0a0,0,0,0,1,.05,0l0,0,0,.08h-.16s0,0,0,0a.24.24,0,0,1-.06-.08.54.54,0,0,0,0-.08A.18.18,0,0,1,16.39,57.75Zm-.18.5s.05,0,.06,0a.12.12,0,0,1,.08,0s0,0,0,0,0,0-.05,0a.22.22,0,0,1-.13,0Zm0-.38v0h-.09s0,0,.06-.07ZM16,57.6h0s0,0,0,0h0s0,0,0,0v0l-.05,0s0,0,0,0S16,57.62,16,57.6Zm-.12.17.05,0,0,.07c-.05,0-.06,0-.07,0v0a.28.28,0,0,1,0-.11A0,0,0,0,1,15.92,57.77Zm-.11-2.42,0,0s0,0,0,0,0,.07-.08.06,0,0,0,0S15.77,55.36,15.81,55.35Zm0,1.73s0,.06-.06.06A.06.06,0,0,1,15.85,57.08Zm0,1a.06.06,0,0,1,.07,0s0,0,0-.08L16,58v0l0,0h0l0,0a0,0,0,0,1,0,0,.06.06,0,0,1-.06,0s0,0-.06,0Zm-.08.44c-.08,0-.11,0-.12-.06l.06,0S15.71,58.51,15.75,58.52Zm-.14-1.62a.07.07,0,0,1,0,.05v0h-.08v-.1Zm-.1,2.89h-.06a.16.16,0,0,1-.14-.06.16.16,0,0,1,0-.08.3.3,0,0,0,.22.05S15.53,59.79,15.51,59.79Zm-.17-.72,0,0s-.07,0-.05,0Zm-.06-.87,0,0h0l0,0ZM15.43,56v-.06h0V56Zm.06-.7,0,0-.16,0v-.06l0,0,.14,0S15.47,55.27,15.49,55.27ZM15.35,53l.08.06-.09,0-.07,0Zm0,3.6.05,0s0,0,0,0h0v0H15.3l0-.08Zm-.2,2.91.09,0,.06,0s0,0,0,0h0v0a.35.35,0,0,1-.12.1.42.42,0,0,0-.12.08S15.08,59.5,15.13,59.46Zm-.2,0s-.07,0,0-.07H15l.09,0ZM15,51.19v.05h0v-.06Zm-.07,3.53h0l0,0,0,0a0,0,0,0,1,0,0l-.08,0h-.06l-.06,0v-.07h.18Zm-.16-3.28v0h0v0Zm0,.26v.06h0v0Zm0,5.49h.06v0l0,0h-.08S14.68,57.21,14.71,57.19Zm-.15-4.91-.12,0v0l.11,0Zm-.13-.2v0h-.1v0Zm-.11,2.74s.08,0,.09,0l-.11,0Zm-.09-3.57,0,0-.06.07s-.07-.05-.07-.08Zm-.29,3.25.1,0a.21.21,0,0,0,.08-.06h.05c-.07.06-.09.11-.11.12s-.06.06-.17.09,0,0,0-.06S13.93,54.52,13.94,54.5Zm-.45-.25,0,0h-.06Zm0,.62h0l0,0h.08a.08.08,0,0,0,.08-.1s.07.07.15.06l0,0H14a.27.27,0,0,0-.07.14.08.08,0,0,0-.08,0,.25.25,0,0,0-.12.07l.1,0,0,0h0A.18.18,0,0,1,14,55V55l-.19,0a.48.48,0,0,0-.18-.05c-.08,0-.11,0-.13-.07h-.09S13.44,54.88,13.48,54.87Zm-.23-.38.12,0h0s0,0,0,0l0,.05-.13,0v0Zm-.08.11s0,0,0,0,0,.09-.07.12l0,0L13,54.73c0-.07,0-.07,0-.09l.09,0S13.15,54.61,13.17,54.6ZM13,54.25a.19.19,0,0,1,.13,0v.06l-.08,0,0,0v0S13,54.27,13,54.25Zm-.15.45v0l.07,0v0Zm0-.18.09,0a.1.1,0,0,1-.12.08A.07.07,0,0,1,12.83,54.52Zm-2,5a.19.19,0,0,1-.17,0s0,0,0,0a.85.85,0,0,1,.16,0v.06Zm-.19-6.91,0,0h0v.05Zm.19,5.68h0v.05h0Zm.06.15h0l0,0h0Zm.11.8v-.07h0v.07Zm.13.51a.06.06,0,0,0,0,0v.08l0-.16h0A.11.11,0,0,0,11.09,59.8Zm.17-1.15H11.2s0,0,0,0h.1S11.29,58.65,11.26,58.65ZM11.33,57l-.07.05s0,0,0,0L11.15,57l-.07-.07.22-.1,0,0s0,0,0,.06A.16.16,0,0,1,11.33,57Zm.14-4.22h0l-.15,0v-.09l.06-.05h.06a.06.06,0,0,1,0,0s0,.05,0,.06.05,0,.05.05Zm.68,5.74h0a.06.06,0,0,0,0-.05l0,0s0,0,0,0Zm.18.11h0s0,0,0,0h0Zm-.1-1.4,0,0-.08,0v0Zm-.11.95h0a.07.07,0,0,1,.08,0,.13.13,0,0,1-.07.1l0,0,0,0A.12.12,0,0,1,12.12,58.19ZM12,56.83h0l0,0,0,0Zm0,.79-.09.07H11.9a.29.29,0,0,1,.08-.11S12.06,57.6,12.06,57.62Zm-.21-.91h0a0,0,0,0,1,0,0H12v0a.23.23,0,0,1-.11.05h0v-.06Zm0,1.86s0,0,0,0a0,0,0,0,1,0,0,.33.33,0,0,1-.15.14h-.11c0-.06,0-.09.09-.1s0,0,.06,0S11.8,58.57,11.82,58.57Zm-.18-1.86.11,0v0h-.11Zm0,2.24a.13.13,0,0,0,.09,0s.06,0,.07.05,0,0,0,0l-.12,0h0s0,0,0,0A.08.08,0,0,1,11.6,59ZM10,51.66a.13.13,0,0,1-.1,0l0-.15,0,0,.08,0v0a0,0,0,0,0,0,0s0,0,0,0,0,0,0,0A.39.39,0,0,0,10,51.66Zm.17.24v-.07h0v.07Zm.17-.55s.05,0,.09-.09l.11,0v0h0l.09,0a.37.37,0,0,0,.14,0h.08l.13,0h0l.27,0,.13.05,0,0s-.05,0-.06,0l-.05,0-.49.08H10.7l-.1,0-.09,0a.67.67,0,0,1-.25,0C10.31,51.36,10.34,51.34,10.37,51.35Z"/>
                <path class="cls-1"
                      d="M23.18,56.74l.44,1.71a.26.26,0,0,0,.33.21l2.16-.38h0c0,.07.07.14.11.22.07-.09.2-.18.18-.24a.74.74,0,0,0-.07-.21.3.3,0,0,0,0-.16l-1.45-4A.27.27,0,0,0,25,53.8c.2-.6.66-.73,1.27-.72-.11-.34-.26-.45-.55-.23a5.74,5.74,0,0,1-.53.32.47.47,0,0,1-.55,0l-.17-.47c0-.07,0-.14,0-.19l-.07,0-.14-.37c-.24-.67-.56-1.4-.61-1.51-.14-.3-.3-.64-.47-.93a1.44,1.44,0,0,0-1.27-.8A3.82,3.82,0,0,0,21,49c-.32.1-.62.23-.92.34a.35.35,0,0,0-.19.21c-.27,1.15-.53,2.31-.77,3.47-.18.85-.33,1.72-.45,2.59-.15,1.17-.29,2.37-.39,3.53a.3.3,0,0,0,.33.33l2.12-.33a.28.28,0,0,0,.25-.26l.08-1.37Zm-.24-1.47v0H23v0Zm0-.7v0h0v.06Zm.19,1.67v-.05h0v.06Zm.05-1.55s0,0,0,0h-.11s0,0,0,0l0,0h.09S23.22,54.68,23.2,54.69Zm-.09-.29s-.06,0-.08,0L23,54.37a.22.22,0,0,1,.12,0l.21,0s-.05.08-.09.09Zm.09-.13-.08-.05v0l.1,0,0,0s0,0,0,.06h0s0,0,0,0Zm.13.8v.07h-.06v-.07Zm0,.44.07-.1a.06.06,0,0,0,.05,0s.05,0,.05,0,0,.08-.08.13a.36.36,0,0,1-.15,0A.26.26,0,0,0,23.33,55.51Zm0,.71.2,0v0l-.15,0S23.35,56.22,23.31,56.22Zm.16.67v0l.1,0v.06Zm.05-1,.08,0,0,.12A.13.13,0,0,1,23.52,55.89Zm.13,1.27,0-.1h.07l.1,0ZM24.76,56H24.7v0h.05Zm-.5-.19a.31.31,0,0,0,0,.12l.07,0s0,0,.05,0l-.09,0-.08,0a.15.15,0,0,1-.15-.11l.11-.06S24.25,55.8,24.26,55.76Zm-.05-.87h.09v0h-.09ZM23.88,54a.26.26,0,0,0-.07.1s0,.06-.11.08.12.07.16.06.08,0,.11.06,0,0,0,0l-.2,0c-.11-.12-.16-.17-.17-.22s0,0,.13-.15l.15,0S23.86,54,23.88,54Zm-.17.72h0v0h0S23.69,54.73,23.71,54.72Zm.06,1.12H23.7v0l.07,0Zm0,1.12V56.9c.06,0,.09,0,.1.05Zm.12.6,0-.05.06,0s.07,0,.08.07Zm.16-.87h.1s0,0,0,0,0,0,0,.05a.09.09,0,0,1-.05,0S24,56.71,24,56.69Zm.25,1.48s0,0,0,0a1,1,0,0,1-.19-.16l.14,0a.31.31,0,0,0,.07.14S24.29,58.17,24.29,58.17ZM25,56.84s.05.08.14.11-.06.08-.05.11l0,.06a.45.45,0,0,0,.07.07c0,.13.08.25.11.33l.12.33a.06.06,0,0,1-.07,0s-.16-.09-.17-.13v0s0,0,0,0a.18.18,0,0,1-.11-.1c0-.06,0-.1,0-.13l-.05,0a0,0,0,0,1,0,0,.16.16,0,0,1-.06,0l-.05,0h0l0-.2-.09,0-.07,0a.52.52,0,0,1-.17,0c.14-.1-.13-.14-.19-.16l0-.12a.07.07,0,0,1,0-.07s0,0,0,0,0,0,0,0a0,0,0,0,0,0,0s-.06,0-.1,0,0-.05,0-.1,0-.08.11-.1a.16.16,0,0,0,.1,0,.07.07,0,0,0,0,0l-.06,0s0-.07,0-.1l-.06,0s0,0,0,0,.16-.19.24-.2a.69.69,0,0,1,.23,0l0,.11-.06,0c-.09,0-.13,0-.12.09l0,.15.05,0a.75.75,0,0,0,.09-.09l.08-.1c.08.09.09.16.07.18s0,0,0,.06a.35.35,0,0,0,.06.09A.3.3,0,0,1,25,56.84Zm-1.32-3.06a.14.14,0,0,1,.12,0,.24.24,0,0,1-.22,0l0-.07Zm-.06-.24s0,.06-.06.07Zm-.05.11h0a0,0,0,0,0,0,0s0,0-.08,0v0A0,0,0,0,1,23.54,53.65Zm.08,1.16a.59.59,0,0,0,0,.08.09.09,0,0,0,0,.06v0l-.13,0,0-.09a.2.2,0,0,0-.12-.11l-.05,0A.3.3,0,0,1,23.62,54.81Zm-.16-.59a.4.4,0,0,1,0,.15l-.06-.16h0a0,0,0,0,0,0,0Zm-.08-.45s0,0-.05,0l0,0c.06,0,.09,0,.09,0Zm0-.72v0l-.09,0v0Zm-.08,1s0,0,.05,0v.07l-.08,0h-.08a.09.09,0,0,1,.06-.1S23.28,54,23.29,54Zm-.06-1.78h-.08l0,0s0,0,0,0S23.22,52.19,23.23,52.24Zm-.1-.25v0H23v0Zm-.05,1s0,0,0,0v0H23v0Zm-.11.8c.1,0,.16,0,.19.11h0v0l-.13,0a.06.06,0,0,1,0-.1h-.08A.08.08,0,0,1,23,53.75ZM23,55V55h0V55Zm-.52.48v0h.07v0Zm.05-4.8a.08.08,0,0,1-.08,0,0,0,0,0,1,0-.06.2.2,0,0,1,.13,0s0,0,0,0,0,0,0,0Zm0,3.14h.06s0,0,0,0h-.08Zm.06,2.63,0,0,0,0,0,0Zm0-2.21v0l.12,0v0Zm.24,1.37,0,0h-.05a.12.12,0,0,1,.09-.06S22.87,55.54,22.86,55.56Zm-.07-3.06,0,0,0,0,0,0ZM22.73,51s.05,0,.06-.06a.06.06,0,0,1,.08.06s0,0,0,.07h-.09a.08.08,0,0,1,0,0S22.71,51,22.73,51Zm0,2.21s-.05.05-.07,0Zm-.33-3.08a.21.21,0,0,0,.13,0l0,0s0,.05.08.08l-.05,0-.19,0,0,0C22.38,50.19,22.4,50.16,22.44,50.15ZM22.3,50l0,0s0,.05,0,.07h-.06s0,0,0,0V50Zm-.14.08v0l0,0v0Zm-.07-.37,0,.12h0l0-.11Zm0,.26a.21.21,0,0,1,0,.12l-.05,0L22,50Zm0,3.36c.08.22.15.45.22.67l.2.67-1.07.21.3-2.41C21.83,52.77,21.94,53.06,22.05,53.35Zm-.64-.61,0-.12h0l0,.12Zm.14-1.83.05,0a.12.12,0,0,1,0,.08s0,0-.06,0h-.07l0-.07Zm0,1.35,0,0,0,0,0,.12c-.11.08-.15.07-.22,0S21.44,52.25,21.52,52.26Zm-.19-1.43h0v.05h0Zm-.56,1.22h.08s0,0-.05,0,0,0,0,0v0S20.76,52.05,20.77,52.05Zm-.46-2.36v.08h-.06V49.7Zm-.4,7.77,0,0s.08,0,.09,0v.07l0,0-.11,0v-.06Zm-.25-.34-.05,0v0C19.67,57.07,19.68,57.08,19.66,57.12Zm0-5s.08-.12.07-.09a.62.62,0,0,1,0,.23S19.68,52.18,19.68,52.15Zm.18.32,0,.17h-.05l0-.16ZM20,58.18s-.07,0-.09,0a.07.07,0,0,1,.06-.07s.1,0,.12,0Zm.05-.39s0,0,0,0-.14-.08-.15-.09a.24.24,0,0,0,.21-.17l.06,0,.05,0v.06l-.09,0S20,57.76,20,57.79Zm.22.4-.1,0s0,0,.08-.07a.09.09,0,0,1,.07.06S20.24,58.16,20.22,58.19Zm.09-.95s0,0,0,0h0a.11.11,0,0,1,0-.08S20.34,57.2,20.31,57.24Zm.1-6.89h0a.37.37,0,0,0,0,.18l0-.18Zm0,4.24h.05l0,.1a.2.2,0,0,1,0,.12.1.1,0,0,1-.06-.08A.76.76,0,0,1,20.4,54.59ZM20.62,58h-.06l-.07,0,.06,0h0l0,0,0,0A.07.07,0,0,1,20.62,58Zm0-1.11a0,0,0,0,1,0,0,.2.2,0,0,1-.21-.11.14.14,0,0,1,.12-.14l.19,0a.12.12,0,0,0,0,.08.15.15,0,0,0,0,.08Zm.17-1.54a.06.06,0,0,1-.07,0s0,0,0-.1a.58.58,0,0,1,0-.18.58.58,0,0,0,0-.21.32.32,0,0,1,0-.14.6.6,0,0,1,.09-.28.59.59,0,0,0,.09-.25A1.67,1.67,0,0,1,21,54c0-.19,0-.36,0-.33a.23.23,0,0,1,0-.1.11.11,0,0,0,0-.07s0,0,0-.11a1.7,1.7,0,0,0,0-.27s0,0,.06-.07A.2.2,0,0,1,21.3,53l.08,0a1.87,1.87,0,0,0-.09.32s0,.08,0,.12a.57.57,0,0,1-.12.23l0,.17c-.06.21-.12.68-.13.65l0,.17a.35.35,0,0,0-.06.14.66.66,0,0,0-.06.25.92.92,0,0,1,0,.26S20.83,55.31,20.83,55.33Zm.08,1.2v-.07l.15,0,0,.07Z"/>
                <path class="cls-1"
                      d="M25.92,48.49l.26,3c.13,1.53.29,2.77.46,4.19.08.71.17,1.43.26,2.13a.28.28,0,0,0,.34.25l.18,0a2,2,0,0,0,.66.22L27.73,58l1.43-.25a.27.27,0,0,0,.25-.33l-.3-1.92.27.31c.06-.22.08-.32.1-.39l.55.09c-.45-.66-.69-.87-1-.76l-.37-2.4.43.72a2.76,2.76,0,0,0-.08.27l.15-.15.29.49,0,0,.07,0h0l.07,0-.16.13,1.65,2.8h0v0h0l.31.56a.3.3,0,0,0,.32.14l1.88-.37a.27.27,0,0,0,.23-.35c-.19-1.07-.38-2.16-.55-3.24h-.07l0,0h0v0s0,0,0,0l-.1,0a.43.43,0,0,1-.15,0,.06.06,0,0,1-.05,0h0l0,0,0,0c.1,0,.17,0,.18,0s.06,0,.1,0h.07c0-.22-.06-.43-.1-.65s-.07-.42-.09-.64c-.14-.87-.24-1.75-.33-2.62l.21,0c-.44-.17,0-.45,0-.55l-.22,0c0-.46-.09-.92-.12-1.39a.31.31,0,0,0-.34-.26l-1.13.17.11-.16c-.15-.24-.34-.44-.55-.08s-.52.5-1,.25c.14.27.27.54.41.8l0,.31.24-.15.37,3.25L29,48.61h0a1.37,1.37,0,0,0-1.47-.71l-1.36.28C26,48.22,25.9,48.32,25.92,48.49Zm2.76,7.79v-.09l.14,0,0,.08ZM27.82,54H28l.05,0,.14,0-.29,0Zm.44-3.22v0s0,0,0,0a.16.16,0,0,1,.11,0A.19.19,0,0,1,28.26,50.82Zm0,3.53-.14,0,0-.06.15,0Zm.27-1.9v.06l-.14,0v-.05Zm-.21-.2,0-.08.1,0,0,.09Zm0-.47v-.05l.14,0v.06Zm-.11-1.09h0l0,0a.22.22,0,0,1-.05-.11A.2.2,0,0,1,28.25,50.69Zm0,1.66c0,.07-.06.11-.14,0Zm-.11.53v.06h-.09V52.9Zm0,.37-.15,0a.17.17,0,0,1,.06-.12Zm0,.68L28,54v-.06l.08-.06Zm-.2-1,0-.08c.14,0,.17,0,.11.09Zm0-.21v-.07a.19.19,0,0,1,.13-.07v0a.12.12,0,0,1,0,.08Zm0-1.82a.23.23,0,0,1,.14,0A.1.1,0,0,1,27.79,50.91Zm0,.78v.05l-.11,0v0Zm0,1.65,0,.1-.12,0,0-.1ZM28.22,55l-.1,0a.06.06,0,0,1,0,0l.09,0v.05S28.23,54.92,28.22,55Zm0-.46.09,0,0,.1-.09,0Zm.07,1.4,0-.1.09,0,0,.1Zm.07-2.66h.08l0,.11-.08,0ZM28.46,56l0-.09a.24.24,0,0,1,.15,0A.48.48,0,0,1,28.46,56Zm.15-3.81a.22.22,0,0,1-.1-.13C28.63,52.1,28.65,52.14,28.61,52.21Zm1,.35v-.05l.1,0v0Zm0-.39s0,0,0,0l0,0s0,0,0,0v0h0ZM30,53.89a0,0,0,0,1,0,0s.07,0,.1.07l-.08,0Zm.08.44s0,0,0-.06l.06,0Zm.11.35v-.06a.15.15,0,0,1,.14,0A.23.23,0,0,1,30.2,54.68Zm.09-.22,0-.05.1,0,0,0Zm0-.31,0,0h.07l0,.06Zm.71.14a.55.55,0,0,1-.1.11l-.07.07a.19.19,0,0,1-.07-.06s-.07-.06-.08-.09h0s0,0,0,0h0s0,0,0,0,0,0,0,0l0,0,0,0h0Zm-.07-2v0h0l0,0Zm-.16,2.5-.08-.1h.06c.09,0,.09,0,.13,0Zm.17-.17.11,0c.06,0,.1,0,.1.06v0a.25.25,0,0,1-.21,0Zm.17.28.06,0,.12.18-.06,0Zm0,.38L31,55.18C31.11,55.21,31.14,55.23,31.1,55.3Zm.2,1a.13.13,0,0,1-.11.07.07.07,0,0,0,0-.1l.05,0h0l.14-.06a.16.16,0,0,1,0,.07Zm.32-.45a.07.07,0,0,0,0,0h0l.07-.1.12.08Zm.46-.56h.07l-.16.17,0-.05C32.1,55.38,32.09,55.36,32.08,55.28Zm.17.55a.16.16,0,0,0-.06.09h0a.16.16,0,0,1,.06-.08h0Zm-.35-.23H32v.09H31.9Zm0,.28h0s0,0,0,0h.09l0,0a.15.15,0,0,0-.11,0l0,.09h0v0Zm0-.08-.06,0s0,0,0-.06.05,0,.06,0Zm-.07-1a.18.18,0,0,1-.1,0l.07-.07C31.84,54.76,31.85,54.8,31.82,54.82Zm-.08-2.3v0h0v0Zm-.15,1.14s0,.05,0,.07a.12.12,0,0,1-.07-.07h.07Zm-.12-.52h.06l0,.06h-.07Zm-.06,2,0,0s.06,0,.07,0l.08,0h0a0,0,0,0,0,0,0l0,.07s.08.07.21.11c-.08,0-.14.06-.17,0a.23.23,0,0,1-.08-.09h-.19Zm0,.25s0,0,0,0v0a0,0,0,0,1,0,0,.12.12,0,0,1,0-.08l.07,0h.06l.06.09,0,0,0,0s0,0,0,0-.05,0-.12.07Zm-.38.24-.06,0H31a.39.39,0,0,1,.14-.08c.06,0,.09,0,.1,0a.64.64,0,0,0,.15-.06Zm.21-1.21.06.08-.05,0-.07-.07Zm-.1,0-.11,0-.13,0s0,0,0,.05l0,0s-.05,0-.07,0,0,0,.05,0l.12,0a0,0,0,0,1,0,0l0,0h0l.11-.05Zm-.48-.6,0,.1h-.07v-.08Zm-.05,1.36h0s0,0,0,0-.06,0-.06,0l.13-.07A.11.11,0,0,0,30.65,55.2Zm0-.13-.1,0,0-.07.1,0Zm-.1-.29H30.5l0-.07h.06Zm0-1.36-.12,0,0,0,.11-.05Zm-.05-.11,0,0,0,0c-.08,0-.12,0-.13-.07A.45.45,0,0,1,30.46,53.31ZM30.2,54h0a.08.08,0,0,1,0,0h0l0,0v-.09h.12Zm0-.56-.16.08,0,0,.15-.07Zm-.1-.21,0,.08c-.09,0-.14,0-.15-.06Zm-.16.22H30l0,.09-.07,0Zm-.09.2,0,0-.06,0h-.07c.05,0,.08,0,.09-.08a.39.39,0,0,1,.11.06Zm-.08-.82h0s0,0,0,0a0,0,0,0,0,0,0l0,0,0,0,0,0a.56.56,0,0,0,.06.17Zm0-.46v.05h-.06v0Zm-.16-.42.07,0-.16.16,0,0C29.65,52,29.64,52,29.63,51.91Zm-.19.18v.09h-.07v-.08Zm-1.26-1.32,0,0h-.09v-.05Zm-.39,0v0l.26,0v0a.17.17,0,0,1-.11.06h0l-.07,0,0,0v0l-.11,0v-.06Zm-.05,3.12,0,.08a.37.37,0,0,1-.14.06S27.66,53.93,27.74,53.87Zm-.12-3.16a.11.11,0,0,1,0,.11s0,0,0,0v-.06Zm-.23-.7a.29.29,0,0,1,0,.08l-.09,0S27.36,50,27.39,50Zm-.05.73v0l-.08,0v0Z"/>
                <path class="cls-1"
                      d="M37.44,56.25a3.86,3.86,0,0,0,2-1.31,6.35,6.35,0,0,0,1.3-3.4A7.34,7.34,0,0,0,40,47.77a2.85,2.85,0,0,0-2.78-1.62,6.92,6.92,0,0,0-2.09.53l-1,.41.08-.09-.13-.11-.26.33-.1.05a.27.27,0,0,0-.18.31l-.18.22c-.06.2-.16.46-.24.73a.17.17,0,0,0,0,.14.19.19,0,0,0,.16,0,.58.58,0,0,0,.33-.27l1,8.05a.28.28,0,0,0,.34.24l1.48-.25C36.8,56.42,37.11,56.34,37.44,56.25Zm-3.1-5.71,0,0s0,0,0,0l-.06-1.28c0,.05.11.13.1.18a2.41,2.41,0,0,1,0,.31.49.49,0,0,1,0,.14c0,.16,0,.32,0,.39l0,.1S34.36,50.49,34.34,50.54Zm.06-3.17,0,0h0l.05,0Zm.24,6.49v0h0S34.58,53.87,34.64,53.86Zm0-2H34.6l0-.11a1,1,0,0,1,.19.08A.1.1,0,0,1,34.68,51.83Zm0-4.34v0s0,0,0,0h0l0,0a.27.27,0,0,1,.16,0A1.79,1.79,0,0,1,34.73,47.49Zm3,8h0l0,0a0,0,0,0,1,0,0s0,0,0,0Zm.81-5.42s0,0-.06,0,0,0,0,0h0a.17.17,0,0,1,.16.06s0,0,0,.07a.06.06,0,0,1,0,0l.12,0s0,0,0,.07h0l-.06,0c-.08,0-.18-.12-.18-.15s0,0,0,0a0,0,0,0,0,0,0S38.56,50.05,38.54,50.05Zm.27-.34a.11.11,0,0,1,0-.08H39s0,0,0,0l-.05.07S38.82,49.77,38.81,49.71Zm0,2.78s0,0,0,0v-.06h.07S38.79,52.49,38.79,52.49Zm0-1.58h0l0,0h.09s0,.05,0,.05S38.83,50.93,38.83,50.91Zm.07,1.53,0,0s0,0,0,.06S38.9,52.44,38.9,52.44Zm0-1.75a.13.13,0,0,1,0-.08l.05,0H39l0,0,0,0,0,0-.08,0ZM39,51.94l0,0v0l0,0,0,0,.07,0A.31.31,0,0,1,39,51.94Zm.17-1.2a.09.09,0,0,1,0,.1l-.07-.06a0,0,0,0,1,0,0Zm0-.46a.23.23,0,0,1,.11,0s0,0,0,0v0l-.08,0a0,0,0,0,1,0,0Zm-.06.2h0v0h0Zm0,.58h.08s0,0,0,0,0,0,0,0v0h0v0h0S39.09,51.09,39.09,51.06Zm.17,1.09s-.1,0-.11,0,0-.11,0-.13l.08.05.09,0A.14.14,0,0,0,39.26,52.15Zm0-.41,0,0s0,0,0,0,0,0,0,0,0,0,0,0l0,0c.05,0,.08,0,.08,0s0,0,0,0v0a.06.06,0,0,0,.06,0,0,0,0,0,1,0,0s0,0,0,0Zm.14-.69a.64.64,0,0,1-.15,0s0,0,0-.07a.11.11,0,0,1,0-.07h.06l0,0s0,0,0,0v0ZM39.31,49a.11.11,0,0,1,0-.08l0,.05V49C39.33,49,39.32,49,39.31,49Zm.23,3.59c-.08,0-.12,0-.13-.07a.07.07,0,0,1,0-.06l.12,0s0,0,0,0l0,0v0Zm.13-.8,0-.09h0v.08Zm.11,1.17s0,0,0,0v0l.08,0v.06ZM40,50.76a.05.05,0,0,1,.06,0c-.05,0-.08,0-.08,0Zm-.25-1.14h.07v0s-.06,0-.1,0Zm-.05,1.5h0c.1,0,.15,0,.16.06l-.05,0s-.06,0-.06,0l-.08,0v-.1S39.73,51.12,39.73,51.12Zm0,.27h0v0h0l0,0Zm-.11.06h0s0,0,0,0a.27.27,0,0,1,0,.08.11.11,0,0,0,0,.09h0c-.07,0-.11,0-.11-.08l0-.18s0,0,0,0,0,0,0-.07,0,0,0,0,0,0,0-.06,0,0,0,0h.06A2,2,0,0,0,39.64,51.45Zm-.18-2h.09v.07l0,0h-.07s0,0,0,0S39.43,49.42,39.46,49.41Zm-.12-.68s0,0,0,0a.14.14,0,0,1-.06.07s-.06,0-.06,0A.08.08,0,0,1,39.34,48.73Zm-.23-.13,0,0s0,0,0,0l.06,0a.11.11,0,0,1,.09,0Zm-.29-.49s0,0,.06-.07a.6.6,0,0,0,.21-.08V48a.33.33,0,0,0,0,.06c0,.08-.08.13-.18.15s-.13,0-.15-.07Zm-.21.82a.07.07,0,0,1,0,0h.06s0,0,0,0l0,0s0,0,.06,0,0,0,0,0-.1.12-.13.11-.08-.1-.18-.11A.09.09,0,0,0,38.61,48.93Zm-.19-.76v0h0v-.06Zm0,.8h.09l0,0s0,.07-.06.07h-.12A.07.07,0,0,1,38.44,49Zm-.12.74a.17.17,0,0,0,.1-.06h0l0,0v.11l0,0c-.09,0-.14,0-.14-.05s0-.06-.05-.1Zm-.14-.91s0,0,0,0,0,0,0,0h-.09S38.13,48.79,38.18,48.8Zm-.83-2.23h.09v0s0,0,0,0v0l-.1,0a.33.33,0,0,1-.1,0A.35.35,0,0,1,37.35,46.57Zm-.06.25.1,0s0,.05,0,.06,0,0,0,0,0,0-.12.08a.15.15,0,0,1-.06-.09S37.26,46.82,37.29,46.82Zm-.74.64.16,0v.11l-.16,0ZM35,55.08l.09,0h-.08Zm.07.33a0,0,0,0,0,0,0,.23.23,0,0,0,.12,0l.13,0a.08.08,0,0,0,0,.08s0,.07,0,.09a.54.54,0,0,1,0,.08.21.21,0,0,0-.07.13.25.25,0,0,1-.09-.11.89.89,0,0,0-.07-.16A.07.07,0,0,1,35.11,55.41Zm.29.61s0,0-.07,0-.15,0-.12,0a.08.08,0,0,0,.07,0s0,0,.06,0l.09,0S35.41,56,35.4,56Zm.14-.89-.16,0s0,0,0,0v0c0-.06,0-.1.1-.11s.13,0,.14.09Zm.06-7.9s0-.06,0-.12h.09c0,.07,0,.11,0,.11v0S35.6,47.26,35.6,47.23ZM36,52.94l-.05,0s0,0,0-.06,0,0,0,0l.09,0a.11.11,0,0,1,.07.06Zm.38,1.82h-.06v-.06C36.34,54.68,36.36,54.71,36.34,54.76Zm0-1.61v-.07a.34.34,0,0,1,.08-.1l.12,0-.37-3.39s-.06,0-.07,0-.06-.1-.14-.21a.34.34,0,0,0,.15-.14h0l0-.26.66-.25c.48-.17.83-.19,1.08.24a3.17,3.17,0,0,1,.47,1.43.3.3,0,0,1,0-.08c.13,0,.2,0,.2.07s-.08.11-.12.12a.08.08,0,0,1-.08,0s0,0,0,0a8,8,0,0,1,0,1.08,7.25,7.25,0,0,1-.21,1,2,2,0,0,1-1.44,1.46l-.07-.58h0a.15.15,0,0,1-.16-.06A.23.23,0,0,1,36.35,53.15Z"/>
                <polygon class="cls-1" points="13.36 63.8 13.36 63.8 13.36 63.8 13.36 63.8"/>
                <path class="cls-1"
                      d="M15.69,71.94a.81.81,0,0,0,1.3.32,2,2,0,0,0,.56-1s0,0,.48-1.7l.35,3.09a.31.31,0,0,0,.33.25l2.08-.32a.28.28,0,0,0,.23-.33l-1.46-8.15a1.54,1.54,0,0,0-.63-1,1.29,1.29,0,0,0-1-.15l-.62.1a.19.19,0,0,0-.1,0v.07c0,.05,0,.07-.06.09l0,0h0s0,0,0,.06l-.06.18.16,0a11.11,11.11,0,0,0,1.3-.28v.13c-.56.12-1,.22-1.49.3L16,67.9l-1.64-3.38v0a1.27,1.27,0,0,0-.35-.43c-.36.06-.69.1-1,.13l-.06,0-.1,0H12.8s0,0-.05,0a2.22,2.22,0,0,1-.47.09,4,4,0,0,0-.71.11v-.2c.07.07.11.1.11.11s0,0,0,0,0,0,0,0,.08,0,.16,0a.34.34,0,0,1,.36-.12h.21a.21.21,0,0,0,.15-.13l.53,0a1.19,1.19,0,0,0,.38,0l.34-.07a1.23,1.23,0,0,0-.5-.16s.06,0,.06,0,0,0,0,.06l-.09,0a0,0,0,0,1,0,0,0,0,0,0,1,0,0s0,0,0,0a1.26,1.26,0,0,0-.47,0h-.07l0,0h0a0,0,0,0,1,0,0l-1.12.24a.29.29,0,0,0-.24.34l.19,1.48a.41.41,0,0,1,0,.23L12,69l.58,4.66a.29.29,0,0,0,.35.24l2-.39-.67.12a.2.2,0,0,1,.14-.13h.09a.24.24,0,0,0,.09,0l.39-.06a.22.22,0,0,1,.11,0,.31.31,0,0,0,.09-.26L15,71.71h0v-.07s0,0,0,0l-.2-1.43.09.19Zm4.4-1.22s0,0,0,0H20S20.07,70.72,20.09,70.72Zm-1-.17a.08.08,0,0,1,.06,0l.05,0,0,0s0,0,0,0a.09.09,0,0,1-.08,0s0,0,0,0A.1.1,0,0,1,19.09,70.55Zm-1.64-7.23h0l-.05,0c0-.08.16-.15.19-.09v0Zm.59-.25s0,0,0,0h.11l.3,0Zm.54,4.58a.06.06,0,0,1,0,0v0l0,0,0,0c.05,0,.08,0,.09,0Zm.13-1.83h-.08s-.06,0-.08,0,0,0,0,0l0,0C18.67,65.77,18.7,65.79,18.71,65.82Zm-.16-.75s0,0,.05,0l0,.05H18.5a.1.1,0,0,1-.05-.07Zm-.22,3.14h0s0,0,0,0l0,0s0,0,0,0a.09.09,0,0,1,.06-.08Zm-.18-3,.11,0v.08a.33.33,0,0,1-.13.07l-.08,0A.12.12,0,0,0,18.15,65.25Zm-2,4V69.2h.07v0Zm.67,3v0h0v.07ZM16.8,72a0,0,0,0,1,0,0v0Zm.34-.41s-.09,0-.12,0a.07.07,0,0,1,0-.08s.05,0,.07,0l.05,0Zm.14-1.67h0v0s0,0,0,0a.09.09,0,0,0,0,.07.09.09,0,0,1-.07.06.1.1,0,0,1-.11,0,.12.12,0,0,1,0-.07.36.36,0,0,1,.12-.24c.06,0,.1.06.1.09A.08.08,0,0,1,17.28,69.94Zm0-.91v0l-.12,0v0ZM17,68.56c.07,0,.12,0,.13,0s0,0,0,0l0,0v0l-.09,0a.19.19,0,0,1-.1,0,0,0,0,0,0,0,0A.19.19,0,0,1,17,68.56Zm-.2,1,.09,0h0s0,0,0,0,0,0,0,.07l-.07,0a.1.1,0,0,1-.1-.07A.16.16,0,0,1,16.84,69.54Zm-.08.35s.1,0,.16.09c-.1,0-.16,0-.17,0h-.06l-.05,0A.4.4,0,0,1,16.76,69.89Zm-.1.31h0s0,0-.05,0h0v-.06S16.66,70.17,16.66,70.2Zm-.07,1.29a.33.33,0,0,0,.21,0l0,.09,0,0a.11.11,0,0,1-.08,0l-.07,0-.17,0s0-.06.06-.07Zm-.13-1s0,0,0,0,0,0,0,0Zm0-.79h-.05l-.05,0-.06-.08a.16.16,0,0,0,.14,0l0,0,.05,0Zm-.16-.74.16-.07s.06.08,0,.11h0s0,0-.06,0-.06,0-.12,0l-.05,0Zm-.13-.72a.12.12,0,0,1,0,0h0s0,0,0,0l0,0-.11,0s0,0,0,0a.19.19,0,0,1,0-.07Zm-.13.45s0,.07,0,.08h0l0,0-.06,0Zm-4.41-3.92,0,0-.07,0Zm0,.27,0-.1,0,.09Zm.9,4.68h0l0-.13h0Zm-.25-1.2.05,0v0Zm.14.81h0l0,.17h0Zm.06.67s0,0,0,0l0,.1C12.43,70,12.41,70,12.45,70Zm.06.08.09.45a.18.18,0,0,1-.11-.19.2.2,0,0,0,0-.11.22.22,0,0,0-.05-.08A.11.11,0,0,0,12.51,70ZM13,73.74s0-.11-.06-.18a.75.75,0,0,1,0-.15.48.48,0,0,1,0-.17,1.48,1.48,0,0,0,0-.37c0-.13-.06-.23-.09-.33s-.08-.19-.11-.3-.07-.21-.11-.36l-.13-.58s0,0,0,0l.07-.07a.33.33,0,0,0,0-.2l-.07-.4h.13l.08,1,.11.87.27,1Zm1.08-1a.21.21,0,0,1-.15,0,.27.27,0,0,1,.1-.06s0,0,0,0v0S14.1,72.75,14.1,72.76Zm0-7,.1,0v0h-.1Zm.11,6.51s-.06,0-.06,0v0s0,0,0,0l.08,0h0v0S14.28,72.27,14.25,72.29Zm.16-5.94h-.05v0s0,0,0,0,0,0,.11,0Zm.1-.7-.12,0a.45.45,0,0,1,.06-.09s0,0,.05-.07v.07A.16.16,0,0,1,14.51,65.65ZM15,72.88h0a.08.08,0,0,0,0,0A.46.46,0,0,1,15,73V73l0,0h0c-.07,0-.11,0-.1,0S15,73,15,73v0S15,72.89,15,72.88Zm-.2-.94c.07,0,.08,0,.08,0s0,.07,0,.08-.12,0-.13,0S14.78,72,14.82,71.94Z"/>
                <path class="cls-1"
                      d="M21.9,72.27,24,71.94a.28.28,0,0,0,.25-.26l.08-1.37,2.08-.8.45,1.72a.26.26,0,0,0,.33.2l2.15-.37a.29.29,0,0,0,.22-.39l-2.1-5.79c-.25-.66-.57-1.4-.62-1.51-.14-.3-.3-.64-.47-.93a1.41,1.41,0,0,0-1.27-.79,2.84,2.84,0,0,0-.82.16c-.32.09-.63.22-.93.33a.34.34,0,0,0-.18.21c-.27,1.15-.54,2.31-.78,3.47-.17.85-.33,1.72-.44,2.59-.15,1.17-.3,2.37-.4,3.53A.3.3,0,0,0,21.9,72.27ZM26.19,68v0h.05v0Zm0-.69v0h0v.06ZM26.4,69V69h.05V69Zm.06-1.55s0,0,0,0l-.11,0s0,0,0,0l0,0a.2.2,0,0,1,.08,0S26.47,67.45,26.46,67.47Zm-.1-.3s-.06,0-.08,0l-.06-.06a.22.22,0,0,1,.12,0l.21,0s0,.08-.09.09A.33.33,0,0,1,26.36,67.17Zm.1-.13-.08,0v-.06l.1,0v0a.11.11,0,0,1,0,0h-.06Zm.12.8v.07h-.05l0-.07Zm0,.44.07-.1s0,0,.05,0a.16.16,0,0,1,.06,0s0,.08-.08.13a.34.34,0,0,1-.15,0A.25.25,0,0,0,26.58,68.28Zm0,.71.2,0v0l-.15,0S26.61,69,26.56,69Zm.16.68v-.06l.1,0v.06Zm.05-1,.08,0,0,.12C26.81,68.74,26.78,68.72,26.77,68.66Zm.13,1.27,0-.1.08,0,.09,0ZM27,68.61l-.07,0v0H27ZM27,67.51s0,0,0,0a.07.07,0,0,0,0,0l.06,0h0ZM27,69.73v0c.06,0,.09,0,.1,0ZM27.55,71v0a.7.7,0,0,1-.19-.16l.14,0a.33.33,0,0,0,.07.13S27.55,71,27.55,71ZM28,68.69v0H28v0Zm0,.14L28,69l-.06,0c-.09,0-.13,0-.12.1l0,.14,0,0a.75.75,0,0,0,.09-.09l.09-.1c.07.09.08.16.06.18s0,0,0,.07l.06.09a.29.29,0,0,1,.09.29s0,.08.13.11-.06.08-.05.11,0,0,0,.07l.07.06.12.33a2.53,2.53,0,0,0,.11.33s0,0-.06,0-.17-.09-.17-.13v0a.06.06,0,0,0,0,0,.2.2,0,0,1-.12-.1,1,1,0,0,0,0-.13s0,0-.05,0l0,0a.11.11,0,0,1-.05,0l-.05,0h0l0-.2H28s0,0-.07,0a.51.51,0,0,1-.17,0c.14-.09-.13-.13-.19-.15l0-.13a.11.11,0,0,1,0-.06,0,0,0,0,0,0,0l0,0s0,0,0,0-.05,0-.09,0,0,0,0-.1,0-.08.11-.1a.12.12,0,0,0,.1,0s0,0,0,0l-.07,0s0-.06,0-.1l-.06,0,0,0c0-.08.16-.19.25-.2A1,1,0,0,1,28,68.83Zm-.42-1.17h0l-.09,0v0Zm-.1.94s.05,0,.06-.07a.24.24,0,0,0,0,.13l.06,0a0,0,0,0,1,.05,0c-.06,0-.08,0-.09,0s0,0-.08,0-.14-.08-.15-.11Zm-.06.85s0,0,0,0,0,0,0,.05l-.05,0s0,0,0-.05Zm-.26.88,0,0,.07,0a.16.16,0,0,1,.07.07Zm0-3.55a.2.2,0,0,0-.07.1s0,.05-.11.07.12.07.16.06a.13.13,0,0,1,.11.06l0,0-.2,0c-.11-.13-.16-.18-.17-.22s0,0,.13-.16l.15,0S27.11,66.73,27.13,66.78Zm-.23-.23a.14.14,0,0,1,.12,0,.23.23,0,0,1-.22,0v-.07Zm-.06-.24s0,.06-.06.07Zm-.05.11h0l0,0s0,0-.08,0v0S26.77,66.43,26.79,66.42Zm.08,1.16a.22.22,0,0,0,.05.08.15.15,0,0,0,0,.09l-.14,0,0-.09c0-.06-.07-.1-.12-.11s0,0-.05,0A.35.35,0,0,1,26.87,67.58ZM26.71,67a.47.47,0,0,1,0,.16L26.62,67h.05S26.7,67,26.71,67Zm-.08-.45s0,0,0,0,0,0,0,0h.08Zm0-.72v0l-.09,0v0Zm-.09,1h.05v.07h-.16a.11.11,0,0,1,.06-.1ZM26.48,65H26.4l0,0a.18.18,0,0,1,0,0A.07.07,0,0,1,26.48,65Zm-.1-.25v0l-.1,0v0Zm-.05,1h0v0l-.08,0v-.06Zm-.11.79a.18.18,0,0,1,.2.12h0v0l-.13,0c-.05,0,0-.06,0-.1l-.09,0C26.18,66.57,26.19,66.54,26.22,66.52Zm0,1.21v0h0v-.06ZM23.2,71s-.07,0-.08,0,0-.06.06-.07.09,0,.11,0Zm.67-.21a.11.11,0,0,0-.06,0l-.06,0a.06.06,0,0,0,.05,0h0s0,0,0,0l0,0S23.9,70.73,23.87,70.75Zm.29-1.45v-.07l.16,0v.07Zm1.54-1.1v0h.07v0Zm.05-4.8a.11.11,0,0,1-.08,0s0-.07,0-.07a.24.24,0,0,1,.14,0s0,0,0,0,0,0,0,.05Zm0,3.14h.06l0,0-.09,0Zm.06,2.63,0,0,0,0,0,0Zm0-2.2v0l.11,0v0Zm.24,1.36,0,0H26a.2.2,0,0,1,.09-.06A.08.08,0,0,1,26.11,68.33Zm-.06-3.06-.05,0,0,0,0,0ZM26,63.79s.05,0,.06-.06a.08.08,0,0,1,.09.06s0,.05-.05.07l-.09,0,0,0S26,63.79,26,63.79ZM26,66s-.05,0-.08,0Zm-.33-3.07.12,0,0,0s0,.06.08.08l-.05,0-.18,0,0,0C25.63,63,25.65,62.94,25.7,62.93Zm-.15-.14s0,0,0,0,0,.05,0,.06h-.05s0,0,0,0V62.8Zm-.14.08v0l0,0v0Zm-.07-.37,0,.12h0l0-.12Zm0,.26a.21.21,0,0,1,0,.12l-.05,0v-.08S25.26,62.77,25.3,62.76Zm0,3.36c.08.23.15.45.22.67l.2.67-1.06.22.3-2.42C25.08,65.55,25.19,65.84,25.3,66.12Zm-.64-.6,0-.13h0l0,.12Zm.14-1.83a.07.07,0,0,1,.05,0,.12.12,0,0,1,0,.08s0,0-.06,0h-.07l0-.06Zm0,1.34a.08.08,0,0,1,0,0,0,0,0,0,1,0,0l0,.12c-.1.08-.15.07-.21,0A.2.2,0,0,1,24.77,65Zm-.19-1.42h0v0h0ZM24,64.82h.07s0,0-.05,0,0,0,0,0v0S24,64.82,24,64.82Zm0,3a.54.54,0,0,0,0-.21.31.31,0,0,1,0-.14.45.45,0,0,1,.08-.27.51.51,0,0,0,.09-.25,1.53,1.53,0,0,1,0-.21c0-.2.06-.36,0-.34a.19.19,0,0,1,0-.1.06.06,0,0,0,0-.07s0,0,0-.11a1.7,1.7,0,0,0,0-.27s0,0,.06-.06l.06-.07h.08a3.06,3.06,0,0,0-.09.33.45.45,0,0,1,0,.11.51.51,0,0,1-.12.23l0,.17c-.05.22-.12.69-.12.66l0,.16a.31.31,0,0,0-.07.15.57.57,0,0,0-.06.24.87.87,0,0,1,0,.26s0,0,0,0a.06.06,0,0,1-.07,0s0,0,0-.09A.65.65,0,0,1,24,67.83Zm0,1.63a.2.2,0,0,0,0,.08l0,.08-.15,0s0,0,0,0a.19.19,0,0,1-.21-.11.14.14,0,0,1,.13-.14Zm-.25-2a.19.19,0,0,1,0,.12.1.1,0,0,1-.06-.08.62.62,0,0,1,0-.13h.06Zm-.06-4.34h0a.38.38,0,0,0,0,.19l0-.19ZM23.57,70l0,0h0a.19.19,0,0,1,0-.08S23.59,70,23.57,70Zm0-7.55v.09h-.05l0-.09Zm0,8.45s0,0-.05.06l-.1,0s0,0,.08-.08A.11.11,0,0,1,23.52,70.91Zm-.14-.52v.06l-.09,0s-.05,0-.05.07,0,0,0,0-.14-.08-.14-.09a.24.24,0,0,0,.2-.17l.07,0Zm-.22-.16,0,0q.09,0,.09,0v.07l0,0-.11,0v-.06Zm0-5,0,.17h-.06l0-.15ZM23,64.83a.62.62,0,0,1,0,.23s-.11-.11-.11-.14S23,64.8,23,64.83Zm-.09,5.06,0,0v0C22.92,69.84,22.94,69.85,22.91,69.89Z"/>
                <path class="cls-1"
                      d="M30.49,70.86,32,70.6a9.2,9.2,0,0,0,1-.22,4,4,0,0,0,2-1.31,6.31,6.31,0,0,0,1.3-3.4,7.28,7.28,0,0,0-.66-3.78,2.86,2.86,0,0,0-2.78-1.61,6.61,6.61,0,0,0-2.09.52l-1.37.59a.28.28,0,0,0-.18.31l1,8.91A.29.29,0,0,0,30.49,70.86Zm.39-.71-.07,0s-.15,0-.12,0a.09.09,0,0,0,.07,0,.1.1,0,0,1,.07,0h.09S30.89,70.13,30.88,70.15Zm.88-1.27v-.06c.07,0,.09,0,.07.06A.06.06,0,0,1,31.76,68.88Zm1.45.72h-.05l0,0a0,0,0,0,1,0,0s0,0,0,0ZM34,64.18a.11.11,0,0,1-.06,0,0,0,0,0,0,0,0h0a.15.15,0,0,1,.16.06s0,0,0,.06,0,0,0,0l.12,0s0,0,0,.06h0s0,0-.06,0-.18-.12-.18-.15,0,0,0,0,0,0,0,0S34,64.18,34,64.18Zm.27-.34a.14.14,0,0,1,0-.08h.11v0l0,.07Q34.3,63.93,34.29,63.84Zm0,2.78s0,0-.05,0V66.6h.08A0,0,0,0,1,34.27,66.62Zm0-1.58h0l0,0h.07s0,0,0,0a.05.05,0,0,1,0,0Zm.07,1.53,0,0s0,0,0,0S34.38,66.57,34.38,66.57Zm0-1.75a.14.14,0,0,1,0-.09l0,0h.06s0,0,0,0v.06l0,0h-.08Zm.08,1.25,0,0v0l0,0,0,0,.07,0A.23.23,0,0,1,34.49,66.07Zm.17-1.21a.09.09,0,0,1,0,.1l-.07-.06,0,0Zm0-.45a.23.23,0,0,1,.11,0s0,0,0,0v0l-.08,0a0,0,0,0,1,0,0S34.66,64.44,34.64,64.41Zm-.06.2h0Zm0,.58.08,0h0s0,0,0,0h0v0h0l0,0h0S34.57,65.22,34.57,65.19Zm.17,1.08s-.1,0-.11,0,0-.1,0-.12,0,0,.08,0a.29.29,0,0,0,.1,0A.12.12,0,0,0,34.74,66.27Zm0-.41,0,0s0,0,0,0a.06.06,0,0,1,0,0,0,0,0,0,0,0,0l0,0a.08.08,0,0,1,.08,0s0,0,0,0h.06s0,0,0,0,0,0,0,0Zm.14-.68s-.15,0-.15,0,0,0,0-.07a.11.11,0,0,1,0-.06h.06l0,0a0,0,0,0,0,0,0v0Zm-.08-2.08a.11.11,0,0,1,0-.07l0,0v.06C34.81,63.15,34.8,63.13,34.79,63.1ZM35,66.69c-.08,0-.12,0-.13-.06a.09.09,0,0,1,0-.07l.12,0a.07.07,0,0,1,.05,0l0,0v0A.25.25,0,0,1,35,66.69Zm.13-.8,0-.08h0v.09Zm.11,1.17s0,0,0,0v0h.08v.06Zm.25-2.17a0,0,0,0,1,.05,0s-.07,0-.07,0Zm-.25-1.15h.07v0s-.06,0-.1,0Zm0,1.51h0c.1,0,.15,0,.16.06l0,0-.06,0s0,0-.07,0l0-.1S35.21,65.25,35.21,65.25Zm0,.26a0,0,0,0,0,0,0v0h0l0,0Zm-.11.06s0,0,0,0,0,0,0,0a.16.16,0,0,1,0,.08.13.13,0,0,0,0,.09h0c-.08,0-.11,0-.12-.08l0-.19s0,0,0,0,0,0,0-.06,0,0,0,0l0-.07.06,0h0s0,0,0,0h0C35,65.34,35.06,65.42,35.12,65.57Zm-.18-2s.07,0,.09,0v.08l0,0h-.07l0,0A0,0,0,0,1,34.94,63.54Zm-.12-.69s0,0,0,0a.2.2,0,0,1-.06.07,0,0,0,0,1-.06,0A.12.12,0,0,1,34.82,62.85Zm-.23-.12,0,0,0,0,0,0a.1.1,0,0,1,.09,0Zm-.29-.49.07-.07a.56.56,0,0,0,.2-.08v.07a.11.11,0,0,0,0,.05c0,.09-.08.13-.18.15s-.13,0-.14-.06Zm-.21.81a.1.1,0,0,1,0,0h.06s0,0,0,0l0,0s0,0,.06,0,0,0,0,0-.1.12-.13.11-.08-.11-.18-.12S34.1,63.07,34.09,63.05Zm-.19-.76v.06h0V62.3Zm0,.81.09,0,0,0s0,.07-.06.07l-.08,0h0a0,0,0,0,0,0,0A.05.05,0,0,1,33.92,63.1Zm-.12.74a.17.17,0,0,0,.1-.06h0l0,0,0,.12,0,0c-.09,0-.14,0-.14-.05s0,0,0-.09Zm-.14-.92h0s0,0,0,0l-.09,0S33.61,62.92,33.66,62.92Zm-.83-2.22h.09v0s0,0,0,0v0h-.1a.16.16,0,0,1-.1,0A.28.28,0,0,1,32.83,60.7Zm-.06.25.1,0s0,0,0,0l0,.06-.12.08a.17.17,0,0,1-.06-.1S32.74,61,32.77,61Zm-.74.64.16,0v.12H32ZM31.58,63c.19-.07.41-.16.66-.24.48-.18.83-.19,1.08.23a3.22,3.22,0,0,1,.47,1.43.3.3,0,0,1,.05-.08c.13,0,.2,0,.2.07s-.08.12-.12.12a.08.08,0,0,1-.08,0s0,0-.05,0a7.81,7.81,0,0,1,0,1.07,6.66,6.66,0,0,1-.21,1A2,2,0,0,1,32.12,68l-.07-.59h0a.13.13,0,0,1-.16-.06.19.19,0,0,1-.05-.09v-.07s0,0,.09-.11l.11,0-.37-3.38s-.06,0-.07-.05-.06-.11-.14-.21a.34.34,0,0,0,.15-.14h0Zm-.21,4h.09a.11.11,0,0,1,.07.06l-.09,0s0,0-.05,0,0,0,0,0S31.35,67,31.37,67Zm-.27-5.75.09,0c0,.07,0,.12,0,.12v0s-.11,0-.12,0S31.08,61.3,31.1,61.24Zm-.16,7.9a.15.15,0,0,1,.15.09.13.13,0,0,0-.07,0l-.16,0s0,0,0,0v0S30.87,69.15,30.94,69.14Zm-.25.35.13,0s0,0,0,.08l0,.08a.2.2,0,0,1,0,.08.28.28,0,0,0-.07.13.22.22,0,0,1-.09-.1.64.64,0,0,0-.07-.16.08.08,0,0,1,0,0l0,0Zm-.08-.27v0h-.07v0Zm-.39-7.68,0,0a.24.24,0,0,1,.16,0,.7.7,0,0,1-.19,0v0s0,0,0,0v0Zm-.4,3.12s0,0,0,0,0,0,0,0l-.06-1.28s.11.13.1.17a2.28,2.28,0,0,1,0,.31.53.53,0,0,1,0,.15c0,.16,0,.32,0,.39l0,.1S29.84,64.61,29.82,64.66Zm.06-3.17,0,0h0l0,0Zm.18,4.36a.65.65,0,0,1,.19.09.1.1,0,0,1-.09,0l-.08,0ZM30.12,68h0s0,0,0,0v0S30.06,68,30.12,68Z"/>
                <path class="cls-1"
                      d="M37.54,69.32a.29.29,0,0,0,.35.25l6-1.36a.26.26,0,0,0,.22-.33l-.31-1.79a.3.3,0,0,0-.35-.24l-3.79.78-.14-1.2,3.05-1a.28.28,0,0,0,.2-.33l-.26-1.48a.31.31,0,0,0-.35-.24l.24,1.4H42.3l-.25-1.4-2.91.67-.1-1.2,3.85-1.1c.17,0,.23-.15.22-.33l-.26-1.7a.3.3,0,0,0-.36-.25l-5.81,1.3c-.17,0-.24.13-.24.3.11,1.6.26,3.19.46,4.78S37.31,67.93,37.54,69.32ZM42.35,63h-.08l0-.14.07-.07a.22.22,0,0,1,.12,0l0,.12,0,.08Zm.06,1,.05.1a.39.39,0,0,1,0,.06.38.38,0,0,0,0,.08l-.06-.36C42.37,63.93,42.39,64,42.41,64Zm-2.94-3.36a0,0,0,0,1,0,0h-.06l-.08,0c0-.06,0-.08.06-.08a.26.26,0,0,1,.14,0Zm.29.11-.1,0,0,0a0,0,0,0,1,0-.06v0h0s0,0,0,0,.07,0,.08,0S39.79,60.72,39.76,60.73Zm.05.65v0h0v.05Zm2-1v-.08h0l0,.07Zm0-1.14v0h0v0Zm-1.11.3v.06l-.12,0v-.06Zm-.36.82,0,0s0,0,0,0l-.17,0S40.33,60.36,40.39,60.32Zm-.23.25s-.06,0-.07,0l-.08,0,0-.07.06,0a.06.06,0,0,0,0,0A.11.11,0,0,1,40.16,60.57Zm-.1-.38v.05h0v0ZM40,59.73v0h0v0Zm-.22.67c.06,0,.08.06.08.07l-.11,0Zm-.13-.83c.06,0,.09,0,.09,0s0,0,0,.07a.06.06,0,0,0,0,.06v-.06s0,0-.1-.06l-.07,0A.14.14,0,0,1,39.66,59.57Zm-.24-.09a0,0,0,0,0,0,0C39.41,59.51,39.4,59.5,39.42,59.48Zm-.06.72h0s0,0,0,0h0l.06,0-.06.08h0s0,0,.08.05l0,0h0l-.17,0,0,0A.23.23,0,0,1,39.36,60.2Zm-.18.19,0,.08h-.09s0,0-.06,0S39.12,60.43,39.18,60.39Zm-.12-.54s.06,0,0,0-.05,0-.05.07S39.05,59.85,39.06,59.85ZM38,68.47l-.15,0v-.08l.18,0A.09.09,0,0,0,38,68.47Zm.46,0,.16,0v0l-.15,0Zm.62-4.06a.28.28,0,0,1-.13,0s0,0-.06.06l0,0,0,0A.76.76,0,0,0,39.06,64.4ZM39,64.07s0,0,0,0h0l0,0,0,0S39,64.1,39,64.07Zm.38,1.08h-.09l0-.06S39.35,65.12,39.35,65.15ZM39.29,65l0-.05h.09s0,0,0,0Zm0,.19,0,0,0,0-.1,0-.09,0-.09,0,0,0,0,0Zm-.1.19,0,0-.07,0v-.06Zm-.22.39v-.06s0,0,0,0l0,0s0,0,0,.06,0,0,0,.07Zm0,.08h0v-.06h0Zm0-.27-.16,0,0,0,.16,0S39.08,65.62,39.07,65.62Zm-.1-.16a.24.24,0,0,1,.12,0,.14.14,0,0,1-.09,0Zm.15.39.07,0v0l0,0-.09,0s0,0,0,0,0,0,0,0ZM39,65.33v0s0-.06.06-.07l0,.08Zm0-.17H39a.21.21,0,0,1-.13,0l0-.07s0-.15.08-.16H39l.06,0,0,.19Zm-.17.06h.07s0,0,0,0l0,.07h-.13S38.81,65.27,38.85,65.22Zm-.05.49-.08,0,.1,0a.78.78,0,0,0,.08.1S38.82,65.74,38.8,65.71Zm.06.83s0,0,0,0v0l-.07,0S38.82,66.55,38.86,66.54Zm-.13-1.68a.3.3,0,0,1,0-.06s0,0,0-.07a.15.15,0,0,1,.08.08A.12.12,0,0,1,38.73,64.86Zm0-.16h0l0,0h.05S38.73,64.73,38.7,64.7Zm0-2.38,0,0,0,0s0,.06,0,.08Zm0-.7h0s0,0,0,0,0,0,0,0Zm0,3.39,0,.06a.16.16,0,0,1-.1,0A.37.37,0,0,1,38.68,65Zm0,.8v0s0,0,0,0h-.09a.09.09,0,0,1,0,0A.17.17,0,0,1,38.66,65.81Zm0,.62s0,0,0,0,0,0-.07,0l0-.06.07,0Zm-.15-1.19s0,0,.06-.06,0,0,0,0Zm.09.92a.1.1,0,0,1-.06.09.07.07,0,0,1,0-.08Zm0,2.92v0l.12,0v0Zm.24-.3a.14.14,0,0,1,0,.07.73.73,0,0,0-.2,0l0-.13.24,0A.23.23,0,0,1,38.82,68.78Zm-.07-.44v-.06l.15,0v.06Zm.13-2.11h-.05v-.06h0s0,0,0,0h0l0,.07Zm0,.18H39v0h-.06ZM39,67.69l0-.08.09,0-.05.07S39,67.68,39,67.69Zm.14,1a.67.67,0,0,0-.1-.29.21.21,0,0,1,.1-.06A.26.26,0,0,1,39.13,68.71Zm0-.69V68l.11,0,0,.07ZM39.24,66l.09,0V66l-.09,0Zm.1,1.63c-.05,0-.08,0-.08,0l.08,0s0,0,0,0Zm0-1.87v-.06h.07S39.39,65.71,39.35,65.72ZM39.22,65l-.09,0-.08,0s0,0,.07-.07l.09-.06-.05,0a0,0,0,0,1,0,0h.08s0,0,.06.08,0,0,0,0,0,0,0,0h.07l0,.11C39.25,65,39.25,65,39.22,65Zm1,2.18,0,0v0h0s0,0,0,0S40.25,67.12,40.21,67.14Zm.68,1a.41.41,0,0,0,0,.07l-.2,0a.14.14,0,0,1,0-.07.4.4,0,0,1,0-.11l.17,0,.08,0A.06.06,0,0,1,40.89,68.15Zm2.36.08s0,0,0,0h.06A.16.16,0,0,1,43.25,68.23Zm-.07-.75.15,0v0h-.18Zm-1.62-.76h0v0h0Zm0,1.57-.1,0v0l.09,0Zm0-1v0l0,0a.07.07,0,0,1-.09,0Zm-.5-.37,0,0h0L41,67ZM41,67a0,0,0,0,1,0,0,.06.06,0,0,0,0,0H40.9S40.92,67.06,41,67Zm-.1.35h0v0h0Zm-.14-.54a.07.07,0,0,0,.05-.06l0,.07a.1.1,0,0,0,0,0s0,0,0,0h-.07a.08.08,0,0,0-.05,0Zm0,.21s0,0,0,0,0,0,0,0a0,0,0,0,1,0,0l0-.1Zm-.26.46,0,0v0h0l0,0ZM40.33,67l-.09,0v0h.09Zm-.07-.09v0l-.11,0v0Zm-.24.59,0,0h0l0,0Zm-.06.66v.07l-.11,0,0-.08Zm-.42.44.08,0,.15,0-.06.07-.12.14a.29.29,0,0,0-.12-.1ZM42,64.48v0l-.17,0v0Zm-1.7-1.19h.06l0,.09-.06,0Zm0-.11h0Zm-.09,0h0Zm-.13.6-.11,0a.06.06,0,0,0,0,0V63.7l.12,0v.06S40.11,63.77,40.08,63.78Zm0-.16-.1,0,0,0,0,0,.06,0ZM40,63.34a.06.06,0,0,1,0,.1l-.08,0Zm-.53.26,0-.09C39.53,63.54,39.53,63.57,39.48,63.6Zm-.16.1s0,0,0,0l0,0a.14.14,0,0,0,.09,0v.07h0v0s-.06,0-.07,0l-.07-.05Zm0,.88,0,0s-.06,0-.09,0-.09,0-.12,0Zm-.16-.08c0,.09-.08.15,0,.2l-.12.06s0-.06,0-.11l-.14,0,.1-.07a.18.18,0,0,1,.08,0h.06A.06.06,0,0,0,39.15,64.5ZM39.09,63v.07l-.07,0v-.07ZM39,63.3h.13l0,.1a.07.07,0,0,1,0,0c-.08,0-.12,0-.13-.05S39,63.32,39,63.3Zm.06.49h.08v0h0c-.06,0-.1,0-.14,0a.06.06,0,0,1,0,0Zm-.15.51s0,0,.06,0,0,0-.09.05l-.08,0a.14.14,0,0,1,0-.1h.09Zm0-1.74h-.06v0h.06Zm-.22-2.73h0l.2,0v0l-.19,0h0l-.1,0S38.58,59.85,38.62,59.83Zm-.12-.32v0h0v-.05Zm0,5s0,0,0,0,0,0,0,0l-.06,0-.05,0a.09.09,0,0,1,0-.07Zm-.09-4.64v0h0v0Zm-.17,8.84h0v.06h0v0l-.12,0v-.06l.12,0Zm-.14-8.82v0l-.3.05v0Zm-.22.46s0,0,0,0a.08.08,0,0,0,0,0l-.06,0v0a.08.08,0,0,1,0-.06Zm0,8.37s-.13.09-.17,0Zm-.77-7.67h0v0h0Z"/>
                <path class="cls-1"
                      d="M55.84,46a4.72,4.72,0,0,1-.61.37c-.48.25-.78.06-.81-.48,0-.1,0-.2,0-.28s-.3-.14-.39-.1-.23.21-.34.32c.37.35.26.73.06,1.11,0,0,0,.1.09.25.08-.23.13-.37.22-.6l.33.51c.19.26.56.27.65,0,.23-.69.75-.83,1.45-.82C56.35,45.83,56.18,45.72,55.84,46Z"/>
                <path class="cls-1"
                      d="M56.92,33.42a3.23,3.23,0,0,0,.84-2.11c-.38.29-.87.31-1,.84a9.49,9.49,0,0,1-.3,1c0,.09,0,.28.07.3A.39.39,0,0,0,56.92,33.42Z"/>
                <path class="cls-1"
                      d="M60.9,40.88l.92-.54c-.17-.2-.17-.2.37-.92-.18-.27-.4-.5-.63-.09s-.6.57-1.09.29l.47.91C60.93,40.65,60.91,40.77,60.9,40.88Z"/>
                <path class="cls-1"
                      d="M64.64,41.24c.32-.06.73-.81.68-1.14a1.25,1.25,0,0,1,.11-.52,1.66,1.66,0,0,1,.24-.3l-.15-.12-.82,1c-.08.23-.18.53-.28.84a.18.18,0,0,0,0,.16A.23.23,0,0,0,64.64,41.24Z"/>
                <path class="cls-1" d="M64.12,41.23,63,41.52l0,.11,1.22.23C63.67,41.67,64.18,41.35,64.12,41.23Z"/>
                <path class="cls-1" d="M54.11,39.32l-.08.13.3.9c.17-.27.39-.51.35-.57A2.61,2.61,0,0,0,54.11,39.32Z"/>
                <path class="cls-1" d="M60,42.18l-1.29-.53-.09.24,1.31.48A1.46,1.46,0,0,0,60,42.18Z"/>
                <path class="cls-1" d="M55.94,41l.14-.14-.82-.74-.14.14C55.27,40.65,55.63,40.81,55.94,41Z"/>
                <path class="cls-1" d="M55.07,37.13s0-.24,0-.34l-.93.51C54.52,37.7,54.77,37.24,55.07,37.13Z"/>
                <path class="cls-1" d="M53.5,49.32h.18l.12-1.53h-.19C53.57,48.31,53.54,48.81,53.5,49.32Z"/>
                <path class="cls-1" d="M66,37.63l-.06-1.2h-.16l.09,1.21Z"/>
                <path class="cls-1"
                      d="M2.23,38.42c-.18.13-.38.24-.57.35-.46.23-.75.06-.78-.46,0-.09,0-.18,0-.26S.58,37.91.49,38s-.22.2-.32.3c.35.34.24.7,0,1.06,0,0,0,.1.08.24.09-.22.13-.35.22-.57l.31.48c.18.26.53.26.62,0,.22-.65.72-.79,1.38-.78C2.72,38.3,2.55,38.18,2.23,38.42Z"/>
                <path class="cls-1" d="M9,34.18l0,.11,1.16.22c-.47-.18,0-.49,0-.6Z"/>
                <path class="cls-1"
                      d="M1.13,32.52a3.34,3.34,0,0,0-.54-.44.83.83,0,0,0-.08.12c.07.23.15.46.28.86C1,32.81,1.16,32.57,1.13,32.52Z"/>
                <path class="cls-1"
                      d="M2.53,43.77s0,.16,0,.24.16.33.27.56c.08-.09.22-.19.2-.26a2,2,0,0,0-.25-.6A.35.35,0,0,0,2.53,43.77Z"/>
                <path class="cls-1" d="M2.33,33.71l.13-.14-.78-.71L1.55,33C1.69,33.35,2,33.51,2.33,33.71Z"/>
                <path class="cls-1" d="M1.5,30s0-.23,0-.34l-.89.49C1,30.54,1.21,30.09,1.5,30Z"/>
                <path class="cls-1" d="M0,41.62l.17,0c0-.49.07-1,.11-1.47H.11C.07,40.66,0,41.14,0,41.62Z"/>
                <path class="cls-1"
                      d="M17.78,48.68c-.14.24-.29.19-.48.06s-.29-.15-.44-.23l-.06.11,1,.8c.11-.17.18-.31.27-.43.19-.28.39-.55.58-.81.07-.09.12-.21.21-.24a.89.89,0,0,1,1.17.52c.14-.1.35-.18.4-.31a1.13,1.13,0,0,0-.05-.57,1.34,1.34,0,0,0-.16-.37l-.11,0c0,.21,0,.42,0,.61-.52.11-.53-.78-1-.39-.27.21-.85,0-.79.75L18,47.76l-.12.05c.08.15.16.29.23.45a.5.5,0,0,1,0,.27s-.13,0-.19.07S17.8,48.63,17.78,48.68Z"/>
                <path class="cls-1"
                      d="M26.64,41.87A2.89,2.89,0,0,0,27.37,40c-.34.25-.76.27-.84.73-.05.3-.19.58-.26.88,0,.08,0,.24.05.26A.44.44,0,0,0,26.64,41.87Z"/>
                <path class="cls-1"
                      d="M24.1,47.14l.26.79c.15-.23.34-.45.31-.49a2.18,2.18,0,0,0-.49-.41A1,1,0,0,1,24.1,47.14Z"/>
                <path class="cls-1" d="M25.77,48.52l.13-.12-.72-.65-.12.12C25.18,48.2,25.5,48.34,25.77,48.52Z"/>
                <path class="cls-1" d="M25,44.81l-.81.45c.35.36.57,0,.83-.14C25,45.11,25,44.91,25,44.81Z"/>
                <path class="cls-1" d="M34.51,44.5h-.14l.09,1.06h.1C34.55,45.2,34.53,44.85,34.51,44.5Z"/>
                <path class="cls-1" d="M39,29.71a3.32,3.32,0,0,1-.44.06l.43,0Z"/>
                <path class="cls-1"
                      d="M39.7,29.84l.46,0-.06.54-.59.06c-.36,1.19-.72,2.39-1.1,3.57.05-.46.12-.93.18-1.41l.12-.9c0-.4.11-.8.16-1.21a2.87,2.87,0,0,1-1.71-.32l.06-.52.46,0a5.39,5.39,0,0,0-2.8-.19l0,.3a2.61,2.61,0,0,1,.57.08c.17,0,.11.93.19,1.76l-.92-.61a1,1,0,0,0,0,.17l-.12.86a23.32,23.32,0,0,0-.31,4.14v.14c0,1.18.15,4,2.56,4.55a3,3,0,0,0,.73.09c2.26,0,3.66-2.35,4.08-3.59C43,33.28,44.22,29.05,45.39,25l.38-1.31c.34-1.16.63-2.33.93-3.5s.64-2.52,1-3.74a4.06,4.06,0,0,1,.71-1.67,4.2,4.2,0,0,1,1.45-.81,2.36,2.36,0,0,1,.65.84,8.65,8.65,0,0,1,0,2.35c.06,2,.1,2,.73,2.12l-1,2.66-.48-.78q-.62,2.79-1.25,5.53l2-.59c0,.17.11.35.17.53l-2.38.78-.27,1.19c-.82,3.56-1.67,7.25-2.44,10.89-.25,1.21-.47,2.43-.67,3.64,1,1,1.85.88,2.43-.41a11.37,11.37,0,0,0,.67-1.76,2,2,0,0,1,.29-.63,1,1,0,0,1,1,.57,3.09,3.09,0,0,0-1.16,3.68c.27.75-.52,1.35-1.35,1.1-.44-.13-.88-.29-1.52-.51.2.62.31,1,.51,1.61-.35-.21-.57-.27-.59-.37a3.75,3.75,0,0,0-.53-1.44c-.26,1.75-.5,3.5-.72,5.22l0,.11c-.21,1.64-.66,5.05,2.63,7a5.69,5.69,0,0,0,3,.85,7.11,7.11,0,0,0,4.57-1.9,39.14,39.14,0,0,0,3.45-3.35c.25-.27.5-.52.75-.78a1.81,1.81,0,0,0,.27.06L58.39,52c.43-.44.85-.87,1.29-1.28l.88-.85a19.57,19.57,0,0,1,3.86-3.16,5,5,0,0,1,1.86-.51l-2.45-2.3-.95,1a5,5,0,0,1-.43-1.49l0-.26,0,0a23.28,23.28,0,0,0-4.7,3.8l-.06.05h0c-.26.25-.52.51-.79.75-.8.76-1.55,1.55-2.28,2.32a38,38,0,0,1-3.09,3,3.42,3.42,0,0,1-2,.95,1.66,1.66,0,0,1-.88-.27c-.72-.43-.93-1-.66-3v-.11c.43-3.25.88-6.59,1.53-9.82a.69.69,0,0,0,.31-.26,1.51,1.51,0,0,0-.05-.66.54.54,0,0,0,0-.11c.74-3.46,1.54-7,2.32-10.36.72-3.12,1.47-6.34,2.16-9.53a15.64,15.64,0,0,0,.31-5.86,5.67,5.67,0,0,0-3.79-4.17,4.09,4.09,0,0,0-.8-.08,7.29,7.29,0,0,0-4.15,1.76,7.19,7.19,0,0,0-2,3.65c-.38,1.31-.72,2.63-1,3.91-.29,1.12-.57,2.25-.89,3.36l-.38,1.31Q40.61,26.81,39.7,29.84ZM49,40a1.62,1.62,0,0,1,.51.19v0C49.26,40.33,49.12,40.19,49,40Z"/>
                <path class="cls-1"
                      d="M72.65,44.71a4.69,4.69,0,0,0-4.11-2.61c-.39,0-.8,0-1.21,0a13,13,0,0,0-2.81.3,7.45,7.45,0,0,1,1.76,3.85,8.67,8.67,0,0,1,1-.07,8.38,8.38,0,0,1,.88,0,2,2,0,0,1,.7.17,1.26,1.26,0,0,1-.34.73,39.5,39.5,0,0,1-2.7,3c-1,1-2,2.07-2.88,3.23-1.56,2-3.1,4.08-4.58,6.08-2.12,2.87-4.31,5.83-6.6,8.59a89.84,89.84,0,0,1-9.42,9.63,16.74,16.74,0,0,1-13.68,4c-4.86-.6-9.86-1.4-14.85-2.39-3.11-.61-5.08-2.68-6.19-6.51C6,66.94,6.1,61,6.46,55.51c.19-2.9.42-5.8.65-8.71.37-4.69.75-9.53,1-14.33l.22-.3a1.14,1.14,0,0,0-.2-.23c.12-2.83,0-5.67-.06-8.44A4.9,4.9,0,0,0,7.12,22c-.23-.25-.09-.84-.12-1.27l.44-.11.52.69c0-1.59-.09-3.18-.08-4.75,0-1.74.26-2,.31-2.08a.9.9,0,0,1,.38-.05c.41,0,.68,0,.93,2.28q.42,3.84.81,7.68l2.18,2.86c-.23.3-.58.79-.94,1.27-.31-.28-.6-.57-.91-.84,0,.35.08.7.11,1.06.12,1.21.25,2.42.37,3.63l-.44.55c-.07.21-.17.5-.26.79a.21.21,0,0,0,0,.16.23.23,0,0,0,.18,0c.2,0,.45-.38.58-.7,0,.56.11,1.12.17,1.68l0,.46A6.92,6.92,0,0,0,12,37.86l.1.21c.41.88,1.25,2.71,3.21,2.71l.3,0c1.59-.17,2.67-1.6,2.83-3.71.29-3.68.54-7.37.79-11s.52-7.45.81-11.18c.18-2.37.6-4.83,1-7C21.3,6,21.69,6,22.26,6h0c.35,0,.62,0,.68,1.51.21,5.68.2,11.45.19,16.54,0,2-.08,4.07-.15,6.07,0,1.24-.08,2.49-.11,3.78a4.85,4.85,0,0,0,.47,2.6l.09.17a6.35,6.35,0,0,0,.85,1.27s.05-.1.07-.14a5.5,5.5,0,0,1,1.1.58c.2.16.41.33.61.51a1.86,1.86,0,0,0,.34,0h.24c.64-.06,2.21-.46,2.77-3,.46-2.09.89-4.32,1.4-7.23l.09-.56a2.75,2.75,0,0,1-1.1-2l1.27,1.05.42-2.47c-.17.59-.41,1.12-1.37,1L31.22,23c.12.13.34.33.48.49l.51-3c.66-3.85,1.31-7.7,2-11.54a21.69,21.69,0,0,1,1-3.93c.37-1,.89-1,1.08-1h.2c.32,0,.8.1,1,1.33a9.92,9.92,0,0,1,.08,2.51c-.29,2.29-.71,5.73-1,8.6-.17,1.43-.32,2.73-.43,3.67,0,.49-.11,1-.11,1.46h0l-.38,2.78c-.15,1.07-.29,2.15-.43,3.23.65-.2,1.15-.13,1.13.7s.52.75,1.09.8a13.47,13.47,0,0,1,1.66.31c.2-1.5.39-3,.6-4.49l.65-4.81h-.07c.29-2.54.86-7.3,1.41-11.74a13.56,13.56,0,0,0-.08-3.57C41.14,2.12,39.5.36,37,0a5.74,5.74,0,0,0-.71,0,5.2,5.2,0,0,0-4.9,3.61,25.5,25.5,0,0,0-1.22,4.67c-.2,1.13-.39,2.25-.59,3.38a6,6,0,0,1,0,1.2.7.7,0,0,1-.25.38l-1.14,6.6q-.48,2.84-1,5.66c0-.5,0-1,0-1.5,0-4.27,0-9-.11-13.84a1.72,1.72,0,0,1,0-1.26c0-.53,0-1.06,0-1.59-.18-4.88-3.36-5.43-4.78-5.44-2.91,0-4.69,1.76-5.3,5.25-.39,2.26-.83,4.82-1,7.39q-.43,5.59-.8,11.21C15,26.82,15,27.93,14.89,29c0-.23-.05-.47-.07-.7-.41-4-.81-8-1.26-12.06-.18-1.62-.65-5.92-5-5.93-2.17,0-4.76,1.08-4.78,6.2,0,2.17.07,4.36.14,6.48,0,.49,0,1,0,1.48-.35.22-.75.27-.83.74a8.6,8.6,0,0,1-.29,1c0,.09,0,.27.07.29a.37.37,0,0,0,.34,0A2.62,2.62,0,0,0,4,25c.07,2.32.11,4.67,0,7-.21,4.85-.6,9.78-1,14.56-.23,2.92-.46,5.84-.66,8.77-.12,1.86-.21,3.85-.21,5.89,1.2-.29,1.64-1,1.41-2.32S4.21,57.68,5,58c.07,2.4.07,2.4.74,2.54-.26.7-.64,1.68-1,2.67l-.5-.81-2.1-1A53.86,53.86,0,0,0,2.57,68l2.51-.73c.06.18.12.36.17.53l-2.6.86a38.13,38.13,0,0,0,1.1,5.17c1.53,5.31,4.67,8.46,9.32,9.38,1.32.26,2.65.51,4,.75.09-.51.26-1,.37-1.55a5.32,5.32,0,0,1,2.27,2c2.87.47,5.72.89,8.52,1.23a25,25,0,0,0,3.08.19,20.92,20.92,0,0,0,8.19-1.61c-.32-.17-.66-.3-1-.44,0-.09.09-.19.13-.28l1.16.45c-1.12-1.19.16-1.66.35-2.42.35-1.4,1.61.16,2.36-.77l-.86-1,.12-.24a4.34,4.34,0,0,1,.8.42,2.66,2.66,0,0,1,.87.94c.11.3-.16.72-.27,1.12a2,2,0,0,0-2.79.69,1.52,1.52,0,0,0,0,.71c0,.16,0,.33,0,.49a20.14,20.14,0,0,0,4.75-3.18c2.47-2.21,4.69-4.36,6.71-6.52a1.78,1.78,0,0,1-.66-.22c0-.13,0-.25,0-.38l1.11.07c.92-1,1.8-2,2.64-3,1.72-2.06,3.36-4.21,5-6.35a.38.38,0,0,1,.26-.35l1.53-2.07c1.46-2,3-4,4.52-6a38.67,38.67,0,0,1,2.61-2.93,44.71,44.71,0,0,0,3-3.37A4.73,4.73,0,0,0,72.65,44.71Zm-42.8-16.6c.33.49.65.77.6.92a4.77,4.77,0,0,1-.67,1c-.2-.19-.6-.42-.57-.58A6.17,6.17,0,0,1,29.85,28.11ZM15.78,37.76c.09-.24.34-.62.49-.6a1.56,1.56,0,0,1,1,.42,1.58,1.58,0,0,1-.85,2.29c-.46.14-.92.25-1.62.45C15.2,39.32,15.46,38.53,15.78,37.76ZM4.9,41a4.2,4.2,0,0,1-1.14-.44L4,40.41l0,0,.14,0a.77.77,0,0,0,0-.15,2.53,2.53,0,0,1,.64-.46,1.47,1.47,0,0,1,1,0c.09,0,.15.4.12.63a1.17,1.17,0,0,0-.48.22l.13.15A1.32,1.32,0,0,1,4.9,41ZM16.53,81.15,17,82.27l-3.43-.69c.67-2,1.34-2.22,4.39-1.27ZM48.46,74a2.83,2.83,0,0,0,0-.29,5.25,5.25,0,0,1,1.43,0c.12,0,.08.68.14,1.3Zm16-17.17L62.85,55.1l.24-.22,1.55,1.79Z"/>
                <path class="cls-1"
                      d="M45.06,61.69a.81.81,0,0,0,.52-.48A6.33,6.33,0,0,0,44.29,57c-.23.91-1,1.52-.45,2.45.33.59.48,1.28.75,1.9C44.67,61.48,45,61.73,45.06,61.69Z"/>
                <path class="cls-1" d="M58.37,71.68c.05.16.1.33.16.49l2.61-.86c0-.13-.09-.26-.13-.4Z"/>
                <path class="cls-1" d="M53.32,74.12c0-.14,0-.27,0-.4l-1-.07-.49.53A7.57,7.57,0,0,0,53.32,74.12Z"/>
                <path class="cls-1"
                      d="M46.79,68.68c-.31.74-.55,1.31-.81,1.91,1.11.15.93-.88,1.26-1.4C47.28,69.13,46.93,68.83,46.79,68.68Z"/>
            </g>
        </g>
    </symbol>
    <symbol id="leaf" viewBox="0 0 88 75.53">
        <defs>
            <style>.cls-1{}</style>
        </defs>
        <title>leaf</title>
        <g id="Слой_2" data-name="Слой 2">
            <g id="Layer_1" data-name="Layer 1">
                <path class="cls-1"
                      d="M60.19,71.93l1.09-1.41-1.29-1a9,9,0,0,1-1.14.09C59.27,70.36,59.72,71.1,60.19,71.93Z"/>
                <path class="cls-1" d="M62.06,62.7a7.62,7.62,0,0,0-.1-2.56c-.17,1-.38,2-.62,3Z"/>
                <path class="cls-1"
                      d="M60.63,65.67a7.16,7.16,0,0,0,.73-.19,8.87,8.87,0,0,0,.52-1.5l-.81.16C60.94,64.65,60.79,65.16,60.63,65.67Z"/>
                <path class="cls-1"
                      d="M30.25,21.72c-1.13-.38-2.28-.54-2,1.19a3.48,3.48,0,0,1,0,1.66c.86.67,1.71,1.35,2.53,2.05.19-.52.38-1,.53-1.41C30.35,25,30.35,25,30.25,21.72Z"/>
                <path class="cls-1"
                      d="M46.72,57.51A25.47,25.47,0,0,1,47.57,60l.73-.74c-.38-1.12-.79-2.22-1.21-3.3C47,56.49,46.82,57,46.72,57.51Z"/>
                <path class="cls-1"
                      d="M46,53.56l0,0c-.26-.61-.53-1.22-.82-1.82a2.83,2.83,0,0,0-1.94.27,15.57,15.57,0,0,1,2.13,2.85l1.28.26Z"/>
                <path class="cls-1" d="M54.88,60.76a3.74,3.74,0,0,0-.26,2.49c.19-.56.38-1.12.55-1.68Z"/>
                <path class="cls-1"
                      d="M57.35,34.92c.17-.18-.24-1.24-.36-1.23a9.58,9.58,0,0,0-1.26.15c.29.57.58,1.15.84,1.75A4.65,4.65,0,0,0,57.35,34.92Z"/>
                <path class="cls-1"
                      d="M56.38,27.42c-2.07-.23-3.14.47-3.32,2,.17.24.34.46.5.7C55.22,30.14,55.17,28.16,56.38,27.42Z"/>
                <path class="cls-1" d="M40,22.54,37.29,26l.17.39,4-2.14C39.64,24.83,40.4,22.74,40,22.54Z"/>
                <path class="cls-1" d="M25.67,36.9l3.65-1.2-.87-.6L25.37,36Z"/>
                <path class="cls-1" d="M48.77,66.55v0l.07,0Z"/>
                <path class="cls-1" d="M37,56.83l.37-.41-2.92-2.69C34.19,56.45,35.6,56.65,37,56.83Z"/>
                <path class="cls-1"
                      d="M15.94,40.54l.09-.75-3.68-.23.07.1a2.7,2.7,0,0,1,.42.67l.07.14.1.17A12,12,0,0,0,15.94,40.54Z"/>
                <path class="cls-1"
                      d="M2.26,34A1.42,1.42,0,0,0,4,33.1c-.24-.54-.46-1.08-.67-1.63C2.93,32.36,2.6,33.15,2.26,34Z"/>
                <path class="cls-1" d="M24.67,65.31c.17.25.34.49.5.74.43.26.87.51,1.32.76L25.2,64.89Z"/>
                <path class="cls-1" d="M80.3,60.06l.78,2.88.55-.13C82.1,61.67,81.8,60.72,80.3,60.06Z"/>
                <path class="cls-1" d="M37.09,8,34.18,4.63l-.43.42,3,3.25C36.87,8.19,37,8.09,37.09,8Z"/>
                <path class="cls-1" d="M50.7,17l-1.32,1.94,3.13-.29Z"/>
                <path class="cls-1"
                      d="M79.84,32.94l-.09-.85-.31.16s0-.07,0-.11l.32-.41-.23-2.13-2.07,1.61c0,.65,0,.66.28.71-.1.27-.25.65-.4,1-.06-.1-.12-.21-.19-.31l-1-.44a23.1,23.1,0,0,1-10,4.94,44.72,44.72,0,0,0-4.77,1.42l-1.89.62a2.89,2.89,0,0,0-1.21.77,38.61,38.61,0,0,0-1.69-4.36c-.36.26-.76.51-1.17.8-.5-.79-.83-1.33-1.41-2.24.66-.12,1.22-.23,1.74-.31a35.82,35.82,0,0,0-2.17-3.7,2.62,2.62,0,0,1-.53-.05,4.57,4.57,0,0,1,0-.65,36.26,36.26,0,0,0-6.88-7.3,38,38,0,0,0-4.4-3,3.13,3.13,0,0,1-.33,2.24.89.89,0,0,1-.64.29.7.7,0,0,1-.48-.4c-.42-1.09-.8-2.19-1.09-3v-.49a45.75,45.75,0,0,0-9.87-3.49c-3.06-.72-6.2-1.47-9.23-2.39l0,.06L18,11.49a2,2,0,0,1,.11-.29c-5.63-2-10.4-5.58-13.93-8.53-.18-.15-.37-.28-.58-.44L.62,0,.33,3.37C.13,5.67,0,7.88,0,10a10.41,10.41,0,0,1,1.49,6.43c0,.35-.57.78-1,.9a.44.44,0,0,1-.29-.1,61.69,61.69,0,0,0,.87,6.42,45.17,45.17,0,0,0,2.2,7.8c.14-.35.29-.7.45-1.09.27.3.91.86.85,1A12.11,12.11,0,0,0,4,33.1,34.78,34.78,0,0,0,7.25,39l-2.63-.28-1,0L2,40.44l.52,1.16c.27.61.53,1.22.8,1.84.58,1.38,1.19,2.8,1.92,4.18a26.65,26.65,0,0,0,6.06,7.55v2l0,.68.35.52.33.47a38.9,38.9,0,0,0,21,14.57,66.78,66.78,0,0,0,14.7,2.09h.55a7.35,7.35,0,0,0,7-4.42c.21-.44.43-.88.64-1.31.08-.15.15-.31.22-.46l1.74.23a7,7,0,0,0,1,.07h0a19.77,19.77,0,0,1-.91-1.77c-.44-1,.69-2.74,1.84-3.11A2.36,2.36,0,0,0,61,61.63,20.66,20.66,0,0,1,60.1,57,12,12,0,0,1,62,60.14a41.92,41.92,0,0,0,.59-9.58c0-.18,0-.36,0-.54h1.67c0-.33-.07-.58-.09-.84,0-.56,0-1.11-.08-1.66,0-.18-.06-.4,0-.53a1.48,1.48,0,0,1,2.08-.52c.08-.29.28-.61.2-.83s-.4-.49-.65-.7a2.83,2.83,0,0,0-.6-.31l-.08.18.64.78c-.56.69-1.5-.47-1.76.57-.14.57-1.09.92-.26,1.8l-.86-.33-.1.2c.26.12.52.21.76.35a.78.78,0,0,1,.33.32c0,.06-.12.2-.18.3s-.19.21-.17.29c.07.46-.19.54-.56.57l-.33.06c-.16-2-.47-4.07-.79-6-.07-.41-.13-.83-.2-1.25l1-.35c1.18-.4,2.31-.77,3.44-1.07,0-.33.34-.54.41-.83.19-.74.85.08,1.25-.41-.13-.17-.29-.36-.45-.55l.06-.13a2.1,2.1,0,0,1,.42.22,1.36,1.36,0,0,1,.46.5c.06.15-.08.38-.14.59a1,1,0,0,0-1.47.36.23.23,0,0,0,0,.12l.43-.11a27.12,27.12,0,0,0,9.38-4.05A30.3,30.3,0,0,1,76,41.31a1,1,0,0,0,.2-.3,4.32,4.32,0,0,0,.26-.68c.11-.42.33-.43.68-.19-.57.44-.9.89-.65,1.59.11.29-.2.53-.52.43l-.11,0-.09.58A16.83,16.83,0,0,1,72,50.77l-3,3.54L74,53.79a13.37,13.37,0,0,1-5.31,5.11l-6.66,3.8a1.15,1.15,0,0,1,0,.18,6.4,6.4,0,0,1-.17,1.1l4.81-1a21.86,21.86,0,0,1-5.33,2.47,4.4,4.4,0,0,1-2,2.43c-.22.23-.45.45-.67.67.43.31.85.63,1.3,1,4.93-.61,12.37-4.76,14.09-8.86l.75-1.79a15.71,15.71,0,0,0,3.88-6.77l.76-2.65-2.26.23c.13-.24.24-.49.36-.74a.48.48,0,0,0,.51-.63c0-.1,0-.19-.07-.28.23-.54.44-1.09.63-1.66l.36-.31L78.78,46a24.36,24.36,0,0,0,.65-2.55A35.48,35.48,0,0,0,79.84,32.94ZM1.51,5c0-.08,0-.17,0-.25a4.35,4.35,0,0,1,1.25,0c.11,0,.07.59.12,1.13Zm18.91,7a4.08,4.08,0,0,1,2.17,3.22L21,13.8l-.61.61a2.9,2.9,0,0,1-.27-.95A8,8,0,0,1,20.42,12.05Zm-6-.75,1.37,1.26-.17.19C15,12.67,14.3,12.57,14.44,11.3ZM3.9,4.65l1.89.12c0,.11,0,.23,0,.35A3.13,3.13,0,0,1,3.86,5C3.88,4.87,3.89,4.76,3.9,4.65ZM6.84,39.8a9.51,9.51,0,0,1,2.67,0c.23.06.16,1.27.26,2.42L6.88,40.34C6.87,40.16,6.86,40,6.84,39.8Zm36.5,32.29c-.9-.43-1.55-.71-2.16-1.06-.27-.16-.66-.47-.64-.67s.5-.8.59-.76a9.28,9.28,0,0,1,2.18,1.21C43.52,71,43.34,71.63,43.34,72.09Zm7-6c.22.9.42,1.81.62,2.72a12.69,12.69,0,0,1-1.86.36l-.28-2.41,0-.22c-2.46,1.38-4.28,1.4-5.38,0h5.38c-.08-.69-.16-1.38-.26-2A34.52,34.52,0,0,0,47.57,60l-.36.36a6.64,6.64,0,0,1-.59-2,5.87,5.87,0,0,1,.1-.83c-.15-.38-.31-.77-.48-1.14a17.16,17.16,0,0,0-.8-1.54L42,54.14A4.06,4.06,0,0,1,43.31,52a14.48,14.48,0,0,0-3.26-2.59l2.35.12-.94-2.63c-.17-.47-.32-.93-.47-1.37-.34-1-.66-2-1.09-2.92-.13-.29-.26-.58-.41-.86.72,1,1.41,2.07,2.07,3.13a67.16,67.16,0,0,1,3.69,6.85A17.85,17.85,0,0,1,48,52.4l-2,1.13c.35.8.69,1.62,1,2.45.06-.21.11-.43.16-.64,2.92,1.4,4,3.91,4.62,6.88-1.16-1.1-2.33-2.19-3.36-3.15l-.21.21C49.05,61.49,49.73,63.76,50.32,66.14Zm4.3-2.89c-.09.26-.18.51-.28.77s-.28.72-.44,1.08a84.19,84.19,0,0,0-2.57-8.45l.18-.18.82.77a2.11,2.11,0,0,0-1.13-1.68c0,.14-.07.28-.11.42-.06-.17-.13-.34-.2-.52l.18,0c-.1-.21-.15-.31-.17-.37l.49-.28a3.17,3.17,0,0,0-.81-.18A74.07,74.07,0,0,0,44.73,42.9a68.66,68.66,0,0,0-14-16.28c-.27.7-.56,1.47-.86,2.24-.23-.36-.45-.73-.68-1.1l-3.43-1.55c1.38-.21,2.17-.72,2.44-1.64a83.07,83.07,0,0,0-12.59-8,5.93,5.93,0,0,0-.63-.26l-1.65-.62-1.71,2.83,9.45,8-4.16-.13-1.33.08L14.31,29.5l2.07.67a5.22,5.22,0,0,0,.56.18A37.92,37.92,0,0,1,26.56,34q1,.55,1.89,1.14l1.86-.54.24.74-1.23.4a20.55,20.55,0,0,1,7.18,8.42c.2.44.37.9.55,1.38l-7.91-.4a2.17,2.17,0,0,0-.39-1.48,1.67,1.67,0,0,1-.35-.69,2.16,2.16,0,0,1,0-.57h-.27v1.92c.08.22.17.49.28.77l-12.15-.61L16,48.28l1.74.23,2.28.3c1.64.21,3.34.42,5,.68l1.62.24c2.5.39,5.09.78,7.56,1.34a11.74,11.74,0,0,1,8.69,6.85,26.62,26.62,0,0,1,2,7.13c.06.44.12.88.17,1.33L31.73,67.55l1.38,2a35,35,0,0,1-6.62-2.79l1.84,2.75c-.17.12-.35.25-.53.36l-2.63-3.87a35.38,35.38,0,0,1-7.33-5.93l2.35.5.6-1.14a2.82,2.82,0,0,0-.52-.09,4.61,4.61,0,0,1,.24-1.7c.12-.22.46-.32.84-.43l-1.19-.61c-5.47-2.83-9.29-6.36-11.66-10.79-.53-1-1-2-1.45-3.09l7.52.81L13,40.64a3.12,3.12,0,0,1-1.1-.4c0-.23.05-.47.08-.7l.36,0A34.78,34.78,0,0,1,4.77,23a66.36,66.36,0,0,1-1-15.77,55.68,55.68,0,0,0,7,4.77,1,1,0,0,0,0-.1c.18-.69.54-.71,1.12-.31a4.13,4.13,0,0,0-.71.66,36.53,36.53,0,0,0,6,2.65c3.7,1.25,7.54,2.15,11.27,3a37.81,37.81,0,0,1,15.32,7.17A33.05,33.05,0,0,1,55.21,42.68a34.43,34.43,0,0,1,0,18.89c.86,2.4,1.67,4.65,2.48,6.89C56.16,67.81,54.94,65.32,54.62,63.25ZM39,48c-.26-.63-.5-1.27-.78-1.89s-.6-1.32-.91-2C39,43.87,39.56,45,39,48ZM32.7,33.54a32.53,32.53,0,0,0-4.34-2.84l-1-.52.47-1.11Q30.41,31.2,32.7,33.54Zm47.17,4.83c-.07-.18-.14-.35-.22-.53s-.17-.37-.25-.56C79.87,37.2,80,37.51,79.87,38.37ZM70.8,36.2c0-.05,0-.1,0-.16a3.12,3.12,0,0,1,.75,0c.07,0,0,.37.08.69Zm2.56,0a1.85,1.85,0,0,1-1.14-.08,1.36,1.36,0,0,0,0-.2l1.15.07Zm2.75-1A2.41,2.41,0,0,0,76,35l1.39-.41a1.72,1.72,0,0,1,.07.21ZM78.6,40l.83.76-.1.12C78.92,40.81,78.52,40.75,78.6,40Z"/>
                <path class="cls-1" d="M76.86,31.64l-.26.2-.46.36C76.58,32.14,76.81,32,76.86,31.64Z"/>
                <path class="cls-1"
                      d="M67.18,31.08c.06.13.27.31.35.29s.37-.22.38-.36a4.71,4.71,0,0,0-1-3.17c-.17.68-.72,1.13-.34,1.82A13.51,13.51,0,0,1,67.18,31.08Z"/>
                <path class="cls-1"
                      d="M86.16,46.51a5.83,5.83,0,0,0-.25,1.2,2.74,2.74,0,0,0,.23.81l.52-.52L88,49.26A3.46,3.46,0,0,0,86.16,46.51Z"/>
                <path class="cls-1" d="M85.67,45.8l.8-.46c-1.67-.52-2-.4-2.4.7l1.87.37C85.78,46.06,85.71,45.9,85.67,45.8Z"/>
                <path class="cls-1"
                      d="M83.25,30.36a2.08,2.08,0,0,1,0-.56H83v1.92c.12.33.27.77.44,1.21a.3.3,0,0,0,.19.16.37.37,0,0,0,.26-.12,2.06,2.06,0,0,0-.26-1.92A1.66,1.66,0,0,1,83.25,30.36Z"/>
                <path class="cls-1"
                      d="M83.25,33.44c-.39.49-.73.93-1.06,1.37l.06.16,1.61-.85C83.12,34.35,83.42,33.52,83.25,33.44Z"/>
                <path class="cls-1" d="M71.22,41.3c0-.46,0-.94-.11-1a3.76,3.76,0,0,0-1.06,0c0,.07,0,.14,0,.21Z"/>
                <path class="cls-1" d="M82.18,42.06l.37.79c.11.25.2.5.31.75C83.09,42.39,82.86,41.94,82.18,42.06Z"/>
                <path class="cls-1" d="M82.09,47.11l.14-.17-1.16-1.07C81,47,81.51,47,82.09,47.11Z"/>
                <path class="cls-1" d="M73.68,40.61l0-.29-1.61-.11,0,.29A2.6,2.6,0,0,0,73.68,40.61Z"/>
                <path class="cls-1" d="M82.1,27.63,81,26.3l-.18.16c.41.43.81.87,1.21,1.3Z"/>
                <path class="cls-1"
                      d="M31.06,60.28a2.5,2.5,0,0,0,.24.81l.51-.52c.42.38.88.82,1.34,1.25a3.44,3.44,0,0,0-1.84-2.74A7.54,7.54,0,0,0,31.06,60.28Z"/>
                <path class="cls-1"
                      d="M30.82,58.37l.8-.46c-1.66-.52-2-.4-2.4.7L31.1,59C30.94,58.62,30.87,58.47,30.82,58.37Z"/>
                <path class="cls-1" d="M28,56.17c.23-1.21,0-1.66-.67-1.54l.36.79C27.81,55.67,27.91,55.92,28,56.17Z"/>
                <path class="cls-1" d="M27.24,59.68l.15-.17-1.17-1.07C26.1,59.52,26.67,59.61,27.24,59.68Z"/>
                <path class="cls-1" d="M27.26,40.2,26.1,38.86l-.17.17,1.2,1.29Z"/>
                <path class="cls-1"
                      d="M48.28,45.86a5,5,0,0,0-.15.73,1.57,1.57,0,0,0,.14.5l.32-.32.82.77A2.09,2.09,0,0,0,48.28,45.86Z"/>
                <path class="cls-1" d="M48,45.42l.5-.28c-1-.32-1.25-.24-1.48.43l1.15.23Z"/>
                <path class="cls-1"
                      d="M46.5,36a1.36,1.36,0,0,1,0-.35h-.16v1.18c.07.2.16.47.26.74a.23.23,0,0,0,.12.1.26.26,0,0,0,.16-.07,1.23,1.23,0,0,0-.16-1.18A1,1,0,0,1,46.5,36Z"/>
                <path class="cls-1" d="M46.5,37.84l-.65.85,0,.09,1-.52C46.42,38.4,46.61,37.89,46.5,37.84Z"/>
                <path class="cls-1" d="M45.85,43.13l.22.48c.07.15.13.31.19.46C46.4,43.33,46.26,43.06,45.85,43.13Z"/>
                <path class="cls-1" d="M45,33.57l.74.79.08-.08-.71-.82Z"/>
                <path class="cls-1"
                      d="M49.42,45.65a1,1,0,0,1,0-.34h-.17v1.18c.07.2.16.47.27.74a.14.14,0,0,0,.11.09.19.19,0,0,0,.16-.07,1.24,1.24,0,0,0-.15-1.17A1,1,0,0,1,49.42,45.65Z"/>
                <path class="cls-1"
                      d="M49.41,47.54l-.64.84a.3.3,0,0,0,0,.1c.32-.18.65-.35,1-.52C49.34,48.1,49.52,47.59,49.41,47.54Z"/>
                <path class="cls-1" d="M48.71,44,48,43.16a.94.94,0,0,1-.1.1l.74.8Z"/>
            </g>
        </g>
    </symbol>
    <symbol id="burger" viewBox="0 0 45.75 44.62">
        <defs>
            <style>.cls-1{}</style>
        </defs>
        <title>burger</title>
        <g id="Слой_2" data-name="Слой 2">
            <g id="Layer_1" data-name="Layer 1">
                <path class="cls-1"
                      d="M8.5,31.55c0-.23,0-.48,0-.74l.13-.07a2.07,2.07,0,0,1,.2.46,1.42,1.42,0,0,1,.06.7c-.06.16-.32.25-.5.39A1.08,1.08,0,0,0,7,31.63c-.11,0-.18.19-.26.3-.24.33-.48.66-.71,1-.11.15-.2.32-.34.53l-1.23-1a.54.54,0,0,1,.07-.13,5.52,5.52,0,0,1,.54.28c.23.15.42.22.58-.08,0-.06.16-.06.24-.09s.23-.05.24-.09A.63.63,0,0,0,6,32a5.77,5.77,0,0,0-.29-.55l.16-.08c.08.15.16.29.34.59-.08-.89.63-.66,1-.92C7.85,30.59,7.86,31.69,8.5,31.55Z"/>
                <path class="cls-1"
                      d="M16,38c-.75,0-1.31.15-1.56.88-.1.31-.5.3-.7,0l-.36-.55-.24.64c-.06-.15-.11-.23-.09-.26.21-.42.33-.82-.07-1.2.12-.12.22-.29.37-.35s.26.07.42.12c0,.09,0,.19,0,.29,0,.59.36.79.88.52a5.32,5.32,0,0,0,.65-.39C15.69,37.41,15.88,37.54,16,38Z"/>
                <path class="cls-1"
                      d="M17.39,21.9a3.5,3.5,0,0,1-.89,2.27.41.41,0,0,1-.39,0c-.06,0-.1-.22-.07-.32a10.33,10.33,0,0,0,.33-1.08C16.46,22.23,17,22.22,17.39,21.9Z"/>
                <path class="cls-1"
                      d="M22.16,30.63c-.57.77-.57.77-.4,1l-1,.59c0-.13,0-.25.05-.38l-.51-1a.74.74,0,0,0,1.18-.31C21.73,30.09,22,30.34,22.16,30.63Z"/>
                <path class="cls-1"
                      d="M20.67,40.94l-.68-.1-.12.48c-.34-.41-.62-.74-.91-1.07C19.67,39.78,19.94,39.88,20.67,40.94Z"/>
                <path class="cls-1"
                      d="M24.87,31.47l.87-1.11.17.12a1.25,1.25,0,0,0-.25.33,1.11,1.11,0,0,0-.12.56c.05.35-.4,1.16-.73,1.22a.26.26,0,0,1-.2-.05.19.19,0,0,1,0-.18C24.67,32,24.78,31.71,24.87,31.47Z"/>
                <path class="cls-1" d="M23,32.9l1.24-.31c.06.12-.49.47,0,.67L23,33S23,32.94,23,32.9Z"/>
                <path class="cls-1"
                      d="M13.7,31.63c-.15-.46-.24-.71-.32-1l.09-.13a3,3,0,0,1,.61.49C14.12,31.08,13.88,31.35,13.7,31.63Z"/>
                <path class="cls-1" d="M18.43,33l1.4.57-.07.21-1.42-.52Z"/>
                <path class="cls-1" d="M17,43.36l1.25,1C17.44,44.22,17,43.89,17,43.36Z"/>
                <path class="cls-1" d="M19.69,37.08c.44.25.37.61-.32,1.21.06-.2.12-.39.17-.58Z"/>
                <path class="cls-1"
                      d="M16,44.62c-.12-.26-.22-.44-.3-.63s-.07-.23,0-.27.26-.1.27-.07a2.44,2.44,0,0,1,.28.67C16.24,44.4,16.08,44.52,16,44.62Z"/>
                <path class="cls-1" d="M17.33,40c-.3-.3-.59-.61,0-1.18.08.46.13.81.19,1.15Z"/>
                <path class="cls-1" d="M14.7,31.41l.89.79-.16.16c-.33-.23-.72-.4-.87-.81A.93.93,0,0,0,14.7,31.41Z"/>
                <path class="cls-1" d="M13.48,28.35l1-.55c0,.11,0,.36,0,.37C14.18,28.28,13.9,28.79,13.48,28.35Z"/>
                <path class="cls-1" d="M13.13,39.66c-.05.55-.09,1.1-.13,1.65l-.19,0,.12-1.63Z"/>
                <path class="cls-1" d="M26.18,27.41l.06,1.3h-.13c0-.43-.07-.86-.1-1.29Z"/>
                <path class="cls-1"
                      d="M18.65,6.31l-.9.07-.32.47L18,7.4a3.18,3.18,0,0,0,2.16,1h0a1.87,1.87,0,0,0,1.57-.81,1.57,1.57,0,0,0,.18-1.21,1.35,1.35,0,0,0-.58-.91A2.72,2.72,0,0,0,19.87,5,2.34,2.34,0,0,0,18,6.09c.21,0,.42-.08.63-.1C18.62,6.1,18.64,6.2,18.65,6.31Z"/>
                <path class="cls-1"
                      d="M8.79,10.47,8,9.5l-.7,1.05a1.4,1.4,0,0,1-.16.2,1.47,1.47,0,0,0-.45,1.49,6,6,0,0,0,.77,1.3l.27.4.39.52,1.53-.28.19-.51a.82.82,0,0,1,.09-.19A1.48,1.48,0,0,0,10,12a6.92,6.92,0,0,0-.91-1.19C9,10.72,8.89,10.6,8.79,10.47Z"/>
                <path class="cls-1"
                      d="M29.13,11l.67.87,2.88-3-.76-.65L31.71,8a1.57,1.57,0,0,0-1.1-.63h-.27l-.22.13a8.6,8.6,0,0,0-1.6,1.27c-.65.61-.13,1.25.24,1.72Z"/>
                <path class="cls-1"
                      d="M14.59,13.94l.18.18.66.73,1-1a15.37,15.37,0,0,0,1.11-1.16c.5-.6.08-1.18-.22-1.61-.1-.15-.23-.32-.36-.52l-.74-1.14-.81,1.1-.39.53a14.08,14.08,0,0,0-.94,1.36C13.71,13.09,14.26,13.62,14.59,13.94Z"/>
                <path class="cls-1"
                      d="M13,6.33l-.23-.14-.23-.13h-.26a1.42,1.42,0,0,0-1,.63L11,6.87l-.7.67,1,1,.27.27a1.33,1.33,0,0,1,1-.18,1.63,1.63,0,0,0-.48.65c.13.12.26.25.4.36l.28.22h.34a1.71,1.71,0,0,0,1-.45l.5-.35,1.14-.75L14.13,7.14c-.36-.27-.67-.49-1-.69a8.67,8.67,0,0,1-1.25-.12Z"/>
                <path class="cls-1"
                      d="M23,14.09l.73,1.05,2.24-2.89-1.38-1.46a1.65,1.65,0,0,1-.08.34c-.06.22.3.58.48.87s.25.28.49.55c-1-.31-1.08-.36-1.44-1.13-.23-.48-.44-1-.65-1.45l-.49.74a1.65,1.65,0,0,1-.21.27A2.13,2.13,0,0,0,22,12.43a2.47,2.47,0,0,0,.71,1.37C22.82,13.9,22.9,14,23,14.09Zm1.81-1.41c.11,0,.2.4.15.56-.18.59-.8,1-1.72,1-.05-.13-.22-.33-.19-.49A1.87,1.87,0,0,1,24.78,12.68Z"/>
                <path class="cls-1"
                      d="M32.07,14.45c.1.06.2.14.3.21a2.61,2.61,0,0,0,1.45.6,2.14,2.14,0,0,0,1.35-.63,1.64,1.64,0,0,1,.26-.2l1.07-.71-2.83-2.31-2.75,2.38Z"/>
                <path class="cls-1"
                      d="M17,2.94l-.37.14a2.38,2.38,0,0,1,.15.55,24.93,24.93,0,0,1,5.89-.7,26.42,26.42,0,0,1,3.09.18,2.14,2.14,0,0,0-.59.51L25,3.81l-.69.65,1,1A13.57,13.57,0,0,0,26.47,6.6l.29.22h.34a1.72,1.72,0,0,0,1-.43l.51-.34,1.17-.73L28.14,4.11c-.42-.33-.77-.59-1.14-.83a22.08,22.08,0,0,1,9.44,3.87,11.81,11.81,0,0,1,5.17,8.17.22.22,0,0,0,0,.08H17.25c.2.1.24.35.16.85l-.71-.85H6a2.66,2.66,0,0,1,0,1.07l-.3-.72c0-.12-.11-.23-.16-.35H3.9s0-.08,0-.12a17.37,17.37,0,0,1,.56-2.36,12.55,12.55,0,0,1,5.2-6.23A21.09,21.09,0,0,1,15.11,4.1c-.12-.62-.23-1.25-.35-1.87a23.12,23.12,0,0,0-6.14,2.9A20.37,20.37,0,0,0,6.39,6.89c0,.23,0,.73.53.55l-1.53.81L5.33,8.1l.57-.74a13,13,0,0,0-3.19,4.93,16.75,16.75,0,0,0-.64,2.65q-.1.59-.24,1.2l-.25,1.14h6l-1-.21v-.71L8,17a2.25,2.25,0,0,0-.08.24H43.63l-.09-1.44c0-.28,0-.52-.06-.76a13.58,13.58,0,0,0-5.92-9.45A25.13,25.13,0,0,0,22.71,1a27.67,27.67,0,0,0-6,.67v0C15.89,2.45,17.1,2.45,17,2.94ZM10.41,4.69l.69.62-1.19.11Z"/>
                <path class="cls-1" d="M16,3.13l-.29.07c0,.23,0,.48,0,.71l.63-.16C16.21,3.53,16.1,3.33,16,3.13Z"/>
                <polygon class="cls-1" points="15.44 2.03 15.43 2.03 15.44 2.04 15.44 2.03"/>
                <path class="cls-1"
                      d="M36.42,11.35l.86,1,0-.05a4.72,4.72,0,0,0-.8-1.6c-.12-.13,0-.44-.06-.66L36.7,10,38,11.77l1.63-1.34-1-1c-.43-.44-.81-.83-1.22-1.18L37.19,8h-.35c-.72,0-1.45,1.07-1.45,1.08l-.27.52.31.47A13.28,13.28,0,0,0,36.42,11.35Z"/>
                <path class="cls-1"
                      d="M43.21,31.66l.23.22a10.1,10.1,0,0,0,0-1.23l-.06-.88h-.88l-1,0-1,0h0a8.54,8.54,0,0,1-1.08-.06,13.71,13.71,0,0,0-1.64-.1,7.48,7.48,0,0,0-5.94,2.56c-.24-.28-.47-.55-.67-.82a4.23,4.23,0,0,0-3.72-1.65h-.07l-3.07,0a3.59,3.59,0,0,1,.22,1.7.35.35,0,0,1-.11.18l3,0h.06a2.31,2.31,0,0,1,2.2.89c.32.44.69.85,1,1.25l.48.54.8,1,.7-1a5.65,5.65,0,0,1,5.12-2.69c.34,0,.7,0,1.07.06V30.31h.26a1.88,1.88,0,0,0,0,.53,1.53,1.53,0,0,0,.33.66.74.74,0,0,1,.12.16c.29,0,.58,0,.93,0h0l1,0h0a8.79,8.79,0,0,1-2.39,5.38,9.33,9.33,0,0,1-6.63,3.07c-6.51.09-13.18.09-19.82,0a9.23,9.23,0,0,1-8.81-8.44H15.84l8.09,0a.28.28,0,0,1-.08-.12c-.2-.44-.3-.93-.53-1.34a.92.92,0,0,1-.13-.42H2.07l0,.9a10.87,10.87,0,0,0,3,7.82A10.92,10.92,0,0,0,12.71,42c3.63.07,7.3.1,10.9.1,3,0,6,0,9-.07a11.21,11.21,0,0,0,8-3.67,10.73,10.73,0,0,0,2.82-6l-.69.06ZM26.59,40.52c0-.07,0-.14,0-.2a3.78,3.78,0,0,1,1,0c.09,0,.06.48.1.92ZM30,40.6a2.5,2.5,0,0,1-1.53-.12l0-.26,1.53.09Z"/>
                <path class="cls-1"
                      d="M2.93,26.4H13.37a4.11,4.11,0,0,1-.21-.42c-.17-.38.26-1,.7-1.18a.78.78,0,0,0,.38-.28h-1.8l.61,1.69A2.52,2.52,0,0,1,12,24.52h-9a1.09,1.09,0,0,1-.8-.29,1,1,0,0,1-.26-.7c0-.78.69-.95,1.26-.95l5.74,0a.5.5,0,0,1,0-.17,6.58,6.58,0,0,1,.23-1.14,2.82,2.82,0,0,1,1.34,1.32h3.64c0-.23-.08-.46-.1-.7.21.3.36.52.47.7h5c1,0,1.87,0,2.64,0h.1a2.1,2.1,0,0,1,.36,0c-.09-.09-.17-.19-.26-.27a3.08,3.08,0,0,1,.69-.62c.08,0,.35.29.68.57a7.31,7.31,0,0,1-.68.47,2,2,0,0,1,.55.44c.43.47.87.91,1.35,1.37H14.65c-.17.67-.6,1.38-1,1.48a3,3,0,0,0-.25.25l.2.15h15.9L27.9,24.79l-1-1c-.72-.69-1.33-1.28-1.9-1.9l-.09-.1c0,.13-.25.24-.38.36-.15-.17-.38-.33-.44-.54s.09-.17.24-.32a3.4,3.4,0,0,0-2.06-.63h-.17c-.75,0-1.56,0-2.57,0H8.69c0,.1.11.24.21.47l-1.78-.36a.49.49,0,0,1,0-.11H4.32l1,1-.14.15c-.53-.06-1.06-.15-1-1.12H3.13a3.69,3.69,0,0,0-.9.12l.07,0C1.53,21.43,1.08,22,1.42,23c.15.39-.26.7-.7.57-.21-.06-.41-.14-.7-.24,0,.06,0,.12,0,.18v0c.07.2.12.36.2.6L0,24a2.82,2.82,0,0,0,.75,1.5A3,3,0,0,0,2.93,26.4Z"/>
                <path class="cls-1"
                      d="M44,22.29a2.77,2.77,0,0,0-2.1-.76.81.81,0,0,1-.51.51c-.24.08-.48.14-.85.24.08-.21.14-.4.21-.58a.87.87,0,0,0-.3.17c-1.17,1-2.28,2.14-3.42,3.22l.33.38c1.73,0,3.46.1,5.17-.06a2.62,2.62,0,0,0,1.78-1.2A2.38,2.38,0,0,0,44,22.29Z"/>
                <path class="cls-1"
                      d="M35.31,32.17l.53-1.39c-.35-.08-.35-.08-.39-1.32-.43-.14-.87-.21-.76.45s-.16,1.13-.94,1.25l1.3.59C35.14,31.89,35.23,32,35.31,32.17Z"/>
                <path class="cls-1"
                      d="M45.73,34.46c.06-.06-.09-.46-.13-.46a8.54,8.54,0,0,0-1.14.17L45,35A4.09,4.09,0,0,0,45.73,34.46Z"/>
                <path class="cls-1" d="M45.36,31.62c-.88-.1-1.29.25-1.27,1C44.94,32.81,44.86,31.93,45.36,31.62Z"/>
                <path class="cls-1" d="M39.71,30.42c-.7.22-.41-.58-.58-.65l-1,1.31a.91.91,0,0,0,.07.14Z"/>
                <path class="cls-1" d="M35.56,34.61l-.09-.28-1.87.54c0,.12.08.23.11.35Z"/>
                <path class="cls-1" d="M38.12,38c.11.26.23.5.34.75s.2.48.3.72C39,38.29,38.76,37.86,38.12,38Z"/>
                <path class="cls-1"
                      d="M35.31,20a3,3,0,0,0-.53.41,2.12,2.12,0,0,0,.6.23.77.77,0,0,0,.51-.21c.06-.06,0-.38,0-.41A.84.84,0,0,0,35.31,20Z"/>
                <path class="cls-1" d="M25.72,33.11s-.22-.25-.32-.37l-.57,1.36C25.61,34.21,25.49,33.48,25.72,33.11Z"/>
                <path class="cls-1"
                      d="M28.69,12.94a3.43,3.43,0,0,1,0-.56c.05-.26.14-.51.21-.78h-.82c-.08.22-.23.43-.21.61a1.27,1.27,0,0,0,.32.63C28.32,12.94,28.53,12.91,28.69,12.94Z"/>
                <path class="cls-1" d="M25.88,7.47a1.3,1.3,0,0,0-.45,2C25.57,8.8,25.71,8.17,25.88,7.47Z"/>
                <path class="cls-1"
                      d="M12.94,11.49c.06-.07-.1-.47-.14-.47a11.3,11.3,0,0,0-1.14.18l.54.85A4.61,4.61,0,0,0,12.94,11.49Z"/>
                <path class="cls-1" d="M27.38,10.2c-.56-.53-.78-.54-1.44-.12l.31.59Z"/>
                <path class="cls-1" d="M2.77,11.63l-.09-.27L.8,11.9l.12.34Z"/>
                <path class="cls-1" d="M4.26,18.63v.05h.06Z"/>
                <path class="cls-1" d="M26,18.37l.27.28L27,17.57C26.35,17.45,26,17.71,26,18.37Z"/>
                <path class="cls-1" d="M22.15,22.07c.18-.43.06-.79-.51-1l.3,1.09Z"/>
                <path class="cls-1" d="M26.92,20.71V19.24l-.27,0c0,.49.07,1,.11,1.48Z"/>
                <path class="cls-1" d="M4.15,0,4,.16,5.13,1.39l.12-.12Z"/>
            </g>
        </g>
    </symbol>
    <symbol id="kkal" viewBox="0 0 60 60.18">
        <defs>
            <style>.cls-1{}</style>
        </defs>
        <title>kkal</title>
        <g id="Слой_2" data-name="Слой 2">
            <g id="Layer_1" data-name="Layer 1">
                <path class="cls-1"
                      d="M38.16,48.5c.15.27.22.59.35.87,0,.09.16.2.21.18a.4.4,0,0,0,.24-.22,2.89,2.89,0,0,0-.59-1.94C38.26,47.8,37.93,48.08,38.16,48.5Z"/>
                <path class="cls-1"
                      d="M44.89,51.72l.84.38.17.27c.13-.33.25-.66.34-.9-.23,0-.23,0-.25-.85-.28-.09-.56-.13-.49.29S45.4,51.64,44.89,51.72Z"/>
                <path class="cls-1"
                      d="M48.19,48.59v1.18c.07.2.16.47.27.74a.18.18,0,0,0,.11.1.24.24,0,0,0,.16-.07,1.26,1.26,0,0,0-.15-1.18,1,1,0,0,1-.22-.43,1.29,1.29,0,0,1,0-.34Z"/>
                <path class="cls-1" d="M47.75,51.76l1-.52c-.45.14-.27-.37-.38-.42l-.65.85A.36.36,0,0,1,47.75,51.76Z"/>
                <path class="cls-1"
                      d="M40.26,55a.66.66,0,0,1,0,.14c.19.12.38.24.71.47,0-.28,0-.58-.07-.6A2.81,2.81,0,0,0,40.26,55Z"/>
                <path class="cls-1" d="M44.87,54.34l1.19-.4L46,53.76l-1.21.35Z"/>
                <path class="cls-1" d="M41.5,55.15a1.6,1.6,0,0,0,1,.08c0-.06,0-.13,0-.19l-1-.06Z"/>
                <path class="cls-1" d="M39.51,52.74l-.37.88c.5.06.42-.41.58-.64C39.73,53,39.57,52.81,39.51,52.74Z"/>
                <path class="cls-1"
                      d="M49.28,12.81a2.44,2.44,0,0,0,.63-1.61c-.29.23-.66.24-.72.64a7.32,7.32,0,0,1-.23.76c0,.07,0,.21,0,.23A.31.31,0,0,0,49.28,12.81Z"/>
                <path class="cls-1"
                      d="M52.3,18.48l.7-.42c-.13-.15-.13-.15.28-.7-.14-.2-.3-.38-.48-.06s-.45.43-.83.22l.36.69Z"/>
                <path class="cls-1"
                      d="M55.15,18.75c.23,0,.55-.62.51-.87a1,1,0,0,1,.09-.39.76.76,0,0,1,.17-.23l-.11-.09-.62.79c-.06.17-.14.4-.21.63a.13.13,0,0,0,0,.12A.17.17,0,0,0,55.15,18.75Z"/>
                <path class="cls-1" d="M54.75,18.75l-.87.22,0,.08.93.17C54.41,19.08,54.8,18.84,54.75,18.75Z"/>
                <path class="cls-1"
                      d="M49.09,27a2.22,2.22,0,0,0-.2-.48.34.34,0,0,0-.2.05s0,.13,0,.19.13.27.22.45C49,27.17,49.1,27.09,49.09,27Z"/>
                <path class="cls-1" d="M47.87,15.63a1,1,0,0,0,0-.27l-.7.39C47.45,16.06,47.64,15.71,47.87,15.63Z"/>
                <path class="cls-1" d="M46.76,23.74c0,.38,0,.77-.08,1.15h.13l.09-1.16Z"/>
                <path class="cls-1" d="M56.16,16c0-.31,0-.61,0-.92H56c0,.31,0,.61.08.92Z"/>
                <path class="cls-1"
                      d="M30,18.64a6,6,0,0,0,4.25-1.75A6.06,6.06,0,0,0,36,12.61a6,6,0,0,0-5.9-6H30a5.82,5.82,0,0,0-4.37,1.8,6,6,0,0,0-1.7,4.18,6,6,0,0,0,5.68,6C29.75,18.64,29.87,18.62,30,18.64Zm-2.52-6.05a2.52,2.52,0,0,1,.7-1.73,2.34,2.34,0,0,1,1.67-.72h.29a2.46,2.46,0,0,1,2.37,2.47,2.63,2.63,0,0,1-.75,1.79,2.47,2.47,0,0,1-1.76.72h-.16A2.51,2.51,0,0,1,27.47,12.59Z"/>
                <path class="cls-1"
                      d="M6.88,50.75a9.24,9.24,0,0,0-.35,1.69,3.72,3.72,0,0,0,.33,1.15l.73-.74c.58.54,1.24,1.15,1.89,1.77A4.89,4.89,0,0,0,6.88,50.75Z"/>
                <path class="cls-1"
                      d="M24.72,40.1v2.71c.17.47.38,1.09.62,1.7a.43.43,0,0,0,.27.23.54.54,0,0,0,.36-.16c.44-.49.14-2.25-.36-2.72a2.11,2.11,0,0,1-.48-1,2.6,2.6,0,0,1,0-.79Z"/>
                <path class="cls-1"
                      d="M6.79,16.1a1.17,1.17,0,0,0-.8-.33c-.12,0-.31.28-.38.46-.25.6-.45,1.21-.73,2l1.26-.35A1.22,1.22,0,0,0,6.79,16.1Z"/>
                <path class="cls-1" d="M3.64,33.25c-1,.33-.62-.85-.87-1L1.28,34.23l.09.22Z"/>
                <path class="cls-1"
                      d="M3.44,58.78s-.32.26-.33.42.2.29.36.38c.34.19.7.35,1.21.6,0-.27.1-.63,0-.73A5,5,0,0,0,3.44,58.78Z"/>
                <path class="cls-1"
                      d="M19.46,30.76a3.5,3.5,0,0,0-.78.61,3.08,3.08,0,0,0,.88.34,1.12,1.12,0,0,0,.75-.31.68.68,0,0,0,0-.61A1.11,1.11,0,0,0,19.46,30.76Z"/>
                <path class="cls-1" d="M21.63,35.39l1.7,1.83.18-.18-1.63-1.88Z"/>
                <path class="cls-1" d="M9.84,30.1l-.05-.05,0,.05Z"/>
                <path class="cls-1"
                      d="M59.85,52.69c-.58-2.21-1.17-4.43-1.76-6.64-.22-.8-.43-1.6-.64-2.4-.18.58-.43,1.1-1.39,1l1-2.41c-.54-2-1.08-4-1.61-6.07L54.41,32.2a1.37,1.37,0,0,1-.27-.35,26.69,26.69,0,0,0-1-2.61,1.94,1.94,0,0,1,0-1.9c-.6-2.28-1.2-4.56-1.83-6.84a4.61,4.61,0,0,0-.5-1.18l.79.29.06-.15-1-.4v0a4.15,4.15,0,0,0-3.5-1.79h-.07c-.81,0-1.62,0-2.43,0a4,4,0,0,0-.13,3.43s0,.07,0,.1c.87,0,1.73,0,2.61,0,.36,0,.61.1.75.61s.19.72.29,1.08l-.18.11c-.37.18-.6.05-.62-.37a1.55,1.55,0,0,1,0-.21c-.12,0-.24-.11-.3-.08s-.18.16-.26.25c.28.27.19.55,0,.84,0,0,0,.08.07.19.06-.18.1-.28.17-.45.11.16.17.27.25.38s.42.21.5,0a.84.84,0,0,1,.38-.49c.67,2.46,1.32,4.91,2,7.37l.35,1.3c.5,1.9,1,3.81,1.51,5.71l1.62,6.15c.34,1.25.67,2.51,1,3.76.59,2.21,1.18,4.41,1.76,6.62a.79.79,0,0,1,0,.54,15.25,15.25,0,0,1-2.93.89c-2,.35-4.17.64-6.36.87-1.44.14-2.94.21-4.4.28l-1.17.05c-.75,0-1.51.06-2.27.08l-1.43,0a1.86,1.86,0,0,0-.56.11H22.55a1.66,1.66,0,0,0-.53-.11l-1.35,0-1.38-.06-.91,0c-1.06-.05-2.13-.09-3.19-.17l-.38,0c-1.43-.11-2.91-.22-4.32-.41-1.7-.23-3.51-.53-5.87-1-.72-.13-1-.32-1.09-.49V53.6s0-.09,0-.14L4,52c.15-.6.31-1.2.46-1.8l-.49-.09c.23-.69.46-1.1.86-1.29l1.12-4.21c.37-1.35.73-2.7,1.09-4l1-3.86c.33-1.26.67-2.52,1-3.78l.75-2.79-1.69.16.74-1.09,1,.88.18-.7c.63-2.32,1.27-4.71,1.88-7.08.37-1.45.37-1.45,1.59-1.45h.23c1.65,0,3.31,0,5,0h2l.47,0,2.06-.15c-.92-1.05-.94-2.62-1.91-3.66-.17-.19-.06-.64-.09-1l.28-.07a8.5,8.5,0,0,1-.59-4.32l-.34-.08V10.17l.58.27a8.8,8.8,0,0,1,6.15-6.55,8.54,8.54,0,0,1,1-.27l.37-.09h2.4a2,2,0,0,0,.33.08,8.57,8.57,0,0,1,5.93,3.53,8.8,8.8,0,0,1,1.33,8.32,15.47,15.47,0,0,1-.82,1.87c-.16.34-.33.67-.48,1l-1.14,2.5h2.93a2.77,2.77,0,0,0-1.64-.66,5,5,0,0,1,.25-1.76c.18-.34.86-.4,1.43-.62.2.24.44.51.69.79,1.34,1.51,2.63,1.38,3.48-.34a1.18,1.18,0,0,1,.2.28c.13-.09.31-.16.35-.27a.93.93,0,0,0,0-.49,1.15,1.15,0,0,0-.14-.32l.06-.14H41.73c.1-.24.19-.5.28-.76A12.32,12.32,0,0,0,40.17,5.06,12,12,0,0,0,33,.34l0,.24c-1.42.09-2.88.47-4.2-.31l0-.27h-.61L28,.05l-.51.13c-.33.07-.67.16-1,.26,0,.49,0,1.22.11,1.92L24.7,1.11a12.29,12.29,0,0,0-7.08,8.72,12,12,0,0,0,.57,7.48c-1.48,0-3,0-4.45,0h-.3c-3.32,0-4.35,1.51-5,4.11-.14.54-.29,1.08-.43,1.62.05.64.14,1.29.22,2.11H7.45c-.29,1.11-.59,2.21-.88,3.3L5.61,32l-1,3.79-1,3.85c-.36,1.35-.72,2.7-1.09,4.05l-.3,1.14a3,3,0,0,1,0,1.83l-.31-.76c-.23.88-.47,1.75-.7,2.62S.83,50,.64,50.71l.7.65-.21.23a3.56,3.56,0,0,1-.68-.14l-.19.71L0,52.44v2.3L.09,55a4.62,4.62,0,0,0,3.88,3c2.42.46,4.28.76,6,1,1.52.2,3.05.32,4.54.43l.38,0c1.09.08,2.19.13,3.29.18l.9,0q.7,0,1.41.06l1,0,.25.13H38.1l.24-.12,1,0c.78,0,1.56,0,2.35-.08l1.15-.05c1.51-.07,3.06-.14,4.6-.3l.67-.08c.41-.76,1.2-.31,2-.23l.73-.09a1.35,1.35,0,0,0,.41-.33l-1.18-1.44.15-.34a6.19,6.19,0,0,1,1.11.59,3.58,3.58,0,0,1,1.19,1.27l1.57-.26a18.49,18.49,0,0,0,3.62-1.08A3.84,3.84,0,0,0,59.85,52.69Zm-16.22-35c0,.12,0,.25,0,.35a.29.29,0,0,1-.16,0Zm-2-7.69L40.22,8.25C41.58,8.08,41.9,8.41,41.65,10ZM4.71,57.06H7.78C6.37,57.86,5.33,57.87,4.71,57.06Zm24.87.54,0-.3a5.36,5.36,0,0,1,1.5,0c.13,0,.09.72.15,1.36Zm5.1.12a3.74,3.74,0,0,1-2.27-.17c0-.13,0-.27,0-.4l2.27.15C34.71,57.44,34.69,57.58,34.68,57.72Z"/>
            </g>
        </g>
    </symbol>
</svg>