<svg xmlns="http://www.w3.org/2000/svg" viewBox="0 0 48 30.32">
    <defs>
        <style>.cls-1{fill:#f9b43b;}</style>
    </defs>
    <title>buns</title>
    <g id="Слой_2" data-name="Слой 2">
        <g id="Layer_1" data-name="Layer 1">
            <path class="cls-1"
                  d="M20.48,5.93l.49.48a2.74,2.74,0,0,0,1.87.88h0a1.62,1.62,0,0,0,1.36-.7,1.38,1.38,0,0,0,.15-1,1.16,1.16,0,0,0-.49-.79,2.48,2.48,0,0,0-1.27-.4,2,2,0,0,0-1.65.92l.55-.08a2.51,2.51,0,0,1,0,.27l-.78.06Z"/>
            <path class="cls-1"
                  d="M13,9.06l-.7-.83-.6.91-.14.17a1.24,1.24,0,0,0-.38,1.29,5.51,5.51,0,0,0,.66,1.12c.07.12.15.23.23.35l.34.44,1.33-.23.16-.45a.56.56,0,0,1,.07-.16,1.27,1.27,0,0,0,.1-1.26,6.84,6.84,0,0,0-.79-1Z"/>
            <path class="cls-1"
                  d="M31.18,10.28,33.67,7.7,33,7.14,32.84,7a1.37,1.37,0,0,0-1-.54h-.24l-.19.11a8.22,8.22,0,0,0-1.39,1.1c-.55.53-.11,1.09.21,1.49l.33.41Z"/>
            <path class="cls-1"
                  d="M16.74,8.55a1.47,1.47,0,0,0,.86-.39L18,7.85l1-.64-1.4-1-.84-.6a6.8,6.8,0,0,1-1.09-.1h.94l-.21-.12-.2-.11H16a1.24,1.24,0,0,0-.91.54L14.94,6l-.61.57.87.88.23.24a1.11,1.11,0,0,1,.84-.16,1.45,1.45,0,0,0-.42.56l.35.32.25.19Z"/>
            <path class="cls-1"
                  d="M6.68,12.87c-.06.33-.12.66-.19,1l-.35,1.6h4.37l.22.53.1-.53H28a1,1,0,0,0-.15.44l.24.25.51-.69H43.69l-.12-1.77c0-.26,0-.48,0-.7A12.25,12.25,0,0,0,38.2,4.47,22.32,22.32,0,0,0,25.05.4a23.91,23.91,0,0,0-5.32.6l-.58.15.11.26a.81.81,0,0,0-.16.5.81.81,0,0,0,.18.43l-.05,0,.1.43c0,.07.05.14.07.21l0,.06-.18-.35L19,2.77c0,.2,0,.41,0,.61l.47-.12v.51l.6-.15a21.92,21.92,0,0,1,6.49-.54l-.82.77L27,5.11a11.12,11.12,0,0,0,1,1l.38.3h.46A2,2,0,0,0,30,5.93l.4-.27,1.64-1L31,3.86a17.76,17.76,0,0,1,5.65,2.73l.46.36A2.49,2.49,0,0,0,36,7.86l-.23.44.27.41a10.57,10.57,0,0,0,.86,1.11l.74.9,0,0A3.9,3.9,0,0,0,37,9.3c-.1-.11,0-.38,0-.58l.2-.05,1.15,1.52,1-.87a9,9,0,0,1,1.47,3.51H35.62l.21-.17.23-.17.93-.61-2.46-2-2.38,2.06,1,.57.26.18.21.14h-7.5l1.73-2.23L26.64,9.34a.89.89,0,0,1-.06.3c-.06.19.26.5.42.74a4.24,4.24,0,0,0,.42.48c-.88-.26-.94-.31-1.25-1-.19-.41-.38-.83-.56-1.25l-.42.64A2,2,0,0,1,25,9.5a1.82,1.82,0,0,0-.55,1.26A2.16,2.16,0,0,0,25.07,12a1.57,1.57,0,0,1,.2.25l.44.63H18.77l.87-.85a13.33,13.33,0,0,0,1-1c.43-.51.07-1-.2-1.39l-.3-.44-.65-1-.69,1-.35.46a13.23,13.23,0,0,0-.81,1.18c-.34.59.14,1,.42,1.33l.16.16.55.6H9.37a10,10,0,0,1,.37-1.48A10.42,10.42,0,0,1,14.05,6.2,17.24,17.24,0,0,1,16.16,5h0a18.35,18.35,0,0,1,2.45-1L19,3.89l-.49-2.6L18,1.46A20.43,20.43,0,0,0,12.57,4a17.19,17.19,0,0,0-2,1.57l-.2.25,0,.28c0,.06,0,.11,0,.16L10.14,6A11.78,11.78,0,0,0,7.51,9.89l-1.43.41c0,.1.07.2.1.3l1.19-.4c0,.1-.08.18-.11.27A15.53,15.53,0,0,0,6.68,12.87Zm18.64-.95c.1-.48,1.08-1.1,1.51-.94.1,0,.18.34.14.49a1.49,1.49,0,0,1-1.49.87C25.44,12.24,25.29,12.06,25.32,11.92Z"/>
            <polygon class="cls-1" points="18.76 1.76 18.75 1.76 18.75 1.76 18.76 1.76"/>
            <path class="cls-1"
                  d="M43.87,29.58l.46.74a3.45,3.45,0,0,0,.65-.49c.05,0-.08-.4-.12-.4A7.75,7.75,0,0,0,43.87,29.58Z"/>
            <path class="cls-1" d="M44.66,20.23c-.77-.09-1.12.22-1.1.88C44.29,21.26,44.22,20.5,44.66,20.23Z"/>
            <path class="cls-1" d="M34.47,23.05c0,.1.07.19.1.29l1.6-.53a2.09,2.09,0,0,0-.08-.23Z"/>
            <path class="cls-1"
                  d="M36,17.32a2.22,2.22,0,0,0-.45.36,1.75,1.75,0,0,0,.52.2.64.64,0,0,0,.43-.18c.06-.06,0-.34,0-.36A.69.69,0,0,0,36,17.32Z"/>
            <path class="cls-1"
                  d="M27.38,21.2c-.19.46-.34.81-.5,1.18.68.09.57-.54.78-.86C27.68,21.48,27.46,21.3,27.38,21.2Z"/>
            <path class="cls-1"
                  d="M29.56,10.57a1.06,1.06,0,0,0,.27.55c.08.08.26.06.39.08a3.91,3.91,0,0,1,.05-.48,6.9,6.9,0,0,1,.18-.68h-.71C29.67,10.23,29.54,10.41,29.56,10.57Z"/>
            <path class="cls-1" d="M27.4,8.16c.12-.54.25-1.08.39-1.7A1.14,1.14,0,0,0,27.4,8.16Z"/>
            <path class="cls-1" d="M16,10.43a4.27,4.27,0,0,0,.64-.48c.05-.06-.08-.41-.12-.41-.29,0-.58.08-1,.15Z"/>
            <path class="cls-1" d="M29.09,8.83c-.49-.46-.68-.47-1.25-.1l.27.51Z"/>
            <path class="cls-1" d="M0,11.55c0,.06,0,.12,0,.18l1,.63c0-.38,0-.78-.08-.8A3.24,3.24,0,0,0,0,11.55Z"/>
            <path class="cls-1" d="M9.13,16.17l-.05-.05v.05Z"/>
            <path class="cls-1" d="M1.66,11.69a2.16,2.16,0,0,0,1.33.1l0-.24-1.33-.09Z"/>
            <path class="cls-1" d="M28.69,17.93V16.66h-.23L28.55,18Z"/>
            <path class="cls-1" d="M9.93,1.1,9,0,8.84.14l1,1.06Z"/>
            <path class="cls-1" d="M46.57,4.44v.68l1.33.28.1-.31Z"/>
            <path class="cls-1"
                  d="M43.44,19.36l-.08-1.17H42.19l-1,0a10.94,10.94,0,0,1-1.65,0,13,13,0,0,0-1.47-.09,7.69,7.69,0,0,0-1.2.09H6.77l0,1.2a10,10,0,0,0,9.66,10.23c3.17.06,6.35.09,9.45.09,2.59,0,5.21,0,7.78-.06a10.12,10.12,0,0,0,7.22-3.32,9.78,9.78,0,0,0,2.49-5l0,0,.08-1h0A8.49,8.49,0,0,0,43.44,19.36ZM26,18.77a3,3,0,0,1,.13.47,4,4,0,0,0-.21-.47.37.37,0,0,1-.05-.17v-.22Zm13,5.87a7.63,7.63,0,0,1-5.43,2.51c-5.61.09-11.43.08-17.15,0a7.37,7.37,0,0,1-5.16-2.37,7.45,7.45,0,0,1-2-4.07H19.1l6.35,0h1.6l2.11,0a4.4,4.4,0,0,1,.77.07h6.86a7.13,7.13,0,0,1,2.2-.08l.63.05c.38,0,.82,0,1.28,0A7.26,7.26,0,0,1,39,24.64Z"/>
        </g>
    </g>
</svg>