<svg xmlns="http://www.w3.org/2000/svg" viewBox="0 0 38.13 34.14">
    <defs>
        <style>.cls-1{fill:#f9b43b;}</style>
    </defs>
    <title>cheese</title>
    <g id="Слой_2" data-name="Слой 2">
        <g id="Layer_1" data-name="Layer 1">
            <path class="cls-1"
                  d="M1.43,4.44c.17-.27.35-.54.53-.8.06-.09.11-.21.19-.24a.85.85,0,0,1,1.15.47c.14-.11.34-.19.38-.32A1.08,1.08,0,0,0,3.61,3a1.87,1.87,0,0,0-.17-.35l-.1.06c0,.2,0,.4,0,.58-.5.13-.54-.74-1-.34-.26.21-.82,0-.74.75l-.28-.45-.12.06c.08.14.17.28.24.43a.57.57,0,0,1,0,.26s-.12,0-.19.07-.16,0-.18.08c-.12.24-.27.19-.46.08A3.42,3.42,0,0,0,.23,4a.54.54,0,0,0-.05.11l1,.73C1.27,4.7,1.34,4.56,1.43,4.44Z"/>
            <path class="cls-1" d="M15.78,3.68l-1,.28,0,.09,1.05.16C15.41,4.07,15.84,3.78,15.78,3.68Z"/>
            <path class="cls-1"
                  d="M7.74,2.72a2.33,2.33,0,0,0-.49-.37l-.06.11c.07.2.14.4.27.75C7.6,3,7.78,2.77,7.74,2.72Z"/>
            <path class="cls-1" d="M12.22,7.84l-.12.45c.53-.48.57-.77.22-.95C12.29,7.51,12.26,7.67,12.22,7.84Z"/>
            <path class="cls-1" d="M8,.47A1.26,1.26,0,0,0,8,.18L7.2.64C7.55,1,7.75.57,8,.47Z"/>
            <path class="cls-1" d="M13.89,27.47l1.13.37.06-.17L14,27.26A1.72,1.72,0,0,1,13.89,27.47Z"/>
            <path class="cls-1" d="M13.27,32.74l.13,0c-.05-.27-.11-.54-.18-.9C12.79,32.27,13,32.51,13.27,32.74Z"/>
            <path class="cls-1" d="M9.75,33.91H9.9l.06-1.3H9.81Z"/>
            <path class="cls-1"
                  d="M29.44,9.62s0,.09.08.2c.06-.19.1-.31.17-.51.12.18.2.31.29.42s.48.22.55,0c.18-.59.62-.73,1.21-.74-.12-.33-.27-.42-.55-.2a3.56,3.56,0,0,1-.5.32c-.4.22-.66.08-.7-.38l0-.23c-.13,0-.26-.12-.34-.08s-.19.18-.28.28C29.68,9,29.59,9.29,29.44,9.62Z"/>
            <path class="cls-1"
                  d="M35.85,3c-.22.42-.49.49-.92.27.14.25.28.51.43.76l0,.3.76-.49C36,3.66,36,3.66,36.38,3,36.22,2.81,36,2.62,35.85,3Z"/>
            <path class="cls-1" d="M38.07,4.52l-1,.28,0,.09,1.05.16C37.7,4.91,38.13,4.62,38.07,4.52Z"/>
            <path class="cls-1"
                  d="M30,3.56a2.33,2.33,0,0,0-.49-.37l-.06.11c.07.2.14.4.27.75C29.89,3.82,30.07,3.61,30,3.56Z"/>
            <path class="cls-1" d="M34.63,5.44,33.51,5a1.72,1.72,0,0,1-.07.21l1.13.37Z"/>
            <path class="cls-1" d="M34.51,8.67l-.12.46c.53-.48.57-.77.22-1C34.58,8.35,34.54,8.51,34.51,8.67Z"/>
            <path class="cls-1" d="M32.83,10.5l.12,0c-.05-.27-.1-.54-.17-.9C32.35,10,32.58,10.28,32.83,10.5Z"/>
            <path class="cls-1" d="M31.13,4.58l.12-.13-.71-.6L30.43,4C30.56,4.28,30.87,4.41,31.13,4.58Z"/>
            <path class="cls-1" d="M30.29,1.31a1.26,1.26,0,0,0,0-.29l-.77.46C29.84,1.81,30,1.41,30.29,1.31Z"/>
            <path class="cls-1"
                  d="M17.72,28h.09a4.23,4.23,0,0,0-.09-8.45h-.09a4.23,4.23,0,0,0-4.13,4.31A4.26,4.26,0,0,0,17.72,28Zm0-6a1.8,1.8,0,0,1,.08,3.6h-.08a1.82,1.82,0,0,1-.92-.26l0,0c-.12-.16-.25-.3-.38-.23a1.78,1.78,0,0,1-.53-1.23A1.81,1.81,0,0,1,17.67,22Z"/>
            <path class="cls-1"
                  d="M9,27.13h.09A3.07,3.07,0,0,0,11,26.37a2.16,2.16,0,0,0,.6.44l.12-.13-.55-.46a3.06,3.06,0,0,0,.93-2.3,3.14,3.14,0,0,0-3.12-3H8.87a3.16,3.16,0,0,0-3,3.22A3.15,3.15,0,0,0,9,27.13Zm0-3.94v.13a.62.62,0,0,1,.69.68.64.64,0,0,1-.7.7c-.4,0-.64-.23-.7-.69s.3-.69.7-.69v-.13Z"/>
            <path class="cls-1"
                  d="M26.69,23.92h.06a2.88,2.88,0,1,0-.06,0Zm-.39-2.87c0-.07.11-.21.23-.36l.17-.22a1.91,1.91,0,0,0,.15.21.94.94,0,0,1,.23.4c0,.11-.25.36-.33.37A.67.67,0,0,1,26.3,21.05Z"/>
            <path class="cls-1"
                  d="M35.34,27.38l-.7-.07a2.35,2.35,0,0,1-.13-4.69l.65-.1.35-.06.11,0-.18-6.6,0,0-.19-.14a3,3,0,0,1-.38-.3l-4.19-3.95L28.86,9.74l-.71,1.84-.41-.67-2.16-1,.54.51,2.18,2.07,2,1.94.29.3h0l-4-.55c-4.08-.57-8.29-1.15-12.45-1.71-.65-.09-1-.24-1-.85A1.86,1.86,0,0,0,13,11,4.36,4.36,0,0,0,9.11,8.29H8.67a1.67,1.67,0,0,1,.78-.17c-.12-.33-.27-.42-.54-.2a4.39,4.39,0,0,1-.51.32c-.4.23-.66.08-.7-.38,0-.08,0-.16,0-.23s-.26-.12-.34-.08-.18.18-.28.28a.62.62,0,0,1,.16.76A4.58,4.58,0,0,0,5,10.68c-.13.22-.33.41-.43.42H4.45A4.91,4.91,0,0,1,3.57,11l-.27-.05.31-.38c.29-.36.56-.69.85-1a23,23,0,0,1,6.88-5.1l.94.31.06-.17-.74-.28a27.87,27.87,0,0,1,5.26-1.85A1,1,0,0,1,18,2.76l5.63,5.35,1.83,1.73.07,0a1.79,1.79,0,0,0,1.54-1.69V8.07l-.05,0L23.89,5l.36-.54c.06-.09.11-.21.19-.24a.86.86,0,0,1,1.15.47c.14-.11.34-.19.38-.32a1.08,1.08,0,0,0-.07-.55,1.87,1.87,0,0,0-.17-.35l-.1,0c0,.21,0,.41,0,.59-.5.13-.54-.74-1-.34-.26.21-.82,0-.74.75-.14-.23-.21-.34-.29-.45l-.11.06c.08.14.17.28.24.43a.45.45,0,0,1,0,.26s0,0,0,0c-1.29-1.23-2.44-2.35-3.53-3.43a4.08,4.08,0,0,0-3-1.43,5.41,5.41,0,0,0-1.54.25,31,31,0,0,0-7.16,3L8.25,3l-.11.12a.53.53,0,0,0,.16.23A23.28,23.28,0,0,0,.2,11.25l-.1.1L0,11.42l0,0L.47,28.79h0v.62l.56.07L.66,29l.08-.17L1,29a3.49,3.49,0,0,1,.76.43l.27.22,1.05.14L7,30.28l3,.42c-.07.06-.13.14-.2.21.32.29.24.61.08.94,0,0,0,.09.08.2l.18-.5c.12.17.2.3.29.41s.48.22.55,0c.18-.59.61-.73,1.2-.74a.9.9,0,0,0-.11-.22l13.55,1.89h.1l.05-.14c.08-.21.16-.43.22-.65.21-.77.51-.86.72-.86a1.62,1.62,0,0,1,.81.31,7.69,7.69,0,0,0-1.25,1.23l-.12.17,3.55.5c1.05.14,2.11.31,3.14.47l1.44.23h0l1.51,0h.13l-.18-6.66Zm-29-1.31a1.87,1.87,0,0,0-.17-.35l-.1.06c0,.2,0,.4,0,.58-.5.13-.54-.74-1-.34-.26.22-.83.05-.74.75l-.29-.45-.12.06c.08.14.17.28.24.43a.39.39,0,0,1,0,.26s-.12.05-.18.07-.16,0-.19.08a.26.26,0,0,1-.15.16l-.22,0L3.4,27.3c-.14-.08-.29-.14-.44-.21a.54.54,0,0,1,0,.11l.12.08-.14,0-.38-14,.38,0c.42.06.8.11,1.2.15s.42.13.52.47a4.33,4.33,0,0,0,3.76,3.25,4.27,4.27,0,0,0,4.33-2,.67.67,0,0,1,.79-.39c3.6.52,7.27,1,10.81,1.52l3,.42h0l1.08-.31.16.48.27,0,2.74.38,1.46.21v.62c0,.73,0,1.42,0,2.12a.51.51,0,0,1-.26.3,4.78,4.78,0,0,0,.21,8.84c.15.06.3.21.3.28,0,.45,0,.91.06,1.4,0,.14,0,.27,0,.41l-1.57-.21L18.65,29.46l-14.45-2c.17-.25.33-.5.5-.74s.1-.21.19-.24A.84.84,0,0,1,6,26.94c.14-.11.34-.19.38-.32A1.07,1.07,0,0,0,6.35,26.07Zm25.51,5.31,2,1.82-.16.17c-1-.12-1.89-.27-1.81-2ZM9.06,14.84a2.15,2.15,0,0,1-.79-.1l-.12,0,0,.12c-.19.57-.45.92-1.14.88l.58-1.38-.06-.06a2,2,0,0,1-.64-1.37,2.09,2.09,0,0,1,2-2.19h.09a2.07,2.07,0,0,1,.14,4.14ZM7.4,8.48l0,0,0,0ZM11.64,31a4.26,4.26,0,0,1-.5.32c-.4.23-.66.08-.71-.38,0-.07,0-.13,0-.19l1.32.19Z"/>
        </g>
    </g>
</svg>