<svg xmlns="http://www.w3.org/2000/svg" viewBox="0 0 38 38.64">
    <defs>
        <style>.cls-1{fill:#8bc03f;}</style>
    </defs>
    <title>salad</title>
    <g id="Слой_2" data-name="Слой 2">
        <g id="Layer_1" data-name="Layer 1">
            <path class="cls-1"
                  d="M12,35.42l-.29-.36,0-.08a2.29,2.29,0,0,1,.27.14,1.12,1.12,0,0,1,.3.32c0,.1-.06.25-.1.38a.66.66,0,0,0-.94.24.36.36,0,0,0,0,.23l0,.76c0,.12,0,.24,0,.39h-1l0-.09a2.41,2.41,0,0,1,.37-.07c.17,0,.29-.05.26-.27,0,0,.05-.09.08-.13s.09-.11.08-.13a.36.36,0,0,0-.15-.15l-.35-.16.05-.09.39.15c-.38-.4.05-.56.12-.82C11.27,35.2,11.69,35.73,12,35.42Z"/>
            <path class="cls-1"
                  d="M18.06,35.65c-.37.28-.59.57-.42,1,.07.19-.13.34-.34.28l-.38-.13.13.4c-.09,0-.14-.06-.15-.09,0-.28-.15-.52-.49-.56a1.06,1.06,0,0,1,.05-.31c0-.06.15-.06.25-.1l.12.13c.24.28.47.25.62-.08a2.65,2.65,0,0,0,.17-.44C17.69,35.5,17.83,35.49,18.06,35.65Z"/>
            <path class="cls-1"
                  d="M18.23,29.72c0,.6,0,.6.18.64-.06.17-.16.42-.25.66l-.12-.2-.63-.28c.38-.06.52-.23.46-.6S18,29.65,18.23,29.72Z"/>
            <path class="cls-1" d="M14.5,33.46,14,33.11s0-.07,0-.1a2,2,0,0,1,.49,0S14.48,33.25,14.5,33.46Z"/>
            <path class="cls-1" d="M17.34,32.32l.9-.26,0,.13-.89.29A1.42,1.42,0,0,0,17.34,32.32Z"/>
            <path class="cls-1" d="M14.91,33l.73,0c0,.05,0,.09,0,.14a1.24,1.24,0,0,1-.74-.06S14.9,33,14.91,33Z"/>
            <path class="cls-1" d="M13.14,32c.08-.21.16-.4.27-.65.05.05.17.16.15.17C13.45,31.65,13.51,32,13.14,32Z"/>
            <path class="cls-1" d="M17.31,37.58l.57.85-.1.06-.57-.84Z"/>
            <path class="cls-1"
                  d="M31.87,31.16l.1.07a3.22,3.22,0,0,0,.34-.46.6.6,0,0,1-.11.06C32.09,30.94,32,31.05,31.87,31.16Z"/>
            <path class="cls-1"
                  d="M8.55,13.72a.79.79,0,0,0,1-.46,6.53,6.53,0,0,1,.59-1c0-.12.05-.25.08-.37a.58.58,0,0,1,.88-.4,5.93,5.93,0,0,1,1.17.89c.43.42.79.9,1.2,1.35a.68.68,0,0,0,1.05.1.69.69,0,0,0-.05-1,3.94,3.94,0,0,1-1.35-2.48A3.8,3.8,0,0,1,13.3,9a1.21,1.21,0,0,1,2-.66,6.79,6.79,0,0,1,1.11,1.16,1.37,1.37,0,0,0,.25-1.23c-.15-.86.42-.78,1-.6a1.4,1.4,0,0,1,1-1.17,5.51,5.51,0,0,1,1.07-.32c.58-.12,1.16-.27,1.74-.44l-1.27-1L20,5.39l-.51-.94a6.9,6.9,0,0,0-.52-.87,5.32,5.32,0,0,0-3.25,1.8.45.45,0,0,1-.35.08l-.28,0,.12.09s-.12.38-.2.38a3.59,3.59,0,0,1-.82-.1c0-.15.06-.27.09-.4A3.83,3.83,0,0,0,10.7,8.16a.94.94,0,0,1-.82.76A3.1,3.1,0,0,0,7.5,11.65a7,7,0,0,0-.1.92c.24-.49.58-.9.89-1-.31.7-.61,1.35-.9,2,0,.12,0,.25,0,.37A1.05,1.05,0,0,1,8.55,13.72Z"/>
            <path class="cls-1"
                  d="M22.9,3l-.33-.14c-.15.27-.22.73-.7.44C22,3,22,2.75,22.1,2.5c-.24.13-.48.26-.74.37a.89.89,0,0,0-.15.27c-.07.26.18.6.3.95-.47.37-.46-.43-.92-.43A4.19,4.19,0,0,0,20.91,5a2.69,2.69,0,0,0,.79.7c.14-.05.29-.08.43-.14v-2h.35a2.4,2.4,0,0,0,0,.71,2,2,0,0,0,.43.86l0,.06.1-.05,0,.13c.37.54.57,1.88.21,2.27a.44.44,0,0,1-.32.15.39.39,0,0,1-.24-.2.36.36,0,0,0,0-.11,8.94,8.94,0,0,0,0,1.37c.06.21.2.37.63.23l-.58.31c0,.14,0,.28.06.42a.66.66,0,0,0,.78.61.65.65,0,0,0,.56-.82A3.29,3.29,0,0,1,25.41,6,6.27,6.27,0,0,1,28.36,4.5a1.2,1.2,0,0,1,1.53,1.31,9.31,9.31,0,0,1-.18,1.38c0,.15-.07.29-.09.43a.68.68,0,0,0,1.33.3A2.76,2.76,0,0,1,31,7.65a11.7,11.7,0,0,1-1.19-.13h1.23a1.42,1.42,0,0,1,.07-.22,1.38,1.38,0,0,1,2.36-.46c.14.15.26.33.39.5l.69-.08c-.22-1.13-.43-2.24-.64-3.36a4.7,4.7,0,0,0-1.75-.28.45.45,0,0,1-.3-.19,3.64,3.64,0,0,0-3.7-1.66,19.52,19.52,0,0,0-2.18.5c0-.08-.05-.2-.09-.33a1.34,1.34,0,0,0-2.2-.63l0,0L23.43,2C22.46,2,23.23,2.71,22.9,3Z"/>
            <path class="cls-1"
                  d="M37.32,13.83a.39.39,0,0,1,0-.5A4.12,4.12,0,0,0,38,10.94a8.35,8.35,0,0,0-.79-3.33l-1.74.14c.11.2.22.41.49.88l-1.49-.47c.08.12.15.24.24.36A10.71,10.71,0,0,0,33.59,9c-.87.5-1.73,1-2.57,1.55a.68.68,0,0,0-.23,1.06.72.72,0,0,0,1.06,0A11.1,11.1,0,0,1,35,9.89a1.76,1.76,0,0,1-.7,2.48,1.29,1.29,0,0,0-.78,1.25,1.35,1.35,0,0,0,.84,1.26c.2.09.39.22.59.33l-.06.16L32.21,15l-.4-.07a.66.66,0,0,0-.8.53.64.64,0,0,0,.55.79c.8.15,1.61.25,2.41.38l.2,0c-.77.83-.77,1.1-.37,2.16a23.22,23.22,0,0,1,.58,2.36c0,.21-.05.31-.25.37a3.61,3.61,0,0,1-2.84-.28c-.46-.26-.91-.55-1.37-.84a.7.7,0,1,0-.74,1.16c.35.23.7.44,1.06.65a2.41,2.41,0,0,1,.21,4.09l-.31.21L28.05,25a2.19,2.19,0,0,0-.41-.26.69.69,0,0,0-.87.23,3.79,3.79,0,0,1,1.29,1.71,10.35,10.35,0,0,1,1.76,1.74A1.7,1.7,0,0,1,30,27.25c.48,1.35.93,2.6,1.38,3.84A3.12,3.12,0,0,1,30,29.19a.61.61,0,0,1-.07.14.81.81,0,0,1-.59.28,3.2,3.2,0,0,1-.86-.13c-.5-.1-1-.22-1.48-.34a4.42,4.42,0,0,1-1.84-.94A11.54,11.54,0,0,0,24,27.28a.65.65,0,0,0-.95.16.67.67,0,0,0,.2,1L24,29a1.3,1.3,0,0,1,.59,1.14h2.35c-1,.59-1.83.69-2.39.32,0,0,0,.06,0,.1a1.6,1.6,0,0,1-1.22,1.22,4.55,4.55,0,0,1,.86.49c.1.09,0,.41,0,.65-.45-.22-.77-.36-1.08-.54-.13-.07-.33-.23-.32-.33a.61.61,0,0,1,.11-.21A2.81,2.81,0,0,1,20,29.33c0-.36,0-.73,0-1.09a.67.67,0,0,0-.58-.77.64.64,0,0,0-.76.59c-.06.5-.06,1-.08,1.57a2.89,2.89,0,0,0-2.48,1.1l-.05.05.59.87-.27.18L15.86,31a4.39,4.39,0,0,1-3,1.23c-.91,0-1.81.14-2.72.2a1.25,1.25,0,0,1-.22,0c.5-.52.93-1,1.41-1.44a36.52,36.52,0,0,1,3-2.67c-.2-.12-.34-.17-.35-.23a2.49,2.49,0,0,0-.4-1c-.62.61-1.27,1.21-1.95,1.78a68,68,0,0,0-6.39,6.54c-.18.19-.3.26-.53.1A9.09,9.09,0,0,0,3.89,35c1-.88,1.89-1.74,2.83-2.59,1.5-1.35,3-2.73,4.51-4A22.62,22.62,0,0,0,13,26.65a1.4,1.4,0,0,0-.39-.09,2.3,2.3,0,0,1,.12-.85c.09-.16.42-.19.69-.3l.33.38h0a24.3,24.3,0,0,0,3.75-6c.74-1.63,1.49-3.26,2.33-4.84a36.17,36.17,0,0,1,2-3.09c.3-.44.31-.84,0-1.1A.75.75,0,0,0,20.8,11a28.22,28.22,0,0,0-3.52,6.09c-.39.85-.79,1.69-1.19,2.54-.05.12-.12.23-.21.4a8.5,8.5,0,0,0-1.31-3.27c-.08-.12-.17-.25-.26-.36a.71.71,0,0,0-1-.19.69.69,0,0,0-.11,1c.11.17.24.32.34.49a6.16,6.16,0,0,1,1,3.73,4.53,4.53,0,0,1-1.19,2.7c-.87,1-1.79,1.95-2.75,2.86-1.92,1.8-3.88,3.57-5.82,5.35l-.49-.3A.66.66,0,0,1,4,31.3c.07-.35.32-.37.64-.36A1.35,1.35,0,0,0,6,29.27c-.09-.4,0-.51.43-.48a2.07,2.07,0,0,0,.43,0,1.37,1.37,0,0,0,1.19-1.68L8,26.85l1-.09a1.41,1.41,0,0,0,1.39-1,1.36,1.36,0,0,0-.65-1.58,1.83,1.83,0,0,1-.27-2.88,1.74,1.74,0,0,1,2.49.16.68.68,0,0,0,1,.18.69.69,0,0,0,.14-1,6.28,6.28,0,0,0-.38-.52,11.4,11.4,0,0,1-2.56-7,2.82,2.82,0,0,1-.61.67,2.22,2.22,0,0,1-1.83.59H7.47c.08.58.19,1.16.32,1.74,0,.11.07.21.09.31l.61-.37a1,1,0,0,1,.27.58l1.76.11c0,.12,0,.25,0,.37a4.2,4.2,0,0,1-1.73,0,1.68,1.68,0,0,1-.16.46l-.43-.15c.12.39.25.77.37,1.16a4.6,4.6,0,0,0-2.1,5.65c-.83.06-1.16.64-1.4,1.31a1.57,1.57,0,0,0-.12.46c0,.34-.2.48-.49.59a1.47,1.47,0,0,0-1,1.3.78.78,0,0,1-.34.53,3.33,3.33,0,0,0-1.72,2.16,3.39,3.39,0,0,0,.34,2.65L.71,34a1.38,1.38,0,0,0,.16,2.49c1.07.61,2.15,1.2,3.22,1.8A1.67,1.67,0,0,0,6.45,38,8.18,8.18,0,0,0,7.52,36.9a4.25,4.25,0,0,1,3.15-1.75c.95-.06,1.9-.13,2.84-.22A6.11,6.11,0,0,0,17.71,33c.17-.2.33-.42.5-.63h.17c.09.13.14.29.25.37a13.48,13.48,0,0,0,1.91,1.31,4.7,4.7,0,0,0,6.37-1.91c0-.09.25-.15.37-.13.47.08.93.22,1.41.29a3.56,3.56,0,0,0,3.11-.89c-.11-.21-.22-.41-.31-.62-.22-.5.35-1.37.92-1.56A.86.86,0,0,0,32.8,29a3.66,3.66,0,0,0,0-.73.71.71,0,0,1,.16-.48l.11-.13a10.54,10.54,0,0,1-.46-2.3A5.34,5.34,0,0,1,33.51,27,4,4,0,0,0,34,25.74a12.39,12.39,0,0,0,.16-1.41,1.64,1.64,0,0,0,.28-.07c.65-.27,1.32-.51,1.94-.83a1.32,1.32,0,0,0,.69-1.19,9.32,9.32,0,0,0-.4-3.48.45.45,0,0,1,.14-.52A3.49,3.49,0,0,0,37.32,13.83Z"/>
            <path class="cls-1"
                  d="M36,5.54A4.86,4.86,0,0,0,34.84,4.4a1.3,1.3,0,0,0,.13.54C35.13,5.23,35.58,5.36,36,5.54Z"/>
            <path class="cls-1"
                  d="M34.85,6.14a6.11,6.11,0,0,0,1.71,1.08,2,2,0,0,0,.49,0,13.5,13.5,0,0,0-.78-1.38l-.06-.07C36,6.38,35.29,5.71,34.85,6.14Z"/>
            <path class="cls-1"
                  d="M26.35,14.14A10.91,10.91,0,0,0,29,11.67a1.06,1.06,0,0,1,.73-1,.63.63,0,0,0-.24-.76.65.65,0,0,0-1,.2,13,13,0,0,1-3.76,3.49,18.13,18.13,0,0,0-5,5.14c-.51.76-1,1.51-1.49,2.29a30.8,30.8,0,0,1-1.86,2.75,1.08,1.08,0,0,1,.72.27c-1,.78-1.6,1.57-1.15,2.82a.5.5,0,0,1,0,.36,8.18,8.18,0,0,0,.75-.69,9.14,9.14,0,0,1,3-1.95,2.05,2.05,0,0,1-.05-.82l.67.61A8.17,8.17,0,0,1,22.23,24a1.65,1.65,0,0,0,.5-.11.63.63,0,0,0,.33-.78.64.64,0,0,0-.77-.48c-1,.18-1.93.4-2.89.62a.76.76,0,0,1-.38,0c.43-.35.84-.72,1.28-1a14.64,14.64,0,0,1,3.94-1.75L28.7,19c.51-.16.72-.52.56-.93a.67.67,0,0,0-1-.37c-2.06.71-4.18,1.26-6.2,2.07a5,5,0,0,1-.1,1.07c-.12-.29-.24-.58-.37-.87q-.69.28-1.38.63s0,0-.07,0,.09-.18.14-.26c.28-.46.58-.89.88-1.31a1.17,1.17,0,0,0-.05-.11h.14A18.1,18.1,0,0,1,26.35,14.14Z"/>
            <path class="cls-1"
                  d="M14,27.24l.33,1.05c.34-.24.68-.46,1-.67a.89.89,0,0,1-.32,0C14.78,27.5,14.48,27.39,14,27.24Z"/>
            <path class="cls-1"
                  d="M18.5,10.93a.68.68,0,0,0-.09-1,2.28,2.28,0,0,1-.29-.34L17.58,11A.66.66,0,0,0,18.5,10.93Z"/>
            <path class="cls-1" d="M17.67,8.66c0,.62.11.71.36.78A2.52,2.52,0,0,1,17.67,8.66Z"/>
            <path class="cls-1" d="M16,24.38c-.51.63-1,1.25-1.6,1.85.45.19.86,0,1.15-.67A8.93,8.93,0,0,0,16,24.38Z"/>
            <path class="cls-1" d="M21.84,6.15,22,5.91l-.3-.22-.3.09Z"/>
            <path class="cls-1" d="M18.69,3.11c-.41-.36-.79-.76-1.18-1.13a17.82,17.82,0,0,0,1.36,1.51l.06.09.27-.06Z"/>
            <path class="cls-1"
                  d="M6.86,9.07a2.15,2.15,0,0,0-.33.64l.62,0c0,.48,0,1,.08,1.56a3,3,0,0,0,.49-2.76A6.8,6.8,0,0,0,6.86,9.07Z"/>
            <path class="cls-1" d="M8.46,17l.29.13a1.49,1.49,0,0,0,0-.47l-.26,0C8.49,16.75,8.47,16.87,8.46,17Z"/>
            <path class="cls-1" d="M7,17l1.2.42c-.1-.32-.2-.65-.28-1Z"/>
            <path class="cls-1"
                  d="M5.89,18.33,7.62,18a1.36,1.36,0,0,1,0-.2,6.38,6.38,0,0,0-1.1-.29C5.92,17.44,5.68,17.8,5.89,18.33Z"/>
            <path class="cls-1" d="M15.06,3.73c.43.63.93,0,1.44.14C16,3.25,15.52,3.23,15.06,3.73Z"/>
            <path class="cls-1" d="M5.47,11.58,4.15,10.3C4.08,10.92,4.53,11.35,5.47,11.58Z"/>
            <path class="cls-1"
                  d="M2.56,10.56c-.05,0,0,.21,0,.31s.16.45.27.77c.11-.12.31-.23.3-.32a3.3,3.3,0,0,0-.25-.81S2.64,10.5,2.56,10.56Z"/>
            <path class="cls-1" d="M17.57,0,16.8.16l.82.67C17.61.54,17.59.28,17.57,0Z"/>
        </g>
    </g>
</svg>